<?xml version="1.0" encoding="UTF-8"?> <svg xmlns="http://www.w3.org/2000/svg" viewBox="0 0 580 150"><path d="M394.24,78.29V62.69l-6.47,15.6H386.2l-6.43-15.6v15.6h-3.7v-21h5.21L387,71.1l5.75-13.84h5.19v21Zm17.36.31V77a6.18,6.18,0,0,1-4.92,2,5.42,5.42,0,0,1-3.77-1.4A4.75,4.75,0,0,1,401.4,74a4.65,4.65,0,0,1,1.46-3.61A5.4,5.4,0,0,1,406.68,69a6.07,6.07,0,0,1,4.92,1.94V68.68a2.51,2.51,0,0,0-1-2.09,4.09,4.09,0,0,0-2.59-.76,6.19,6.19,0,0,0-4.49,1.92l-1.37-2.29A9,9,0,0,1,408.59,63a6.82,6.82,0,0,1,4.67,1.44,5.07,5.07,0,0,1,1.65,4.06V78.6ZM408,76.72a4.13,4.13,0,0,0,3.62-1.59V72.84A4.14,4.14,0,0,0,408,71.27a3.61,3.61,0,0,0-2.35.74,2.44,2.44,0,0,0-.91,2,2.49,2.49,0,0,0,.91,2A3.67,3.67,0,0,0,408,76.72ZM424.39,79a9,9,0,0,1-6.52-2.34l1.52-2.41a7.17,7.17,0,0,0,2.44,1.57,7.25,7.25,0,0,0,2.73.58,3.64,3.64,0,0,0,2.26-.58,1.77,1.77,0,0,0,.73-1.47,1.36,1.36,0,0,0-.92-1.26A17.89,17.89,0,0,0,423,72c-3.06-.65-4.6-2.12-4.6-4.41A4,4,0,0,1,420,64.3,6.85,6.85,0,0,1,424.34,63a8.66,8.66,0,0,1,5.93,2.14l-1.39,2.33a5.13,5.13,0,0,0-1.9-1.31,6.36,6.36,0,0,0-2.6-.52,3.61,3.61,0,0,0-2.09.52,1.53,1.53,0,0,0-.76,1.33,1.17,1.17,0,0,0,.81,1.1,27.5,27.5,0,0,0,3.79,1q4.61,1,4.6,4.64A4.07,4.07,0,0,1,429,77.7,7.57,7.57,0,0,1,424.39,79Zm14.26,0a3.48,3.48,0,0,1-3.9-3.9V66.28h-2.53V63.37h2.53V59.22h3.31v4.15h3.08v2.91h-3.08v8a2.18,2.18,0,0,0,.35,1.29,1.25,1.25,0,0,0,1.09.5,1.93,1.93,0,0,0,1.49-.53l.78,2.49A4.32,4.32,0,0,1,438.65,79Zm12.51,0a7.75,7.75,0,0,1-5.75-2.23A7.88,7.88,0,0,1,443.2,71a7.8,7.8,0,0,1,2.2-5.69A7.37,7.37,0,0,1,450.92,63a6.87,6.87,0,0,1,5.45,2.34,8.68,8.68,0,0,1,2.05,5.93v.8H446.65a4.64,4.64,0,0,0,1.54,3,4.87,4.87,0,0,0,3.32,1.14,7,7,0,0,0,2.31-.42,5.1,5.1,0,0,0,2-1.26l1.51,2.18A8.5,8.5,0,0,1,451.16,79Zm4-9.22a4.11,4.11,0,0,0-1.28-2.92,4.18,4.18,0,0,0-3-1.13,4.11,4.11,0,0,0-3,1.13,4.61,4.61,0,0,0-1.33,2.92Zm6.49,8.85V63.37H465v2.24a7.13,7.13,0,0,1,2.14-1.85A5.59,5.59,0,0,1,470,63v3.29l-1-.09a5.11,5.11,0,0,0-2.26.59A3.91,3.91,0,0,0,465,68.24V78.6Zm25.92.37A7.58,7.58,0,0,1,482,76.74a8.64,8.64,0,0,1,0-11.5,8.23,8.23,0,0,1,11.27,0,8.56,8.56,0,0,1,0,11.5A7.54,7.54,0,0,1,487.62,79Zm0-2.92a4,4,0,0,0,3.18-1.42A5.4,5.4,0,0,0,492,71a5.33,5.33,0,0,0-1.23-3.64,4.31,4.31,0,0,0-6.34,0A5.31,5.31,0,0,0,483.24,71a5.47,5.47,0,0,0,1.2,3.68A4,4,0,0,0,487.62,76.05Zm12,2.55V66.28h-2.53V63.37h2.53v-.85a5.45,5.45,0,0,1,1.31-3.88,4.67,4.67,0,0,1,3.52-1.38,4.9,4.9,0,0,1,3.65,1.33l-1.29,2A2.57,2.57,0,0,0,505,60c-1.41,0-2.11.85-2.11,2.55v.85H506v2.91h-3.09V78.6Z"></path><path d="M376.07,116.12v-21h7.82a10.91,10.91,0,0,1,8,3,10.95,10.95,0,0,1,0,15.12,11,11,0,0,1-8,2.94Zm7.82-3.25a6.94,6.94,0,0,0,5.26-2,8,8,0,0,0,0-10.49,7,7,0,0,0-5.25-2h-4.12v14.53Zm23.77,3.25v-1.65a6.16,6.16,0,0,1-4.92,2,5.36,5.36,0,0,1-3.77-1.41,4.72,4.72,0,0,1-1.51-3.62,4.64,4.64,0,0,1,1.46-3.6,5.39,5.39,0,0,1,3.82-1.35,6.08,6.08,0,0,1,4.92,1.94v-2.26a2.49,2.49,0,0,0-1-2.08,4.05,4.05,0,0,0-2.59-.76,6.19,6.19,0,0,0-4.49,1.92L398.23,103a9,9,0,0,1,6.42-2.46,6.82,6.82,0,0,1,4.67,1.44A5.09,5.09,0,0,1,411,106v10.09ZM404,114.23a4.13,4.13,0,0,0,3.62-1.59v-2.29a4.17,4.17,0,0,0-3.62-1.57,3.65,3.65,0,0,0-2.35.74,2.62,2.62,0,0,0,0,4A3.59,3.59,0,0,0,404,114.23Zm15.79,2.26a3.92,3.92,0,0,1-2.92-1,4,4,0,0,1-1-2.9v-8.8h-2.54v-2.9h2.54V96.73h3.3v4.16h3.09v2.9h-3.09v8a2.3,2.3,0,0,0,.35,1.29,1.29,1.29,0,0,0,1.1.5,1.9,1.9,0,0,0,1.49-.54l.78,2.5A4.33,4.33,0,0,1,419.83,116.49Zm14.78-.37v-1.65a6.15,6.15,0,0,1-4.91,2,5.36,5.36,0,0,1-3.77-1.41,4.73,4.73,0,0,1-1.52-3.62,4.68,4.68,0,0,1,1.46-3.6,5.43,5.43,0,0,1,3.83-1.35,6,6,0,0,1,4.91,1.94v-2.26a2.46,2.46,0,0,0-1-2.08,4,4,0,0,0-2.58-.76,6.19,6.19,0,0,0-4.49,1.92L425.19,103a8.93,8.93,0,0,1,6.41-2.46,6.86,6.86,0,0,1,4.68,1.44,5.12,5.12,0,0,1,1.64,4.07v10.09ZM431,114.23a4.13,4.13,0,0,0,3.62-1.59v-2.29a4.17,4.17,0,0,0-3.62-1.57,3.67,3.67,0,0,0-2.35.74,2.64,2.64,0,0,0,0,4A3.61,3.61,0,0,0,431,114.23Zm26.61,2.26a11.14,11.14,0,0,1-8.54-3.33l2.05-2.84a8.83,8.83,0,0,0,6.66,2.9,5.22,5.22,0,0,0,3.06-.8,2.43,2.43,0,0,0,1.15-2.07,2.07,2.07,0,0,0-.94-1.73,8.11,8.11,0,0,0-2.94-1.17,24.94,24.94,0,0,1-5.45-1.74,5.75,5.75,0,0,1-2.18-2,5.15,5.15,0,0,1-.74-2.81,5.42,5.42,0,0,1,2.14-4.4,8.43,8.43,0,0,1,5.51-1.76,11,11,0,0,1,7.89,2.94l-2.13,2.74a8.2,8.2,0,0,0-6.08-2.4,4.24,4.24,0,0,0-2.6.72,2.22,2.22,0,0,0-1,1.9,1.87,1.87,0,0,0,1.2,1.66,27.45,27.45,0,0,0,4.91,1.52,9.77,9.77,0,0,1,4.55,2.27,5.14,5.14,0,0,1,1.57,3.88,5.82,5.82,0,0,1-2.14,4.73A9.22,9.22,0,0,1,457.6,116.49Zm18.38,0a7.61,7.61,0,0,1-5.68-2.27,8,8,0,0,1-2.2-5.73,7.86,7.86,0,0,1,2.2-5.7,7.61,7.61,0,0,1,5.68-2.27,6.85,6.85,0,0,1,5.84,2.7l-2.19,2a4.09,4.09,0,0,0-3.49-1.79,4.26,4.26,0,0,0-3.32,1.41,5.2,5.2,0,0,0-1.28,3.64,5.39,5.39,0,0,0,1.26,3.66,4.25,4.25,0,0,0,3.34,1.42,4.11,4.11,0,0,0,3.49-1.79l2.19,2A6.85,6.85,0,0,1,476,116.49ZM486.36,99a2,2,0,0,1-1.44-.59,2,2,0,0,1,0-2.9,2,2,0,0,1,1.44-.59,2,2,0,0,1,1.44.59A2,2,0,0,1,486.36,99Zm-1.65,17.1V100.89H488v15.23Zm14.63.37a7.74,7.74,0,0,1-5.75-2.24,8.53,8.53,0,0,1,0-11.46,7.42,7.42,0,0,1,5.52-2.27,6.88,6.88,0,0,1,5.46,2.35,8.71,8.71,0,0,1,2.05,5.93v.8H494.83a4.61,4.61,0,0,0,1.53,3,4.84,4.84,0,0,0,3.33,1.15,7,7,0,0,0,2.31-.42,5.3,5.3,0,0,0,2-1.26l1.52,2.18A8.52,8.52,0,0,1,499.34,116.49Zm4-9.22a4.1,4.1,0,0,0-1.27-2.92,4.22,4.22,0,0,0-3-1.13,4.07,4.07,0,0,0-2.95,1.13,4.51,4.51,0,0,0-1.33,2.92Zm16.77,8.85V106.6q0-3.16-3-3.16a4.4,4.4,0,0,0-2.33.63,5.41,5.41,0,0,0-1.59,1.42v10.63h-3.31V100.89h3.31V103a6.73,6.73,0,0,1,2.39-1.77,6.8,6.8,0,0,1,3-.69q4.92,0,4.92,4.88v10.72Zm14.53.37a7.59,7.59,0,0,1-5.67-2.27,7.94,7.94,0,0,1-2.2-5.73,7.82,7.82,0,0,1,2.2-5.7,7.59,7.59,0,0,1,5.67-2.27,6.84,6.84,0,0,1,5.84,2.7l-2.18,2a4.1,4.1,0,0,0-3.49-1.79,4.28,4.28,0,0,0-3.33,1.41,5.2,5.2,0,0,0-1.28,3.64,5.39,5.39,0,0,0,1.26,3.66,4.27,4.27,0,0,0,3.35,1.42,4.14,4.14,0,0,0,3.49-1.79l2.18,2A6.84,6.84,0,0,1,534.68,116.49Zm15.76,0a7.63,7.63,0,0,1-8-8,7.85,7.85,0,0,1,2.19-5.7,7.44,7.44,0,0,1,5.53-2.27,6.86,6.86,0,0,1,5.45,2.35,8.66,8.66,0,0,1,2.05,5.93v.8H545.93a4.62,4.62,0,0,0,1.54,3,4.83,4.83,0,0,0,3.32,1.15,7,7,0,0,0,2.31-.42,5.42,5.42,0,0,0,2-1.26l1.51,2.18A8.5,8.5,0,0,1,550.44,116.49Zm4-9.22a4.11,4.11,0,0,0-1.28-2.92,4.19,4.19,0,0,0-3-1.13,4.11,4.11,0,0,0-3,1.13,4.61,4.61,0,0,0-1.33,2.92Z"></path><path d="M382.45,147.52a6.61,6.61,0,0,1-4.72-1.59,5.88,5.88,0,0,1-1.66-4.47v-8.91h2.61v8.81a4.06,4.06,0,0,0,.94,2.83,3.64,3.64,0,0,0,2.83,1,3.59,3.59,0,0,0,2.79-1,4,4,0,0,0,1-2.83v-8.81h2.6v8.89a5.89,5.89,0,0,1-1.68,4.49A6.53,6.53,0,0,1,382.45,147.52Zm16.6-.26v-6.67a1.91,1.91,0,0,0-2.13-2.2,3.07,3.07,0,0,0-1.62.44,3.76,3.76,0,0,0-1.11,1v7.43h-2.33V136.6h2.33v1.46a4.66,4.66,0,0,1,1.64-1.24,4.89,4.89,0,0,1,2.11-.48q3.44,0,3.44,3.42v7.5Zm6.47-12a1.38,1.38,0,0,1-1-.42,1.41,1.41,0,0,1-.43-1,1.35,1.35,0,0,1,.43-1,1.38,1.38,0,0,1,1-.42,1.35,1.35,0,0,1,1,.42,1.32,1.32,0,0,1,.43,1,1.38,1.38,0,0,1-.43,1A1.35,1.35,0,0,1,405.52,135.3Zm-1.15,12V136.6h2.33v10.66Zm8.13,0-4.34-10.66h2.45l3.13,8,3.1-8h2.5L415,147.26Zm13.2.26a5.68,5.68,0,0,1-4-9.59,5.17,5.17,0,0,1,3.86-1.59,4.8,4.8,0,0,1,3.81,1.64,6.09,6.09,0,0,1,1.44,4.16v.55h-8.23a3.22,3.22,0,0,0,1.06,2.13,3.4,3.4,0,0,0,2.34.81,4.87,4.87,0,0,0,1.59-.29,4,4,0,0,0,1.43-.89l1,1.53A5.91,5.91,0,0,1,425.7,147.52Zm2.83-6.47a2.76,2.76,0,0,0-.89-2,2.93,2.93,0,0,0-2.1-.78,2.86,2.86,0,0,0-2.07.78,3.19,3.19,0,0,0-.93,2Zm4.55,6.21V136.6h2.33v1.57a5,5,0,0,1,1.49-1.3,4,4,0,0,1,2-.51v2.29l-.72-.06a3.32,3.32,0,0,0-1.57.43,2.67,2.67,0,0,0-1.16,1v7.26Zm11.3.26a6.3,6.3,0,0,1-4.57-1.65l1.06-1.68a5.36,5.36,0,0,0,3.62,1.5,2.61,2.61,0,0,0,1.57-.39,1.24,1.24,0,0,0,.53-1,1,1,0,0,0-.64-.89,12.24,12.24,0,0,0-2.59-.7c-2.14-.46-3.22-1.49-3.22-3.11a2.86,2.86,0,0,1,1.15-2.33,4.85,4.85,0,0,1,3-.9,6.07,6.07,0,0,1,4.14,1.49l-1,1.65a3.79,3.79,0,0,0-1.33-.92,4.44,4.44,0,0,0-1.83-.37,2.51,2.51,0,0,0-1.46.37,1.1,1.1,0,0,0-.52.94.83.83,0,0,0,.57.76,18.74,18.74,0,0,0,2.65.72c2.14.48,3.21,1.55,3.21,3.23a2.82,2.82,0,0,1-1.22,2.42A5.29,5.29,0,0,1,444.38,147.52Zm7.92-12.22a1.36,1.36,0,0,1-1-.42,1.41,1.41,0,0,1-.43-1,1.43,1.43,0,0,1,2.44-1,1.32,1.32,0,0,1,.43,1,1.38,1.38,0,0,1-.43,1A1.35,1.35,0,0,1,452.3,135.3Zm-1.15,12V136.6h2.33v10.66Zm12.82,0V145.8a4.16,4.16,0,0,1-3.42,1.72,4.34,4.34,0,0,1-3.43-1.5,6.92,6.92,0,0,1,0-8.13,4.25,4.25,0,0,1,3.43-1.55,4.09,4.09,0,0,1,3.42,1.73v-5.52h2.33v14.71Zm-2.75-1.79a3.36,3.36,0,0,0,1.59-.41,3,3,0,0,0,1.16-1v-4.23a3,3,0,0,0-1.16-1,3.26,3.26,0,0,0-1.59-.42,2.67,2.67,0,0,0-2.2,1,3.91,3.91,0,0,0-.8,2.55,3.77,3.77,0,0,0,.84,2.57A2.74,2.74,0,0,0,461.22,145.47Zm14.57,1.79v-1.15a4.29,4.29,0,0,1-3.43,1.41,3.81,3.81,0,0,1-2.65-1,3.38,3.38,0,0,1-1-2.55,3.24,3.24,0,0,1,1-2.5,3.78,3.78,0,0,1,2.68-1,4.23,4.23,0,0,1,3.43,1.37v-1.59a1.74,1.74,0,0,0-.68-1.46,2.81,2.81,0,0,0-1.79-.54,4.36,4.36,0,0,0-3.16,1.35l-1-1.6a6.24,6.24,0,0,1,4.49-1.72,4.85,4.85,0,0,1,3.29,1,3.6,3.6,0,0,1,1.14,2.85v7.06Zm-2.53-1.33a2.91,2.91,0,0,0,2.53-1.09v-1.63a2.93,2.93,0,0,0-2.53-1.09,2.52,2.52,0,0,0-1.64.52A1.71,1.71,0,0,0,471,144a1.68,1.68,0,0,0,.63,1.37A2.52,2.52,0,0,0,473.26,145.93Zm15.36,1.33V145.8a4.16,4.16,0,0,1-3.42,1.72,4.36,4.36,0,0,1-3.44-1.5,7,7,0,0,1,0-8.13,4.27,4.27,0,0,1,3.44-1.55,4.12,4.12,0,0,1,3.42,1.73v-5.52H491v14.71Zm-2.75-1.79a3.29,3.29,0,0,0,1.58-.41,3,3,0,0,0,1.17-1v-4.23a3,3,0,0,0-1.17-1,3.2,3.2,0,0,0-1.58-.42,2.67,2.67,0,0,0-2.2,1,3.91,3.91,0,0,0-.8,2.55,3.82,3.82,0,0,0,.83,2.57A2.77,2.77,0,0,0,485.87,145.47Zm21.24,1.79V145.8a4.16,4.16,0,0,1-3.42,1.72,4.36,4.36,0,0,1-3.44-1.5,7,7,0,0,1,0-8.13,4.27,4.27,0,0,1,3.44-1.55,4.12,4.12,0,0,1,3.42,1.73v-5.52h2.33v14.71Zm-2.75-1.79a3.36,3.36,0,0,0,1.59-.41,3,3,0,0,0,1.16-1v-4.23a3,3,0,0,0-1.16-1,3.26,3.26,0,0,0-1.59-.42,2.67,2.67,0,0,0-2.2,1,3.91,3.91,0,0,0-.8,2.55,3.82,3.82,0,0,0,.83,2.57A2.77,2.77,0,0,0,504.36,145.47Zm13,2.05a5.69,5.69,0,0,1-4-9.59,5.2,5.2,0,0,1,3.87-1.59A4.8,4.8,0,0,1,521,138a6.09,6.09,0,0,1,1.44,4.16v.55H514.2a3.25,3.25,0,0,0,1,2.13,3.44,3.44,0,0,0,2.35.81,4.87,4.87,0,0,0,1.59-.29,3.86,3.86,0,0,0,1.42-.89l1.06,1.53A5.91,5.91,0,0,1,517.34,147.52Zm2.83-6.47a2.8,2.8,0,0,0-.89-2,2.93,2.93,0,0,0-2.1-.78,2.86,2.86,0,0,0-2.07.78,3.19,3.19,0,0,0-.93,2Zm17.35,6.47a7.54,7.54,0,0,1-5.54-2.16,7.94,7.94,0,0,1,0-10.91,7.57,7.57,0,0,1,5.56-2.16,6.62,6.62,0,0,1,5.91,3.33l-2.21,1.11a4.35,4.35,0,0,0-3.7-2.13,4.84,4.84,0,0,0-3.66,1.52,5.25,5.25,0,0,0-1.42,3.78,5.37,5.37,0,0,0,1.42,3.83,4.82,4.82,0,0,0,3.66,1.5,4.14,4.14,0,0,0,2.18-.61,4.23,4.23,0,0,0,1.52-1.54l2.21,1.13A6.62,6.62,0,0,1,537.52,147.52Zm15.14-.26v-6.71a1.91,1.91,0,0,0-2.16-2.16,3.06,3.06,0,0,0-1.61.44,4.13,4.13,0,0,0-1.13,1v7.43h-2.32V132.55h2.32v5.51a5.09,5.09,0,0,1,3.77-1.72c2.3,0,3.44,1.12,3.44,3.38v7.54Zm6.46-12a1.36,1.36,0,0,1-1-.42,1.38,1.38,0,0,1-.43-1,1.32,1.32,0,0,1,.43-1,1.44,1.44,0,0,1,2.44,1,1.41,1.41,0,0,1-.43,1A1.35,1.35,0,0,1,559.12,135.3Zm-1.15,12V136.6h2.33v10.66Zm5.32,0V132.55h2.33v14.71Zm10.23.26a5.69,5.69,0,0,1-4-9.59,5.18,5.18,0,0,1,3.86-1.59,4.8,4.8,0,0,1,3.81,1.64,6.09,6.09,0,0,1,1.44,4.16v.55h-8.22a3.25,3.25,0,0,0,1,2.13,3.44,3.44,0,0,0,2.35.81,5,5,0,0,0,1.59-.29,3.86,3.86,0,0,0,1.42-.89l1.05,1.53A5.87,5.87,0,0,1,573.52,147.52Zm2.83-6.47a2.8,2.8,0,0,0-.89-2,3,3,0,0,0-2.11-.78,2.89,2.89,0,0,0-2.07.78,3.18,3.18,0,0,0-.92,2Z"></path><path d="M165,147.26v-54l-26.5,44.5h-9.39L102.78,94.41v52.85H83.24v-90h17.23l33.69,55.92,33.18-55.92h17.09v90Z"></path><path d="M197.5,57.26h40.89q14.66,0,25.89,5.59A41.67,41.67,0,0,1,281.77,78.6Q288,88.76,288,102.26t-6.25,23.65a41.89,41.89,0,0,1-17.49,15.76q-11.23,5.6-25.89,5.59H197.5Zm39.85,72.89q13.52,0,21.55-7.52t8-20.37q0-12.86-8-20.38t-21.55-7.53h-19v55.8Z"></path><path d="M325.07,148.8a73.94,73.94,0,0,1-20.64-2.89q-10-2.9-16-7.52l7.07-15.7a47.91,47.91,0,0,0,13.75,6.83,51.88,51.88,0,0,0,15.95,2.56q8.88,0,13.12-2.64c2.83-1.75,4.24-4.09,4.24-7a6.69,6.69,0,0,0-2.51-5.33,18.75,18.75,0,0,0-6.42-3.41q-3.93-1.29-10.61-2.82A148.87,148.87,0,0,1,306.17,106a27.36,27.36,0,0,1-11.26-7.84q-4.68-5.4-4.69-14.41a25,25,0,0,1,4.24-14.21q4.25-6.37,12.79-10.09t20.91-3.74A69.21,69.21,0,0,1,345,57.76a49.44,49.44,0,0,1,14.39,5.92L353,79.5Q340.49,72.42,328,72.42q-8.76,0-12.93,2.84a8.64,8.64,0,0,0-4.18,7.46c0,3.08,1.61,5.38,4.82,6.87A75.65,75.65,0,0,0,330.47,94a146.43,146.43,0,0,1,16.84,4.88,28,28,0,0,1,11.25,7.71q4.69,5.28,4.69,14.28A24.59,24.59,0,0,1,358.94,135q-4.31,6.36-12.92,10.1T325.07,148.8Z"></path><path d="M26,41.81,28.72,31.3l-8.41-6.88,10.85-.62L35.1,13.67,39,23.8l10.86.62L41.48,31.3l2.76,10.51L35.1,35.93Zm9.14-6.69,8,5.16L40.7,31l7.39-6-9.53-.54-3.46-8.9-3.46,8.9L22.11,25l7.39,6-2.43,9.24Z"></path><polygon points="32.67 20.87 28.55 8.21 28.09 8.36 32.39 21.58 32.67 20.87"></polygon><path d="M32.39,21.93h0a.37.37,0,0,1-.32-.24L27.77,8.47A.34.34,0,0,1,28,8l.46-.15a.34.34,0,0,1,.43.22L33,20.77A.3.3,0,0,1,33,21l-.28.71A.35.35,0,0,1,32.39,21.93Z"></path><polygon points="13.17 29.39 26.93 29.39 26.34 28.9 13.17 28.9 13.17 29.39"></polygon><path d="M26.93,29.73H13.17a.34.34,0,0,1-.34-.35V28.9a.34.34,0,0,1,.34-.34H26.34a.32.32,0,0,1,.21.08l.59.48a.33.33,0,0,1,.11.38A.34.34,0,0,1,26.93,29.73Z"></path><polygon points="31.4 24.13 31.52 23.81 18.36 5.7 17.98 5.99 31.17 24.14 31.4 24.13"></polygon><path d="M31.17,24.49a.33.33,0,0,1-.28-.15L17.7,6.19a.35.35,0,0,1-.06-.26.32.32,0,0,1,.13-.22l.39-.28a.34.34,0,0,1,.48.07L31.8,23.61a.35.35,0,0,1,0,.33l-.12.31a.33.33,0,0,1-.3.22l-.23,0Z"></path><polygon points="35.1 14.62 35.34 15.23 35.34 0.34 34.86 0.34 34.86 15.23 35.1 14.62"></polygon><path d="M35.34,15.58a.35.35,0,0,1-.24-.1.34.34,0,0,1-.58-.25V.34A.34.34,0,0,1,34.86,0h.48a.34.34,0,0,1,.34.34V15.23a.33.33,0,0,1-.28.34Z"></path><polygon points="42.15 24.32 52.98 16.45 52.7 16.06 41.39 24.28 42.15 24.32"></polygon><path d="M42.15,24.67h0l-.76,0a.34.34,0,0,1-.18-.62L52.5,15.78a.37.37,0,0,1,.25-.06.33.33,0,0,1,.23.14l.28.39a.34.34,0,0,1-.08.48L42.35,24.6A.37.37,0,0,1,42.15,24.67Z"></path><polygon points="48.99 24.71 48.64 25 62.57 20.47 62.42 20.02 48.12 24.66 48.99 24.71"></polygon><path d="M48.64,25.34a.35.35,0,0,1-.3-.18.24.24,0,0,1,0-.15h-.2a.33.33,0,0,1-.32-.3.35.35,0,0,1,.24-.37l14.29-4.64a.33.33,0,0,1,.26,0,.28.28,0,0,1,.17.2l.15.46a.34.34,0,0,1-.22.43L48.75,25.32Z"></path><polygon points="28.81 24.28 17.5 16.06 17.22 16.45 28.05 24.32 28.81 24.28"></polygon><path d="M28.05,24.67a.37.37,0,0,1-.2-.07L17,16.73a.35.35,0,0,1-.07-.48l.28-.39a.35.35,0,0,1,.48-.08L29,24a.35.35,0,0,1,.13.38.36.36,0,0,1-.31.24l-.76,0Z"></path><polygon points="37.81 21.58 42.11 8.36 41.65 8.21 37.53 20.87 37.81 21.58"></polygon><path d="M37.81,21.93a.35.35,0,0,1-.32-.22L37.21,21a.36.36,0,0,1,0-.23L41.32,8.11a.34.34,0,0,1,.43-.22l.46.15a.28.28,0,0,1,.2.17.33.33,0,0,1,0,.26L38.14,21.69a.36.36,0,0,1-.32.24Z"></path><polygon points="38.8 24.13 39.03 24.14 52.23 5.99 51.84 5.7 38.68 23.81 38.8 24.13"></polygon><path d="M39,24.49h0l-.23,0a.33.33,0,0,1-.3-.22l-.12-.31a.35.35,0,0,1,0-.33L51.56,5.5A.34.34,0,0,1,52,5.43l.39.28a.32.32,0,0,1,.13.22.35.35,0,0,1-.06.26L39.31,24.34A.33.33,0,0,1,39,24.49Z"></path><polygon points="57.03 28.9 43.86 28.9 43.28 29.39 57.03 29.39 57.03 28.9"></polygon><path d="M43.28,29.73A.35.35,0,0,1,43,29.5a.33.33,0,0,1,.11-.38l.59-.48a.32.32,0,0,1,.21-.08H57a.35.35,0,0,1,.24.1.33.33,0,0,1,.1.24v.48a.34.34,0,0,1-.34.35Z"></path><polygon points="21.21 24.71 22.08 24.66 7.78 20.02 7.63 20.47 21.56 25 21.21 24.71"></polygon><path d="M21.56,25.34h-.11L7.53,20.8a.34.34,0,0,1-.22-.43l.15-.46a.28.28,0,0,1,.17-.2.33.33,0,0,1,.26,0l14.29,4.64a.35.35,0,0,1,.24.37.33.33,0,0,1-.32.3h-.2a.33.33,0,0,1,0,.15A.35.35,0,0,1,21.56,25.34Z"></path><polygon points="37.4 37 41.65 50.08 42.11 49.93 38.04 37.41 37.4 37"></polygon><path d="M41.65,50.42a.29.29,0,0,1-.16,0,.34.34,0,0,1-.17-.2L37.07,37.1a.35.35,0,0,1,.12-.37.35.35,0,0,1,.4,0l.63.41a.36.36,0,0,1,.15.19l4.06,12.51a.34.34,0,0,1-.22.43l-.46.15Z"></path><polygon points="35.1 35.52 34.86 35.68 34.86 57.95 35.34 57.95 35.34 35.68 35.1 35.52"></polygon><path d="M35.34,58.29h-.48a.34.34,0,0,1-.34-.34V35.68a.35.35,0,0,1,.15-.29l.24-.16a.37.37,0,0,1,.38,0l.24.16a.33.33,0,0,1,.15.29V58A.34.34,0,0,1,35.34,58.29Z"></path><polygon points="41.94 34.41 52.7 42.23 52.98 41.84 41.75 33.68 41.94 34.41"></polygon><path d="M52.7,42.57a.36.36,0,0,1-.2-.06L41.74,34.69a.36.36,0,0,1-.13-.19l-.19-.73a.36.36,0,0,1,.14-.38.35.35,0,0,1,.39,0l11.23,8.16a.34.34,0,0,1,.08.48l-.28.39a.3.3,0,0,1-.23.14Z"></path><polygon points="41.09 31.17 41.14 31.36 62.42 38.27 62.57 37.82 41.38 30.93 41.09 31.17"></polygon><path d="M62.42,38.62l-.11,0L41,31.69a.35.35,0,0,1-.22-.24l-.05-.19a.33.33,0,0,1,.11-.35l.29-.24a.33.33,0,0,1,.33-.06l21.18,6.88a.34.34,0,0,1,.22.43l-.15.46a.28.28,0,0,1-.17.2A.37.37,0,0,1,62.42,38.62Z"></path><polygon points="43.69 41.04 43.24 40.75 51.84 52.59 52.23 52.31 43.48 40.28 43.69 41.04"></polygon><path d="M51.83,52.93a.33.33,0,0,1-.27-.14L43,41a.33.33,0,0,1,0-.44.32.32,0,0,1,.18-.1l0-.06a.34.34,0,0,1,.19-.39.32.32,0,0,1,.42.11l8.74,12a.35.35,0,0,1,.06.26.32.32,0,0,1-.13.22l-.39.28A.31.31,0,0,1,51.83,52.93Z"></path><polygon points="32.16 37.41 28.09 49.93 28.55 50.08 32.8 37 32.16 37.41"></polygon><path d="M28.55,50.42l-.1,0L28,50.25a.28.28,0,0,1-.2-.17.33.33,0,0,1,0-.26l4.07-12.51a.3.3,0,0,1,.14-.19l.63-.41a.34.34,0,0,1,.4,0,.34.34,0,0,1,.12.37L28.88,50.18A.34.34,0,0,1,28.55,50.42Z"></path><polygon points="28.45 33.68 17.22 41.84 17.5 42.23 28.26 34.41 28.45 33.68"></polygon><path d="M17.5,42.57h-.05a.33.33,0,0,1-.23-.14L16.94,42a.35.35,0,0,1,.07-.48L28.25,33.4a.36.36,0,0,1,.4,0,.37.37,0,0,1,.13.38l-.19.73a.33.33,0,0,1-.13.19L17.7,42.51A.36.36,0,0,1,17.5,42.57Z"></path><polygon points="29.11 31.17 28.82 30.93 7.63 37.82 7.78 38.27 29.06 31.36 29.11 31.17"></polygon><path d="M7.78,38.62a.42.42,0,0,1-.15,0,.28.28,0,0,1-.17-.2l-.15-.46a.34.34,0,0,1,.22-.43l21.18-6.88a.33.33,0,0,1,.33.06l.29.24a.33.33,0,0,1,.11.35l-.05.19a.35.35,0,0,1-.22.24L7.89,38.6Z"></path><polygon points="26.51 41.04 26.71 40.28 17.98 52.31 18.37 52.59 26.96 40.75 26.51 41.04"></polygon><path d="M18.36,52.93a.32.32,0,0,1-.2-.07l-.39-.28a.32.32,0,0,1-.13-.22.35.35,0,0,1,.06-.26l8.74-12a.33.33,0,0,1,.42-.11.34.34,0,0,1,.19.4l0,.05a.32.32,0,0,1,.18.1.33.33,0,0,1,0,.44l-8.6,11.83A.34.34,0,0,1,18.36,52.93Z"></path><rect x="34.96" y="14.68" width="0.27" height="20.85"></rect><path d="M35.35,35.64h-.5V14.56h.5Zm-.27-.23h0V14.79h0Z"></path><rect x="31.01" y="17.52" width="0.28" height="20.85" transform="translate(-5.05 48.93) rotate(-72)"></rect><path d="M41.09,31.44l-20-6.51.16-.48,20,6.51ZM21.34,24.78,41,31.15v0L21.35,24.74Z"></path><rect x="28.6" y="27.81" width="20.84" height="0.28" transform="translate(-6.62 13.08) rotate(-17.57)"></rect><path d="M29.07,31.44,28.92,31l20-6.51.16.48Zm.14-.33v0l19.61-6.37v0Z"></path><rect x="37.4" y="22.15" width="0.27" height="20.84" transform="translate(-11.98 28.28) rotate(-36)"></rect><path d="M43.52,41.24l-12.38-17,.4-.3L43.93,41Zm-12.06-17L43.57,40.93l0,0L31.49,24.22Z"></path><polygon points="26.65 41.09 26.43 40.92 38.68 24.06 38.9 24.22 26.65 41.09"></polygon><path d="M26.68,41.24,26.27,41,38.66,23.9l.4.3Zm-.09-.34,0,0L38.74,24.25l0,0Z"></path><path d="M0,57.26v84.86c0,3.26,1.87,5.14,5.14,5.14H30c1.09,0,4.19.31,4.19,1.67v.92H36v-.92c0-1.36,3.09-1.67,4.18-1.67H65.06c3.27,0,5.14-1.88,5.14-5.14V57.26Zm68.37,84.86c0,2.22-1.08,3.31-3.31,3.31H40.2c-1.87,0-3.94.41-5.1,1.47-1.16-1.06-3.23-1.47-5.1-1.47H5.14c-2.23,0-3.31-1.09-3.31-3.31v-83H68.37Z"></path><path d="M44.59,71.2a.35.35,0,0,1-.28-.14l-2.68-3.75a4.2,4.2,0,0,1-.77.08,2,2,0,0,1-1.69-.77c-.71-1-.05-2.69,1.5-3.75A4.29,4.29,0,0,1,43,62.08a2,2,0,0,1,1.69.77,2.25,2.25,0,0,1-.29,2.57l1.48,2.27a.37.37,0,0,1,0,.39,6.24,6.24,0,0,0-1,2.82.34.34,0,0,1-.25.29Zm-2.82-4.63a.35.35,0,0,1,.28.14L44.39,70a6.41,6.41,0,0,1,.81-2.1L43.71,65.6a.34.34,0,0,1,0-.4,1.76,1.76,0,0,0,.41-2A1.3,1.3,0,0,0,43,62.76a3.63,3.63,0,0,0-2,.68c-1.2.81-1.8,2.09-1.32,2.8a1.31,1.31,0,0,0,1.12.47,2.68,2.68,0,0,0,.81-.13Z"></path><path d="M50.06,76h0a2.48,2.48,0,0,1-2.31-1,3.88,3.88,0,0,1-.13-3.66.34.34,0,0,1,.6,0l2.71,4.16a.32.32,0,0,1,0,.34.34.34,0,0,1-.28.19Zm-2-3.75a3,3,0,0,0,.31,2.39c.29.47.78.67,1.69.68Z"></path><path d="M50.21,68.89a.46.46,0,0,1-.46.46.46.46,0,1,1,.46-.46Z"></path><path d="M49.75,69.58a.69.69,0,0,1-.69-.69.69.69,0,0,1,1.38,0A.69.69,0,0,1,49.75,69.58Zm0-.91a.23.23,0,1,0,0,.45.23.23,0,1,0,0-.45Z"></path><path d="M25.49,100.26H1v1.15H25.21A9.18,9.18,0,0,1,25.49,100.26Z"></path><path d="M44.71,100.26a9.18,9.18,0,0,1,.28,1.15H69.54v-1.15Z"></path><path d="M35.1,93.15l.57,0V58.26H34.53V93.17Z"></path><path d="M35.1,113.25h-.57V147.9h1.14V113.24Z"></path><path d="M42.45,107.77H27.75l-.3-.52L34.8,94.52h.6l7.35,12.73Zm-14.1-.69h13.5L35.1,95.38Z"></path><path d="M38.79,95.88a.28.28,0,0,1-.15,0,18.06,18.06,0,0,0-2.24-.52,1.62,1.62,0,0,1-1.12-.65.51.51,0,0,1,0-.45.89.89,0,0,1,.5-.37,5.11,5.11,0,0,1-.39-.42.73.73,0,0,1,0-.69c.18-.43.72-.73,1.65-.89,1.27-.22,1.93.75,2.4,1.47a2.53,2.53,0,0,0,.62.73.34.34,0,1,1-.3.62,2.54,2.54,0,0,1-.88-1c-.54-.8-1-1.31-1.72-1.17S36,92.93,36,93a.08.08,0,0,0,0,.07c.05.06.42.44.73.74a.34.34,0,0,1,.08.36.33.33,0,0,1-.28.23,3,3,0,0,0-.45.1,1.73,1.73,0,0,0,.47.15,16.84,16.84,0,0,1,2.41.59.34.34,0,0,1-.14.65Z"></path><path d="M39,95.28l-.23.26A16.81,16.81,0,0,0,36.46,95a1.29,1.29,0,0,1-.87-.47.12.12,0,0,1,0-.14H35.1a8.86,8.86,0,1,0,3.92.92ZM35.1,111.37a8.16,8.16,0,1,1,8.16-8.17A8.18,8.18,0,0,1,35.1,111.37Z"></path><path d="M39.22,93.67a2.08,2.08,0,0,0,.65.69l-.24.27A9.7,9.7,0,1,1,35.1,93.5a7.94,7.94,0,0,1,.85,0,3.61,3.61,0,0,1-.27-.3.39.39,0,0,1,0-.41l-.59,0a10.41,10.41,0,1,0,4.12.86Z"></path><path d="M37.28,93.12a.21.21,0,0,1-.21.21.21.21,0,0,1-.21-.21.21.21,0,0,1,.21-.21A.22.22,0,0,1,37.28,93.12Z"></path><path d="M37.07,93.56a.44.44,0,1,1,0-.88.44.44,0,0,1,0,.88Z"></path><path d="M35.1,106.11A2.87,2.87,0,1,1,38,103.25,2.86,2.86,0,0,1,35.1,106.11Zm0-5.2a2.34,2.34,0,1,0,2.33,2.34A2.33,2.33,0,0,0,35.1,100.91Z"></path><path d="M28.4,143.11H25.69a.35.35,0,0,1-.35-.34v-5.71H6.89a.35.35,0,0,1-.34-.35v-3a.34.34,0,0,1,.34-.34H28.4a.34.34,0,0,1,.35.34v3a.09.09,0,0,1,0,0v6A.34.34,0,0,1,28.4,143.11ZM26,142.43h2v-8.34H7.24v2.28H25.69a.34.34,0,0,1,.34.34Z"></path><path d="M22.23,133.85a7.29,7.29,0,1,1,7.28-7.29A7.29,7.29,0,0,1,22.23,133.85Zm0-13.88a6.6,6.6,0,1,0,6.59,6.59A6.6,6.6,0,0,0,22.23,120Z"></path><line x1="9.62" y1="110.48" x2="21.76" y2="118.24"></line><polygon points="21.67 118.39 9.53 110.63 9.71 110.33 21.85 118.1 21.67 118.39"></polygon><line x1="9.53" y1="110.56" x2="20.23" y2="118.49"></line><rect x="14.71" y="107.86" width="0.34" height="13.32" transform="translate(-85.98 58.28) rotate(-53.45)"></rect><line x1="9.44" y1="110.63" x2="19.05" y2="118.87"></line><polygon points="18.94 119 9.33 110.76 9.55 110.5 19.16 118.74 18.94 119"></polygon><line x1="9.35" y1="110.71" x2="18.09" y2="119.35"></line><polygon points="17.97 119.47 9.23 110.83 9.47 110.58 18.21 119.22 17.97 119.47"></polygon><line x1="9.27" y1="110.78" x2="17.25" y2="119.88"></line><rect x="13.09" y="109.28" width="0.34" height="12.11" transform="translate(-72.78 37.4) rotate(-41.27)"></rect><line x1="9.18" y1="110.85" x2="16.53" y2="120.53"></line><polygon points="16.39 120.64 9.04 110.96 9.31 110.75 16.66 120.43 16.39 120.64"></polygon><line x1="9.09" y1="110.93" x2="15.86" y2="121.24"></line><polygon points="15.72 121.33 8.94 111.02 9.23 110.83 16.01 121.14 15.72 121.33"></polygon><line x1="9" y1="111" x2="15.25" y2="122.06"></line><polygon points="15.1 122.14 8.85 111.09 9.15 110.92 15.4 121.97 15.1 122.14"></polygon><line x1="8.91" y1="111.08" x2="14.68" y2="123.03"></line><polygon points="14.52 123.11 8.76 111.15 9.06 111 14.83 122.96 14.52 123.11"></polygon><line x1="8.82" y1="111.15" x2="14.2" y2="124.27"></line><polygon points="14.04 124.34 8.66 111.22 8.98 111.09 14.36 124.21 14.04 124.34"></polygon><line x1="8.73" y1="111.23" x2="13.91" y2="126.29"></line><polygon points="13.75 126.34 8.57 111.28 8.89 111.17 14.07 126.23 13.75 126.34"></polygon><path d="M10.31,112.37l-1.89-1.22-1.9,1.22.57-2.18-1.74-1.43,2.25-.13.82-2.1.81,2.1,2.26.13-1.75,1.43Zm-3.16-3,.72.59-.24.9.79-.5.78.5-.24-.9.73-.59-.94,0-.33-.87-.34.87Z"></path><path d="M20.4,132.64a.33.33,0,0,1-.32-.21A8.91,8.91,0,0,1,20,131.2c0-.25,0-.5-.05-.56s0-.27,0-.61a6.14,6.14,0,0,0,0-.78s0-.08,0-.15-.14-.52-.28-.57c-1.09-.39-1-.75-1-.87a1.77,1.77,0,0,0,0-.37c-.05-.64-.07-1.07.19-1.23l.31-.16.2-.1a.66.66,0,0,1-.38-.37,4.07,4.07,0,0,0-.53-.37,4.09,4.09,0,0,1-.42-.3,1,1,0,0,1-.13-.22c-.26-.55-.39-.65-.44-.66-.29,0-1.1-.23-1.28-.61a.4.4,0,0,1,0-.38,11.27,11.27,0,0,1,1.66-2,14.27,14.27,0,0,1,1.87-1,.26.26,0,0,1,.21,0,.26.26,0,0,1,.12.17s.08.67.11,1c0,.14.1.29.22.26a1.7,1.7,0,0,0,.35-.3c.23-.24.45-.46.7-.46h0a.53.53,0,0,0,.2-.07,1,1,0,0,1,.32-.09c.09,0,.37,0,.37.48,0,.2,0,.33,0,.44a2,2,0,0,0,0,.53.82.82,0,0,1-.21.63.65.65,0,0,1-.78.22l-.11-.08a.53.53,0,0,0-.25-.14h-.05a1.22,1.22,0,0,0-.62.56c-.13.34-.44.64-.68.64l-.1,0c-.22-.07-.24-.36-.24-.67,0,0-.07-.11-.12-.12a1.17,1.17,0,0,1-.2-.06l-.14,0a1,1,0,0,0-.26.64,2.93,2.93,0,0,0,.78,1.17A14.78,14.78,0,0,1,21,125.87a10.44,10.44,0,0,0,1,.4c.58.16,1.27.46,1.34,1a2.22,2.22,0,0,1-.61,1.59,5.42,5.42,0,0,0-.76.76,1.47,1.47,0,0,1-.15.17c-.12.12-.16.16-.26.7a15.41,15.41,0,0,1-.55,1.9.29.29,0,0,1-.1.12A1.37,1.37,0,0,1,20.4,132.64Zm0-.45v0ZM19,127.7a1.68,1.68,0,0,0,.74.4c.36.13.48.6.56.88a.53.53,0,0,0,0,.11,3.09,3.09,0,0,1,0,.95c0,.2,0,.47,0,.53s0,.26.06.59.06.77.09,1l.13,0a13.84,13.84,0,0,0,.5-1.74c.12-.62.19-.74.38-.94a.92.92,0,0,0,.13-.14,5.52,5.52,0,0,1,.84-.84,2,2,0,0,0,.43-1.16c0-.15-.35-.39-1-.59a5.11,5.11,0,0,1-1.22-.51A16.59,16.59,0,0,0,19.07,125,2.94,2.94,0,0,1,18,123.43a1.45,1.45,0,0,1,.41-1.06.39.39,0,0,1,.28-.11.94.94,0,0,1,.3.07l.14,0a.64.64,0,0,1,.5.57v.1a.54.54,0,0,0,.13-.21,1.65,1.65,0,0,1,.87-.82.59.59,0,0,1,.23-.05.84.84,0,0,1,.52.23l.07,0a.37.37,0,0,0,.3-.39,2.74,2.74,0,0,1,0-.62,3.53,3.53,0,0,0,0-.39h0a1,1,0,0,1-.44.11,1.6,1.6,0,0,0-.38.32,1.45,1.45,0,0,1-.54.42.68.68,0,0,1-.81-.66c0-.15,0-.41-.07-.62a11.37,11.37,0,0,0-1.51.87,10.27,10.27,0,0,0-1.51,1.81,1.89,1.89,0,0,0,.88.32c.35,0,.6.47.82.91l.05.12c.06,0,.21.14.34.22.44.29.65.45.71.64l.18.1c.15.08.39.19.34.44s-.28.32-.58.46l-.25.13a3.17,3.17,0,0,0,0,.81A2.52,2.52,0,0,1,19,127.7Z"></path><path d="M24,121.94c-.33,0-.57-.16-.59-.4a.48.48,0,0,0-.2-.28.93.93,0,0,1-.51-.47,2.6,2.6,0,0,1-.15-.69.14.14,0,0,1,0-.09l.13-.4a.21.21,0,0,1,.23-.15,5.85,5.85,0,0,1,1.72.38.21.21,0,0,1,.13.13.27.27,0,0,1,0,.2,3.16,3.16,0,0,0-.28.52.82.82,0,0,0,0,.18c-.05.67-.09,1-.39,1.07Zm-.14-.48.07,0a5,5,0,0,0,.07-.64,1,1,0,0,1,0-.23,1.6,1.6,0,0,1,.2-.44,6.28,6.28,0,0,0-1.16-.24l-.05.17a2.1,2.1,0,0,0,.1.5c.05.12.13.17.3.25A.9.9,0,0,1,23.84,121.46Z"></path><path d="M27.71,131l-.09,0a.22.22,0,0,1-.13-.25c.05-.3.1-.68.1-.78a2.07,2.07,0,0,1,0-.45,2.62,2.62,0,0,0,0-.29,1.11,1.11,0,0,0-.14-.34,1.31,1.31,0,0,1-.16-.42,1,1,0,0,0-.26-.51,1.73,1.73,0,0,1-.26-.55,1,1,0,0,0-.14-.33,1.32,1.32,0,0,1-.22-.47,1.51,1.51,0,0,0-.06-.15c-.26-.27.18-1,.19-1a1.82,1.82,0,0,1,.6-.36h0c.4-.11.56-.14.62-.15a1,1,0,0,0,.19-.17l-.08-.24a.72.72,0,0,1,0-.36h0a.42.42,0,0,1-.24.09,1.25,1.25,0,0,1-.65-.11l-.13,0a.28.28,0,0,1-.21-.07,2,2,0,0,0-.33-.18,1.13,1.13,0,0,0-.22,0h0A.91.91,0,0,0,26,124c0,.18-.05.4-.05.44,0,.32-.63.51-.83.51l-.1,0c-.51-.11-.62-.19-.66-.32a1.39,1.39,0,0,1,.18-.71l0-.1a.44.44,0,0,1,0-.39,2.77,2.77,0,0,1,.24-.27.27.27,0,0,1,.15,0,3,3,0,0,1,.39,0l.09,0a2.16,2.16,0,0,1,.24-.33h0a.41.41,0,0,0,.14-.26,1,1,0,0,0,0-.31.5.5,0,0,0,0-.12s0-.06-.08-.13a.62.62,0,0,1-.09-.12.88.88,0,0,1-.19-.45.47.47,0,0,1,.26-.45,3.14,3.14,0,0,0,.36-.3.24.24,0,0,1,.27,0,5.7,5.7,0,0,1,.73.55,18.47,18.47,0,0,1,2,2.67,7.78,7.78,0,0,1,.35,4.16,6.49,6.49,0,0,1-1.35,2.93A.25.25,0,0,1,27.71,131Zm-1-4.82a.84.84,0,0,1,.11.27,1.05,1.05,0,0,0,.15.32,1.42,1.42,0,0,1,.21.47,1.3,1.3,0,0,0,.18.41,1.37,1.37,0,0,1,.36.75s.08.17.12.26a1.6,1.6,0,0,1,.19.51c0,.09,0,.21,0,.33a1.38,1.38,0,0,0,0,.32.38.38,0,0,1,0,.08,6,6,0,0,0,.75-2,7.39,7.39,0,0,0-.3-3.86,18.8,18.8,0,0,0-1.86-2.54,5.22,5.22,0,0,0-.53-.42,1.37,1.37,0,0,1-.33.25h0v0a1,1,0,0,0,.11.2l.06.07a.72.72,0,0,1,.19.37s0,.07,0,.1a1.68,1.68,0,0,1,0,.43.88.88,0,0,1-.28.55,1.73,1.73,0,0,0-.24.32.24.24,0,0,1-.09.08.92.92,0,0,1-.43.09h-.21s0,0-.05,0,0,0,0,.05a.5.5,0,0,1,0,.45,1.55,1.55,0,0,0-.12.31l.29.08a.93.93,0,0,0,.38-.14c0-.14,0-.36.05-.44s0,0,0,0,.17-.43.39-.46H26a.82.82,0,0,1,.44,0,1.94,1.94,0,0,1,.43.22l.24.06a1,1,0,0,0,.45.09l0,0a.42.42,0,0,1,.26-.08,1.1,1.1,0,0,1,.33,0,.22.22,0,0,1,.16.27,1,1,0,0,0,0,.32,2.34,2.34,0,0,1,.12.39.31.31,0,0,1-.08.29s-.3.36-.52.36l-.53.14a2.79,2.79,0,0,0-.42.22A1.28,1.28,0,0,0,26.68,126.15Z"></path><path d="M59.34,142.56l-.11,0a.35.35,0,0,1-.23-.33v-3.73a.35.35,0,0,1,.08-.22l5.56-6.5a.36.36,0,0,1,.39-.1.37.37,0,0,1,.22.33l0,.48a3.33,3.33,0,0,0,.05,1.16.62.62,0,0,0,.29.39.33.33,0,0,1,.2.23.31.31,0,0,1-.06.29l-6.11,7.89A.35.35,0,0,1,59.34,142.56Zm.35-3.95v2.6L65,134.4a1.2,1.2,0,0,1-.34-.63,2.76,2.76,0,0,1-.08-.82Z"></path><path d="M52.09,129.88H52a.35.35,0,0,1-.25-.34L52,116.71a.34.34,0,0,1,.16-.28,4,4,0,0,1,2.24-.75,5.66,5.66,0,0,1,2.24.57,2.76,2.76,0,0,0,1.07.19,5.44,5.44,0,0,0,2.08-.49.35.35,0,0,1,.33,0,.38.38,0,0,1,.17.3c0,.09,0,9.46,0,12.67a.35.35,0,0,1-.14.28.35.35,0,0,1-.3,0,15.87,15.87,0,0,0-4.08-.64c-2.63,0-3.35,1.09-3.36,1.1A.36.36,0,0,1,52.09,129.88Zm.57-13-.21,11.84a5.74,5.74,0,0,1,3.29-.81,16,16,0,0,1,3.84.54c0-3,0-9.8,0-11.71a5.76,5.76,0,0,1-1.89.36,3.4,3.4,0,0,1-1.34-.25,4.84,4.84,0,0,0-2-.51A3.2,3.2,0,0,0,52.66,116.91Z"></path><path d="M52,129.84a.35.35,0,0,1-.28-.14c-.41-.58-1.43-.89-3-.89a21.28,21.28,0,0,0-4.56.62.37.37,0,0,1-.29-.06.38.38,0,0,1-.14-.27l-.14-11.2a.37.37,0,0,1,.13-.27.34.34,0,0,1,.29-.07,5.52,5.52,0,0,0,1.11.1,6.41,6.41,0,0,0,3.25-.86,5,5,0,0,1,2.5-.76,2.89,2.89,0,0,1,1.56.39.32.32,0,0,1,.16.29s-.17,7.41-.29,12.79a.33.33,0,0,1-.24.32Zm-3.24-1.72a5.52,5.52,0,0,1,2.91.62c.1-4.74.24-10.62.27-11.82a2.66,2.66,0,0,0-1-.19,4.24,4.24,0,0,0-2.15.66,7.08,7.08,0,0,1-3.6,1c-.34,0-.62,0-.84,0l.14,10.36A21.1,21.1,0,0,1,48.79,128.12Z"></path><path d="M52,129.84a.35.35,0,0,1-.28-.14c-.41-.58-1.43-.89-3-.89a21.28,21.28,0,0,0-4.56.62.37.37,0,0,1-.29-.06.38.38,0,0,1-.14-.27l-.14-11.2a.37.37,0,0,1,.13-.27.34.34,0,0,1,.29-.07,5.52,5.52,0,0,0,1.11.1,6.41,6.41,0,0,0,3.25-.86,5,5,0,0,1,2.5-.76,2.89,2.89,0,0,1,1.56.39.32.32,0,0,1,.16.29s-.17,7.41-.29,12.79a.33.33,0,0,1-.24.32Zm-3.24-1.72a5.52,5.52,0,0,1,2.91.62c.1-4.74.24-10.62.27-11.82a2.66,2.66,0,0,0-1-.19,4.24,4.24,0,0,0-2.15.66,7.08,7.08,0,0,1-3.6,1c-.34,0-.62,0-.84,0l.14,10.36A21.1,21.1,0,0,1,48.79,128.12Z"></path><path d="M58.7,137.29l-.11,0a.33.33,0,0,1-.23-.31l-.1-2.88a.33.33,0,0,1,.1-.25l4.9-5.26a.34.34,0,0,1,.59.24v.41a3.34,3.34,0,0,0,.06,1,.52.52,0,0,0,.24.3.33.33,0,0,1,.2.24.37.37,0,0,1-.07.3L59,137.17A.34.34,0,0,1,58.7,137.29ZM59,134.2l.07,1.86,4.49-5.18a1.11,1.11,0,0,1-.27-.52,2.17,2.17,0,0,1-.09-.67Z"></path><path d="M63.52,129.06h0l-1.88-.16a.34.34,0,1,1,.06-.68l1.88.15a.35.35,0,0,1,.31.37A.35.35,0,0,1,63.52,129.06Z"></path><path d="M58.63,137.33h-.09l-17.45-4.24a1.63,1.63,0,0,1-1.18-1.68,1.5,1.5,0,0,1,.37-1.14,1.13,1.13,0,0,1,.84-.33h0L58.7,133.6a.34.34,0,0,1,.27.34V137a.33.33,0,0,1-.13.26A.37.37,0,0,1,58.63,137.33Zm-17.58-6.71a.38.38,0,0,0-.28.12.91.91,0,0,0-.18.64c0,.87.59,1,.65,1l17,4.14v-2.33Z"></path><path d="M40.57,130.79a.33.33,0,0,1-.26-.11.36.36,0,0,1,0-.49l2-1.79a.35.35,0,0,1,.48,0,.34.34,0,0,1,0,.48l-2,1.8A.4.4,0,0,1,40.57,130.79Z"></path><path d="M44.29,133.82a.35.35,0,0,1-.34-.35v-2.4a.34.34,0,1,1,.68,0v2.4A.35.35,0,0,1,44.29,133.82Z"></path><path d="M46,134.24a.35.35,0,0,1-.34-.35v-2.34a.34.34,0,0,1,.34-.34.35.35,0,0,1,.35.34v2.34A.35.35,0,0,1,46,134.24Z"></path><path d="M53.4,136a.35.35,0,0,1-.35-.34V133.1a.35.35,0,0,1,.69,0v2.52A.34.34,0,0,1,53.4,136Z"></path><path d="M59.25,142.53l-.09,0-20-5.61a1.84,1.84,0,0,1-1.3-1.93c0-1.19.7-1.61,1.3-1.61h.12l20,4.84a.35.35,0,0,1,.27.34v3.63a.35.35,0,0,1-.14.28A.38.38,0,0,1,59.25,142.53ZM39.17,134c-.24,0-.6.14-.6.93,0,1.05.69,1.24.77,1.26l19.57,5.5v-2.91Z"></path><path d="M38.61,134.24a.35.35,0,0,1-.22-.61l1.79-1.56a.34.34,0,1,1,.45.52l-1.79,1.56A.35.35,0,0,1,38.61,134.24Z"></path><path d="M64.92,132.23h0l-1.58-.15a.36.36,0,0,1-.31-.38.35.35,0,0,1,.38-.31l1.58.16a.34.34,0,0,1,.31.37A.35.35,0,0,1,64.92,132.23Z"></path><path d="M41.31,137.31a.24.24,0,0,1-.23-.23v-2.72a.23.23,0,0,1,.23-.23.23.23,0,0,1,.23.23v2.72A.23.23,0,0,1,41.31,137.31Z"></path><path d="M52.94,140.57a.23.23,0,0,1-.23-.23v-3.17a.23.23,0,1,1,.45,0v3.17A.22.22,0,0,1,52.94,140.57Z"></path><path d="M52.1,116.52a3,3,0,0,1-3-2.22.2.2,0,0,1,.08-.24.21.21,0,0,1,.25,0,4.18,4.18,0,0,0,.53.21,4.6,4.6,0,0,1-.59-1.28.24.24,0,0,1,.08-.24.21.21,0,0,1,.25,0s.25.12.57.23a4.1,4.1,0,0,1-.42-1,.22.22,0,0,1,.08-.24.25.25,0,0,1,.25,0,3.82,3.82,0,0,0,.88.33,2.83,2.83,0,0,0,.54-1.5c.06-.41.11-.8.46-.8s.38.34.45.74a2.84,2.84,0,0,0,.56,1.48,6.28,6.28,0,0,0,.95-.26.21.21,0,0,1,.23,0,.23.23,0,0,1,.07.23,4.33,4.33,0,0,1-.42,1,4.11,4.11,0,0,0,.56-.24.23.23,0,0,1,.26,0,.22.22,0,0,1,.07.24,4.6,4.6,0,0,1-.59,1.29,4.88,4.88,0,0,0,.54-.22.21.21,0,0,1,.25,0,.22.22,0,0,1,.08.24A3,3,0,0,1,52.1,116.52Zm-2.35-1.86a2.68,2.68,0,0,0,4.71,0,3.72,3.72,0,0,1-.9.21.24.24,0,0,1-.24-.14.24.24,0,0,1,.09-.27,2.67,2.67,0,0,0,.79-1.14,3.54,3.54,0,0,1-.88.22.24.24,0,0,1-.24-.14.23.23,0,0,1,.08-.27,2.16,2.16,0,0,0,.59-.89,4,4,0,0,1-.72.15.22.22,0,0,1-.19-.06,3.18,3.18,0,0,1-.76-1.81h0a.07.07,0,0,0,0,0,3,3,0,0,1-.74,1.83.23.23,0,0,1-.19.07,2.91,2.91,0,0,1-.66-.17,2,2,0,0,0,.56.82.23.23,0,0,1,.08.27.23.23,0,0,1-.24.14,3.66,3.66,0,0,1-.88-.21,2.63,2.63,0,0,0,.79,1.13.23.23,0,0,1,.08.27.22.22,0,0,1-.23.15A4.14,4.14,0,0,1,49.75,114.66Z"></path><path d="M16.56,90.37a.35.35,0,0,1-.26-.12.36.36,0,0,1,0-.49L19,87.57a.33.33,0,0,1,.48,0,.35.35,0,0,1,0,.48l-2.62,2.2A.35.35,0,0,1,16.56,90.37Z"></path><path d="M16.47,92.41a.37.37,0,0,1-.27-.13.34.34,0,0,1,.05-.48l2.66-2.22a.35.35,0,0,1,.49,0,.34.34,0,0,1,0,.48l-2.66,2.23A.4.4,0,0,1,16.47,92.41Z"></path><path d="M17.93,96a3.42,3.42,0,0,1-3.42-3.33.36.36,0,0,1,.34-.36H21a.36.36,0,0,1,.34.36A3.42,3.42,0,0,1,17.93,96Zm-2.7-3a2.74,2.74,0,0,0,5.41,0Z"></path><path d="M22.54,88.16H13.33a.34.34,0,0,1-.34-.34V86.29a.34.34,0,0,1,.34-.34h9.21a.34.34,0,0,1,.34.34v1.53A.34.34,0,0,1,22.54,88.16Zm-8.87-.68h8.52v-.85H13.67Z"></path><path d="M19.34,93h-3a.36.36,0,0,1-.25-.11.35.35,0,0,1-.1-.26l.24-4.79a.34.34,0,0,1,.35-.32h2.49a.34.34,0,0,1,.35.32l.24,4.74v.07A.35.35,0,0,1,19.34,93Zm-2.62-.69H19l-.2-4.11H16.92Z"></path><path d="M19,86.63H16.67a.35.35,0,0,1-.25-.1.38.38,0,0,1-.09-.25l1-19H10l3.88,8.8a.19.19,0,0,1,0,.15,5,5,0,0,1-10,0,.33.33,0,0,1,0-.15L8.57,65.51a.35.35,0,0,1,.31-.21h8.49l.12-2.4a.34.34,0,0,1,.35-.33h0a.34.34,0,0,1,.34.33l.12,2.4h8.61a.35.35,0,0,1,.32.21l4.65,10.56a.34.34,0,0,1,0,.15,5,5,0,0,1-10,0,.33.33,0,0,1,0-.15l3.88-8.8H18.4l1,19v.07A.34.34,0,0,1,19,86.63ZM17,86h1.63l-.82-16.18Zm5.57-9.68a4.31,4.31,0,0,0,8.61,0L26.69,66H18a.32.32,0,0,1-.14,0,.32.32,0,0,1-.14,0H9.11L4.58,76.27a4.31,4.31,0,0,0,8.62,0L9.13,67.06a.36.36,0,0,1,0-.32.34.34,0,0,1,.29-.16h8.19a.36.36,0,0,1,.2.06.34.34,0,0,1,.2-.06h8.31a.34.34,0,0,1,.29.16.33.33,0,0,1,0,.32Z"></path><path d="M12.32,76.44H5.47A.34.34,0,0,1,5.15,76l3.42-7.88a.35.35,0,0,1,.64,0l3.39,7.83a.33.33,0,0,1,.06.19A.34.34,0,0,1,12.32,76.44ZM6,75.75h5.8l-2.9-6.67Z"></path><path d="M30.33,76.44H23.49a.34.34,0,0,1-.32-.48l3.42-7.88a.35.35,0,0,1,.32-.21.33.33,0,0,1,.31.21l3.4,7.83a.33.33,0,0,1,.06.19A.35.35,0,0,1,30.33,76.44ZM24,75.75H29.8l-2.89-6.67Z"></path><path d="M53.71,80.42h-.07a.31.31,0,0,1-.25-.22c-.32-.89-.9-1.89-1.22-1.89l-.2,0a12,12,0,0,1-2.26.23c-3.11,0-5-1.46-5.37-4.21-.79-5.44,1.42-7.24,1.71-7.45A3.22,3.22,0,0,1,48.28,66a3.11,3.11,0,0,1,3,2.31c.34,1.57-.52,3.51-1,3.7a.73.73,0,0,1-.3.06h0a2.59,2.59,0,0,1-1.53-1A3.19,3.19,0,0,0,48,72.17a3,3,0,0,0,.3,2.43c.3.48.8.68,1.73.68l.87,0c.3,0,.61,0,.92,0a2.92,2.92,0,0,1,2.44.93A3.23,3.23,0,0,1,54,80.31.34.34,0,0,1,53.71,80.42Zm-1.54-2.81c.72,0,1.3,1,1.63,1.76a2.37,2.37,0,0,0,0-2.8,2.23,2.23,0,0,0-1.91-.67l-.89,0c-.29,0-.6,0-.9,0a2.48,2.48,0,0,1-2.31-1,3.82,3.82,0,0,1-.31-3.24,2.47,2.47,0,0,1,1-1.41.34.34,0,0,1,.38.1,2.71,2.71,0,0,0,1.23,1,4.42,4.42,0,0,0,.6-2.94,2.41,2.41,0,0,0-2.37-1.77,2.59,2.59,0,0,0-1.78.75l0,0a3.42,3.42,0,0,0-1,1.4,9.79,9.79,0,0,0-.44,5.4c.35,2.41,1.93,3.62,4.69,3.62a12.18,12.18,0,0,0,2.14-.21l.25,0Z"></path><path d="M52.28,85.07a2.91,2.91,0,0,1-2.23-.78c-1.52-1.58-.3-3.83.56-4.79a.31.31,0,0,1,.27-.12.34.34,0,0,1,.26.14s.47.63,1.06,1.55a.32.32,0,0,1,0,.34.3.3,0,0,0,0,.13.93.93,0,0,0,.45.07,6.9,6.9,0,0,0,1.54-.23c1.62-.41,2.88-.15,3.5.74s.38,1.79-.61,2.81a.38.38,0,0,1-.35.09.35.35,0,0,1-.24-.28c0-.09-.16-.13-.43-.13a9.59,9.59,0,0,0-1.46.19A14.33,14.33,0,0,1,52.28,85.07ZM50.86,80.3c-.51.71-1.44,2.35-.32,3.52a2.29,2.29,0,0,0,1.74.56,13.25,13.25,0,0,0,2.17-.26,10.63,10.63,0,0,1,1.58-.2,1.36,1.36,0,0,1,.81.21c.65-.81.47-1.31.25-1.62a1.74,1.74,0,0,0-1.53-.64,5.18,5.18,0,0,0-1.23.17,7.48,7.48,0,0,1-1.71.26c-.54,0-.88-.13-1-.4a.75.75,0,0,1,0-.61C51.26,80.88,51,80.53,50.86,80.3Z"></path><path d="M52.63,82.3h-.11a.35.35,0,0,1-.27-.14l-2.68-3.75a.36.36,0,0,1,0-.35.34.34,0,0,1,.31-.19,12.8,12.8,0,0,0,2-.21l.25,0h.08a.35.35,0,0,1,.28.15l2.4,3.68a.34.34,0,0,1-.22.52l-.31.07A7.47,7.47,0,0,1,52.63,82.3ZM50.5,78.53l2.2,3.08a6.76,6.76,0,0,0,1.31-.2l-2-3.08h0A12.47,12.47,0,0,1,50.5,78.53Z"></path><path d="M59.45,96h-.06c-.44-.06-.58-.52-.7-.92a2,2,0,0,0-.33-.74L58,94a2.08,2.08,0,0,1-.87-1.51c0-.1,0-.19,0-.29a2.13,2.13,0,0,0-.73-1.88,2.35,2.35,0,0,0-1-.47,3.08,3.08,0,0,1-2-1.49c-1-1.75.91-3.56,1-3.63a.32.32,0,0,1,.26-.09.31.31,0,0,1,.24.12,7.45,7.45,0,0,1,1.44,2.2h.17a6.11,6.11,0,0,1,.8-.07,2.28,2.28,0,0,1,1,.21,2,2,0,0,1,1,2.43,1.55,1.55,0,0,0,.51,1.73,1.5,1.5,0,0,1,.59,1.06c0,.8-.13,3-.63,3.53A.47.47,0,0,1,59.45,96ZM54.6,85.45C54.18,85.94,53.43,87,54,88a2.39,2.39,0,0,0,1.63,1.18,3.08,3.08,0,0,1,1.24.62,2.82,2.82,0,0,1,1,2.36c0,.09,0,.18,0,.28a1.49,1.49,0,0,0,.65,1,4.84,4.84,0,0,1,.4.39,2.42,2.42,0,0,1,.46,1l.09.25a10.62,10.62,0,0,0,.32-2.8c0-.22-.12-.34-.37-.58a2.19,2.19,0,0,1-.71-2.35c.16-.9,0-1.38-.65-1.69a1.49,1.49,0,0,0-.72-.14,5.22,5.22,0,0,0-.71.06,4.2,4.2,0,0,1-.44,0,.54.54,0,0,1-.46-.2.44.44,0,0,1,0-.4h0A9,9,0,0,0,54.6,85.45Z"></path><path d="M58.36,87.8a.41.41,0,0,1-.18,0,.83.83,0,0,0-.16-.09,1.49,1.49,0,0,0-.72-.14,5.22,5.22,0,0,0-.71.06l-.23,0a.34.34,0,0,1-.32-.14l-.69-1c-.22-.32-.46-.67-.64-.9l-.65-.9a.35.35,0,0,1,0-.33.37.37,0,0,1,.26-.21l.16,0a7.46,7.46,0,0,1,1.9-.18.36.36,0,0,1,.24.15l2,3.14a.31.31,0,0,1,.09.22.34.34,0,0,1-.34.35Zm-3.42-3.06.32.45c.18.23.44.58.66.91l.56.8h0c.23,0,.51-.06.8-.06h.25L56.1,84.61A6.19,6.19,0,0,0,54.94,84.74Z"></path><path d="M64.69,98.44a.33.33,0,0,1-.19-.06l-1.21-.83a.34.34,0,0,1-.09-.08l-3.38-4.73a.33.33,0,0,1-.07-.21v-.25c0-.22-.12-.34-.37-.58a2.19,2.19,0,0,1-.71-2.35,2.76,2.76,0,0,0,0-.79.34.34,0,0,1,.63-.23l5.31,8.15a.37.37,0,0,1,0,.11L65,98a.34.34,0,0,1-.33.42Zm-1-1.42.43.3L64,96.8l-4.71-7.23a1.5,1.5,0,0,0,.52,1.63,1.5,1.5,0,0,1,.59,1.06v.17Z"></path><path d="M61.91,117.2a.38.38,0,0,0-.31,0,17.72,17.72,0,0,1-1.74.44v.71c.44-.1,1-.22,1.5-.36,0,2.38-.06,9.84-.07,11.68a32.13,32.13,0,0,0-5.29-.51,10.06,10.06,0,0,0-3.66.54.35.35,0,0,1-.21.18H52a.35.35,0,0,1-.28-.14l0,0a12.57,12.57,0,0,0-3.86-.58A14,14,0,0,0,43,130c0-2.88-.17-9-.21-10.62.22,0,.53.1.89.15v-.7c-.7-.1-1.16-.2-1.17-.2a.36.36,0,0,0-.42.35c0,.08.24,8.54.24,11.52a.32.32,0,0,0,.15.28.31.31,0,0,0,.19.06l.13,0a13.55,13.55,0,0,1,5.07-1,11.13,11.13,0,0,1,4,.69.35.35,0,0,0,.3,0A8.48,8.48,0,0,1,56,129.8a33.45,33.45,0,0,1,5.56.57.34.34,0,0,0,.29-.07A.32.32,0,0,0,62,130c0-.11.08-10.71.08-12.56A.34.34,0,0,0,61.91,117.2Z"></path><path d="M35.1,106.28a6.21,6.21,0,0,1-5.22-2.83l-.13-.19.13-.19a6.23,6.23,0,0,1,10.44,0l.13.19-.13.19A6.21,6.21,0,0,1,35.1,106.28Zm-4.52-3a5.55,5.55,0,0,0,9,0,5.55,5.55,0,0,0-9,0Z"></path><path d="M36.32,103.22A1.22,1.22,0,1,1,35.1,102,1.22,1.22,0,0,1,36.32,103.22Z"></path><path d="M7.82,133.79l-.51-.25,2.18-5.9,1.6.77Zm2-5.36-.93,2.51,1.39-2.29Z"></path><path d="M13.78,133.79l-3.26-5.38,1.6-.77,2.18,5.9Zm-2.44-5.14,1.39,2.29-.93-2.51Z"></path><path d="M10.81,128.81a1.66,1.66,0,1,1,1.66-1.65A1.65,1.65,0,0,1,10.81,128.81Zm0-2.62a1,1,0,1,0,1,1A1,1,0,0,0,10.81,126.19Z"></path></svg> 