<?xml version="1.0" encoding="UTF-8" standalone="no"?>
<!-- Created with Inkscape (http://www.inkscape.org/) -->

<svg
   width="108.74959mm"
   height="81.317528mm"
   viewBox="0 0 108.74959 81.317528"
   version="1.1"
   id="svg1"
   inkscape:version="1.4 (86a8ad7, 2024-10-11)"
   sodipodi:docname="kolmogorov-smirnov.svg"
   xmlns:inkscape="http://www.inkscape.org/namespaces/inkscape"
   xmlns:sodipodi="http://sodipodi.sourceforge.net/DTD/sodipodi-0.dtd"
   xmlns="http://www.w3.org/2000/svg"
   xmlns:svg="http://www.w3.org/2000/svg"
   xmlns:ns2="http://www.iki.fi/pav/software/textext/">
  <sodipodi:namedview
     id="namedview1"
     pagecolor="#ffffff"
     bordercolor="#111111"
     borderopacity="1"
     inkscape:showpageshadow="0"
     inkscape:pageopacity="0"
     inkscape:pagecheckerboard="1"
     inkscape:deskcolor="#d1d1d1"
     inkscape:document-units="mm"
     inkscape:zoom="1.9477379"
     inkscape:cx="203.56948"
     inkscape:cy="154.28154"
     inkscape:window-width="1920"
     inkscape:window-height="991"
     inkscape:window-x="-9"
     inkscape:window-y="-9"
     inkscape:window-maximized="1"
     inkscape:current-layer="layer1" />
  <defs
     id="defs1">
    <marker
       style="overflow:visible"
       id="marker8"
       refX="0"
       refY="0"
       orient="auto-start-reverse"
       inkscape:stockid="Wide arrow"
       markerWidth="1"
       markerHeight="1"
       viewBox="0 0 1 1"
       inkscape:isstock="true"
       inkscape:collect="always"
       preserveAspectRatio="xMidYMid">
      <path
         style="fill:none;stroke:context-stroke;stroke-width:1;stroke-linecap:butt"
         d="M 3,-3 0,0 3,3"
         transform="rotate(180,0.125,0)"
         sodipodi:nodetypes="ccc"
         id="path8" />
    </marker>
    <marker
       style="overflow:visible"
       id="ArrowWide"
       refX="0"
       refY="0"
       orient="auto-start-reverse"
       inkscape:stockid="Wide arrow"
       markerWidth="1"
       markerHeight="1"
       viewBox="0 0 1 1"
       inkscape:isstock="true"
       inkscape:collect="always"
       preserveAspectRatio="xMidYMid">
      <path
         style="fill:none;stroke:context-stroke;stroke-width:1;stroke-linecap:butt"
         d="M 3,-3 0,0 3,3"
         transform="rotate(180,0.125,0)"
         sodipodi:nodetypes="ccc"
         id="path7" />
    </marker>
  </defs>
  <g
     inkscape:label="Capa 1"
     inkscape:groupmode="layer"
     id="layer1"
     transform="translate(-48.291775,-79.058983)">
    <path
       style="fill:none;stroke:#000000;stroke-width:0.265;stroke-linecap:butt;stroke-linejoin:miter;stroke-miterlimit:3.7;stroke-dasharray:none;stroke-opacity:1;marker-start:url(#ArrowWide);marker-end:url(#marker8)"
       d="M 49.310406,84.085789 V 158.79853 H 151.87062"
       id="path1" />
    <path
       style="fill:none;stroke:#000000;stroke-width:0.264583px;stroke-linecap:butt;stroke-linejoin:miter;stroke-opacity:1"
       d="m 49.174566,158.79853 c 0,0 50.125455,-5.02613 52.706434,-45.09933 2.58099,-40.073195 50.53298,-30.835982 50.53298,-30.835982"
       id="path3" />
    <path
       style="fill:none;stroke:#000000;stroke-width:0.264583px;stroke-linecap:butt;stroke-linejoin:miter;stroke-opacity:1"
       d="m 49.310406,158.66269 c 0,0 57.596734,6.11285 59.634354,-38.57894 2.03761,-44.691807 43.33338,-37.220532 43.33338,-37.220532"
       id="path4" />
    <path
       style="fill:none;stroke:#ff0000;stroke-width:0.263183px;stroke-linecap:butt;stroke-linejoin:miter;stroke-opacity:1"
       d="M 104.60713,137.33559 V 101.31434"
       id="path5" />
    <circle
       style="fill:#ff0000;fill-opacity:1;stroke:#ff0000;stroke-width:0.264999;stroke-dasharray:none;stroke-dashoffset:0.200483;stroke-opacity:1"
       id="path6"
       cx="104.66576"
       cy="137.18555"
       r="0.40752402" />
    <circle
       style="fill:#ff0000;fill-opacity:1;stroke:#ff0000;stroke-width:0.264999;stroke-dasharray:none;stroke-dashoffset:0.200483;stroke-opacity:1"
       id="path6-8"
       cx="104.52128"
       cy="101.61095"
       r="0.40752402" />
    <g
       transform="matrix(0.392777,0,0,0.392777,52.12894,111.62863)"
       ns2:version="1.11.1"
       ns2:texconverter="typst"
       ns2:pdfconverter="inkscape"
       ns2:text="$F_1$"
       ns2:preamble="C:\Users\max02\AppData\Roaming\inkscape\extensions\textext\default_preamble_typst.typ"
       ns2:scale="1.1133818697437055"
       ns2:alignment="middle center"
       ns2:jacobian_sqrt="0.392777"
       id="g16">
      <g
         id="g15">
        <g
           transform="translate(70.8661,78.3791)"
           id="g11">
          <g
             class="typst-text"
             transform="scale(1,-1)"
             id="g10">
            <g
               id="g9">
              <path
                 d="m 2.189,7.216 c 0,-0.11 0.121,-0.165 0.352,-0.165 0.44,0 0.66,-0.044 0.66,-0.143 0,-0.033 -0.022,-0.11 -0.055,-0.2530003 L 1.716,0.902 C 1.65,0.65999997 1.54,0.517 1.386,0.462 1.309,0.44 1.111,0.429 0.77,0.429 0.528,0.429 0.41799998,0.407 0.41799998,0.176 0.41799998,0.055 0.484,0 0.627,0 L 2.057,0.033 3.685,0 C 3.861,0 3.949,0.088 3.949,0.253 3.949,0.44 3.828,0.429 3.542,0.429 3.058,0.429 2.783,0.451 2.717,0.506 2.684,0.517 2.673,0.561 2.673,0.616 L 3.377,3.531 H 4.4 c 0.506,0 0.858,-0.022 0.858,-0.44 C 5.258,2.948 5.236,2.772 5.181,2.563 5.17,2.53 5.159,2.486 5.148,2.442 5.148,2.321 5.203,2.266 5.324,2.266 5.379,2.277 5.456,2.354 5.533,2.519 L 6.127,4.884 C 6.149,4.972 6.16,5.038 6.16,5.071 6.127,5.17 6.061,5.225 5.984,5.225 5.896,5.225 5.83,5.137 5.786,4.972 5.676,4.554 5.522,4.29 5.346,4.158 5.17,4.026 4.862,3.96 4.422,3.96 H 3.487 l 0.682,2.706 c 0.088,0.374 0.088,0.385 0.55,0.385 h 1.43 C 7.216,7.051 7.7,6.886 7.7,5.907 7.7,5.687 7.689,5.489 7.667,5.324 7.656,5.203 7.645,5.137 7.645,5.126 7.645,5.005 7.7,4.95 7.81,4.95 c 0.11,0 0.176,0.099 0.198,0.308 l 0.22,1.881 C 8.261,7.447 8.184,7.48 7.887,7.48 H 2.563 C 2.31,7.48 2.189,7.469 2.189,7.216 Z"
                 id="path9" />
            </g>
          </g>
        </g>
        <g
           transform="translate(76.7291,81.0961)"
           id="g14">
          <g
             class="typst-text"
             transform="scale(1,-1)"
             id="g13">
            <g
               id="g12">
              <path
                 d="M 2.3331,5.1128 C 2.002,4.7894 1.5092,4.6277 0.8393,4.6277 V 4.2889 c 0.4543,0 0.8161999,0.0693 1.0934,0.2002 V 0.6545 C 1.9327,0.55439997 1.925,0.4928 1.9018999,0.462 1.8634,0.3773 1.6324,0.3311 1.2089,0.3311 H 0.8932 V 0 L 2.2638,0.0308 3.6421,0 V 0.3311 H 3.3264 C 2.9029,0.3311 2.6719,0.3773 2.6257,0.462 2.6103,0.4928 2.6026,0.5544 2.6026,0.6545 v 4.2119 c 0,0.2079 -0.0308,0.2464 -0.2695,0.2464 z"
                 id="path11" />
            </g>
          </g>
        </g>
      </g>
      <defs
         id="id-40f21482-7d64-4336-a2eb-2539a7ebd5e0">
        <symbol
           id="id-d6830886-3e96-41b8-9231-3220fa0966b8"
           overflow="visible">
          <path
             d="m 2.189,7.216 c 0,-0.11 0.121,-0.165 0.352,-0.165 0.44,0 0.66,-0.044 0.66,-0.143 0,-0.033 -0.022,-0.11 -0.055,-0.2530003 L 1.716,0.902 C 1.65,0.65999997 1.54,0.517 1.386,0.462 1.309,0.44 1.111,0.429 0.77,0.429 0.528,0.429 0.41799998,0.407 0.41799998,0.176 0.41799998,0.055 0.484,0 0.627,0 L 2.057,0.033 3.685,0 C 3.861,0 3.949,0.088 3.949,0.253 3.949,0.44 3.828,0.429 3.542,0.429 3.058,0.429 2.783,0.451 2.717,0.506 2.684,0.517 2.673,0.561 2.673,0.616 L 3.377,3.531 H 4.4 c 0.506,0 0.858,-0.022 0.858,-0.44 C 5.258,2.948 5.236,2.772 5.181,2.563 5.17,2.53 5.159,2.486 5.148,2.442 5.148,2.321 5.203,2.266 5.324,2.266 5.379,2.277 5.456,2.354 5.533,2.519 L 6.127,4.884 C 6.149,4.972 6.16,5.038 6.16,5.071 6.127,5.17 6.061,5.225 5.984,5.225 5.896,5.225 5.83,5.137 5.786,4.972 5.676,4.554 5.522,4.29 5.346,4.158 5.17,4.026 4.862,3.96 4.422,3.96 H 3.487 l 0.682,2.706 c 0.088,0.374 0.088,0.385 0.55,0.385 h 1.43 C 7.216,7.051 7.7,6.886 7.7,5.907 7.7,5.687 7.689,5.489 7.667,5.324 7.656,5.203 7.645,5.137 7.645,5.126 7.645,5.005 7.7,4.95 7.81,4.95 c 0.11,0 0.176,0.099 0.198,0.308 l 0.22,1.881 C 8.261,7.447 8.184,7.48 7.887,7.48 H 2.563 C 2.31,7.48 2.189,7.469 2.189,7.216 Z"
             id="path15" />
        </symbol>
        <symbol
           id="id-146c1830-be18-4bc1-8b4c-88b46d8fe46d"
           overflow="visible">
          <path
             d="M 2.3331,5.1128 C 2.002,4.7894 1.5092,4.6277 0.8393,4.6277 V 4.2889 c 0.4543,0 0.8161999,0.0693 1.0934,0.2002 V 0.6545 C 1.9327,0.55439997 1.925,0.4928 1.9018999,0.462 1.8634,0.3773 1.6324,0.3311 1.2089,0.3311 H 0.8932 V 0 L 2.2638,0.0308 3.6421,0 V 0.3311 H 3.3264 C 2.9029,0.3311 2.6719,0.3773 2.6257,0.462 2.6103,0.4928 2.6026,0.5544 2.6026,0.6545 v 4.2119 c 0,0.2079 -0.0308,0.2464 -0.2695,0.2464 z"
             id="path16" />
        </symbol>
      </defs>
    </g>
    <g
       transform="matrix(0.392777,0,0,0.392777,93.510649,65.306735)"
       ns2:version="1.11.1"
       ns2:texconverter="typst"
       ns2:pdfconverter="inkscape"
       ns2:text="$F_2$"
       ns2:preamble="C:\Users\max02\AppData\Roaming\inkscape\extensions\textext\default_preamble_typst.typ"
       ns2:scale="1.1133818697437055"
       ns2:alignment="middle center"
       ns2:jacobian_sqrt="0.392777"
       id="g24">
      <g
         id="g23">
        <g
           transform="translate(70.8661,78.3791)"
           id="g19">
          <g
             class="typst-text"
             transform="scale(1,-1)"
             id="g18">
            <g
               id="g17">
              <path
                 d="m 2.189,7.216 c 0,-0.11 0.121,-0.165 0.352,-0.165 0.44,0 0.66,-0.044 0.66,-0.143 0,-0.033 -0.022,-0.11 -0.055,-0.2530003 L 1.716,0.902 C 1.65,0.65999997 1.54,0.517 1.386,0.462 1.309,0.44 1.111,0.429 0.77,0.429 0.528,0.429 0.41799998,0.407 0.41799998,0.176 0.41799998,0.055 0.484,0 0.627,0 L 2.057,0.033 3.685,0 C 3.861,0 3.949,0.088 3.949,0.253 3.949,0.44 3.828,0.429 3.542,0.429 3.058,0.429 2.783,0.451 2.717,0.506 2.684,0.517 2.673,0.561 2.673,0.616 L 3.377,3.531 H 4.4 c 0.506,0 0.858,-0.022 0.858,-0.44 C 5.258,2.948 5.236,2.772 5.181,2.563 5.17,2.53 5.159,2.486 5.148,2.442 5.148,2.321 5.203,2.266 5.324,2.266 5.379,2.277 5.456,2.354 5.533,2.519 L 6.127,4.884 C 6.149,4.972 6.16,5.038 6.16,5.071 6.127,5.17 6.061,5.225 5.984,5.225 5.896,5.225 5.83,5.137 5.786,4.972 5.676,4.554 5.522,4.29 5.346,4.158 5.17,4.026 4.862,3.96 4.422,3.96 H 3.487 l 0.682,2.706 c 0.088,0.374 0.088,0.385 0.55,0.385 h 1.43 C 7.216,7.051 7.7,6.886 7.7,5.907 7.7,5.687 7.689,5.489 7.667,5.324 7.656,5.203 7.645,5.137 7.645,5.126 7.645,5.005 7.7,4.95 7.81,4.95 c 0.11,0 0.176,0.099 0.198,0.308 l 0.22,1.881 C 8.261,7.447 8.184,7.48 7.887,7.48 H 2.563 C 2.31,7.48 2.189,7.469 2.189,7.216 Z"
                 id="path17" />
            </g>
          </g>
        </g>
        <g
           transform="translate(76.7291,81.0961)"
           id="g22">
          <g
             class="typst-text"
             transform="scale(1,-1)"
             id="g21">
            <g
               id="g20">
              <path
                 d="m 0.9163,3.2648 c 0.2463999,0 0.4312,0.1848 0.4312,0.4312 0,0.2772 -0.1463,0.4235 -0.4312,0.4312 0.1694,0.3619 0.5544,0.6545 1.0549,0.6545 0.6776,0 1.1242,-0.5082 1.1242,-1.1858 C 3.0954,3.2263 2.9645,2.8720999 2.695,2.5256 2.5641,2.3485 2.464,2.2253 2.3947,2.156 L 0.5698,0.3465 C 0.4697,0.2541 0.4851,0.231 0.4851,0 H 3.6575 L 3.8962,1.4476 H 3.5728 C 3.5189,1.0395 3.4573,0.80079997 3.388,0.7469 3.3495,0.7238 3.1108,0.7084 2.6565,0.7084 H 1.3475 C 1.8634,1.1626999 2.3408,1.5708 2.7951,1.9327 3.1416,2.2022 3.388,2.4409 3.542,2.6488 3.773,2.9491 3.8885,3.2648 3.8885,3.5959 3.8885,4.0733 3.7037,4.4506 3.3264,4.7278 2.9953,4.9818997 2.5795,5.1128 2.0867,5.1128 1.6632,5.1128 1.3013,4.9896 0.9856,4.7432 0.6545,4.4737 0.4851,4.1349 0.4851,3.7191 c 0,-0.2618 0.1925,-0.4543 0.4312,-0.4543 z"
                 id="path19" />
            </g>
          </g>
        </g>
      </g>
      <defs
         id="id-e01cc5f8-8f02-4302-83f5-95214fe1024b">
        <symbol
           id="id-2790189c-9e3e-46af-ab39-c6ac648d2e68"
           overflow="visible">
          <path
             d="m 2.189,7.216 c 0,-0.11 0.121,-0.165 0.352,-0.165 0.44,0 0.66,-0.044 0.66,-0.143 0,-0.033 -0.022,-0.11 -0.055,-0.2530003 L 1.716,0.902 C 1.65,0.65999997 1.54,0.517 1.386,0.462 1.309,0.44 1.111,0.429 0.77,0.429 0.528,0.429 0.41799998,0.407 0.41799998,0.176 0.41799998,0.055 0.484,0 0.627,0 L 2.057,0.033 3.685,0 C 3.861,0 3.949,0.088 3.949,0.253 3.949,0.44 3.828,0.429 3.542,0.429 3.058,0.429 2.783,0.451 2.717,0.506 2.684,0.517 2.673,0.561 2.673,0.616 L 3.377,3.531 H 4.4 c 0.506,0 0.858,-0.022 0.858,-0.44 C 5.258,2.948 5.236,2.772 5.181,2.563 5.17,2.53 5.159,2.486 5.148,2.442 5.148,2.321 5.203,2.266 5.324,2.266 5.379,2.277 5.456,2.354 5.533,2.519 L 6.127,4.884 C 6.149,4.972 6.16,5.038 6.16,5.071 6.127,5.17 6.061,5.225 5.984,5.225 5.896,5.225 5.83,5.137 5.786,4.972 5.676,4.554 5.522,4.29 5.346,4.158 5.17,4.026 4.862,3.96 4.422,3.96 H 3.487 l 0.682,2.706 c 0.088,0.374 0.088,0.385 0.55,0.385 h 1.43 C 7.216,7.051 7.7,6.886 7.7,5.907 7.7,5.687 7.689,5.489 7.667,5.324 7.656,5.203 7.645,5.137 7.645,5.126 7.645,5.005 7.7,4.95 7.81,4.95 c 0.11,0 0.176,0.099 0.198,0.308 l 0.22,1.881 C 8.261,7.447 8.184,7.48 7.887,7.48 H 2.563 C 2.31,7.48 2.189,7.469 2.189,7.216 Z"
             id="path23" />
        </symbol>
        <symbol
           id="id-11779bd5-b8cc-48e9-b62f-8c773763c999"
           overflow="visible">
          <path
             d="m 0.9163,3.2648 c 0.2463999,0 0.4312,0.1848 0.4312,0.4312 0,0.2772 -0.1463,0.4235 -0.4312,0.4312 0.1694,0.3619 0.5544,0.6545 1.0549,0.6545 0.6776,0 1.1242,-0.5082 1.1242,-1.1858 C 3.0954,3.2263 2.9645,2.8720999 2.695,2.5256 2.5641,2.3485 2.464,2.2253 2.3947,2.156 L 0.5698,0.3465 C 0.4697,0.2541 0.4851,0.231 0.4851,0 H 3.6575 L 3.8962,1.4476 H 3.5728 C 3.5189,1.0395 3.4573,0.80079997 3.388,0.7469 3.3495,0.7238 3.1108,0.7084 2.6565,0.7084 H 1.3475 C 1.8634,1.1626999 2.3408,1.5708 2.7951,1.9327 3.1416,2.2022 3.388,2.4409 3.542,2.6488 3.773,2.9491 3.8885,3.2648 3.8885,3.5959 3.8885,4.0733 3.7037,4.4506 3.3264,4.7278 2.9953,4.9818997 2.5795,5.1128 2.0867,5.1128 1.6632,5.1128 1.3013,4.9896 0.9856,4.7432 0.6545,4.4737 0.4851,4.1349 0.4851,3.7191 c 0,-0.2618 0.1925,-0.4543 0.4312,-0.4543 z"
             id="path24" />
        </symbol>
      </defs>
    </g>
    <g
       transform="matrix(0.392777,0,0,0.392777,61.969186,89.8804)"
       ns2:version="1.11.1"
       ns2:texconverter="typst"
       ns2:pdfconverter="inkscape"
       ns2:text="$D_(n,m)$"
       ns2:preamble="C:\Users\max02\AppData\Roaming\inkscape\extensions\textext\default_preamble_typst.typ"
       ns2:scale="1.1133818697437055"
       ns2:alignment="middle center"
       ns2:jacobian_sqrt="0.392777"
       id="g40"
       style="fill:#ff0000;fill-opacity:1">
      <g
         id="g37"
         style="fill:#ff0000;fill-opacity:1">
        <g
           transform="translate(70.8661,78.3791)"
           id="g27"
           style="fill:#ff0000;fill-opacity:1">
          <g
             class="typst-text"
             transform="scale(1,-1)"
             id="g26"
             style="fill:#ff0000;fill-opacity:1">
            <g
               id="g25"
               style="fill:#ff0000;fill-opacity:1">
              <path
                 d="M 6.237,7.513 H 2.585 C 2.332,7.513 2.211,7.502 2.211,7.2599998 2.211,7.139 2.332,7.084 2.574,7.084 c 0.22,0 0.66,0.033 0.66,-0.143 C 3.234,6.919 3.223,6.853 3.19,6.743 L 1.738,0.902 C 1.683,0.65999997 1.573,0.517 1.408,0.462 1.331,0.44 1.133,0.429 0.792,0.429 0.55,0.429 0.44,0.407 0.44,0.176 0.44,0.055 0.561,0 0.792,0 h 3.597 c 0.748,0 1.4629998,0.22 2.156,0.671 1.177,0.759 2.299,2.244 2.299,4.048 0,1.628 -1.001,2.794 -2.607,2.794 z M 7.81,5.126 C 7.81,3.883 7.249,2.376 6.677,1.6389999 6.05,0.83599997 5.225,0.429 4.191,0.429 H 2.97 c -0.121,0 -0.198,0 -0.242,0.011 -0.066,0 -0.099,0.022 -0.099,0.055 0,0.022 0.022,0.099 0.055,0.242 L 4.169,6.71 c 0.099,0.363 0.088,0.374 0.55,0.374 H 5.8849998 C 7.117,7.084 7.81,6.358 7.81,5.126 Z"
                 id="path25"
                 style="fill:#ff0000;fill-opacity:1" />
            </g>
          </g>
        </g>
        <g
           transform="translate(79.0941,81.0961)"
           id="g30"
           style="fill:#ff0000;fill-opacity:1">
          <g
             class="typst-text"
             transform="scale(1,-1)"
             id="g29"
             style="fill:#ff0000;fill-opacity:1">
            <g
               id="g28"
               style="fill:#ff0000;fill-opacity:1">
              <path
                 d="M 1.2628,3.3957 C 1.0087,3.3957 0.80079997,3.2570999 0.6391,2.9722 0.5313,2.7797 0.4466,2.5795 0.3927,2.3562 0.3696,2.2714999 0.3619,2.2253 0.3619,2.2099 c 0,-0.0847 0.0539,-0.1309 0.1617,-0.1309 0.1463,0 0.154,0.0847 0.1925,0.2463999 C 0.847,2.8567 1.0241,3.1262 1.2474,3.1262 c 0.1463,0 0.2155999,-0.1155 0.2155999,-0.3465 0,-0.0847 -0.0385,-0.2849 -0.1231999,-0.616 L 0.9317,0.5159 C 0.8778,0.308 0.8547,0.20019999 0.8547,0.1925 c 0,-0.1771 0.10010003,-0.2695 0.2926,-0.2695 0.1463,0 0.2541,0.0616 0.3234,0.1848 C 1.4938,0.154 1.54,0.3157 1.6093,0.5852 L 1.771,1.2628 C 1.8634,1.6247 1.9173,1.8249 1.9327,1.8711 1.9943,2.0713 2.0867,2.2638 2.2175999,2.4409 2.541,2.8952 2.9106,3.1262 3.3341,3.1262 3.6113,3.1262 3.7498999,2.9568 3.7498999,2.6257 3.7498999,2.3253999 3.6036,1.7941 3.3033,1.0241 3.2263,0.8239 3.1878,0.6853 3.1878,0.6006 c 0,-0.4158 0.3388,-0.6776 0.7546,-0.6776 0.3619,0 0.6545,0.1848 0.8624,0.5544 C 4.9818997,0.7931 5.0666,1.001 5.0666,1.1087999 5.0666,1.1935 5.0127,1.2397 4.9126,1.2397 4.8587,1.232 4.8048,1.1935 4.7509,1.1165 4.7432,1.1087999 4.7432,1.0934 4.7432,1.0857 4.5661,0.4928 4.3043,0.1925 3.9654999,0.1925 c -0.1078,0 -0.1617,0.077 -0.1617,0.2387 0,0.1078 0.0616,0.308 0.1771001,0.6006 0.2695,0.6853 0.4004,1.1781 0.4004,1.4707 0,0.3542 -0.1232,0.6006 -0.3619,0.7315 C 3.8269,3.3418 3.6036,3.3957 3.3648999,3.3957 2.8644,3.3957 2.4409,3.1801 2.1021,2.7489 2.0328,3.1262 1.7017,3.3957 1.2628,3.3957 Z"
                 id="path27"
                 style="fill:#ff0000;fill-opacity:1" />
            </g>
          </g>
        </g>
        <g
           transform="translate(84.5303,81.0961)"
           id="g33"
           style="fill:#ff0000;fill-opacity:1">
          <g
             class="typst-text"
             transform="scale(1,-1)"
             id="g32"
             style="fill:#ff0000;fill-opacity:1">
            <g
               id="g31"
               style="fill:#ff0000;fill-opacity:1">
              <path
                 d="m 1.3013,0.8855 c -0.2464,0 -0.4389,-0.2002 -0.4389,-0.4543 0,-0.2695 0.1848,-0.4697 0.4466,-0.4697 0.1000999,0 0.1925,0.0308 0.2695,0.0847 C 1.5631,-0.462 1.3783,-0.8932 1.0241,-1.2397 0.9856,-1.2782 0.9625,-1.309 0.9625,-1.3475 c 0,-0.0924 0.0462,-0.1386 0.1309,-0.1386 0.0539,0 0.1309,0.0616 0.2464,0.1848 0.2541,0.2772 0.5005,0.8393 0.5005,1.3398 0,0.4235 -0.154,0.847 -0.539,0.847 z"
                 id="path30"
                 style="fill:#ff0000;fill-opacity:1" />
            </g>
          </g>
        </g>
        <g
           transform="translate(87.1406,81.0961)"
           id="g36"
           style="fill:#ff0000;fill-opacity:1">
          <g
             class="typst-text"
             transform="scale(1,-1)"
             id="g35"
             style="fill:#ff0000;fill-opacity:1">
            <g
               id="g34"
               style="fill:#ff0000;fill-opacity:1">
              <path
                 d="M 1.2705,3.3957 C 1.0164,3.3957 0.80079997,3.2570999 0.6391,2.9722 0.5313,2.7797 0.4466,2.5795 0.3927,2.3562 0.3696,2.2714999 0.3619,2.2253 0.3619,2.2099 c 0,-0.0847 0.0539,-0.1309 0.1617,-0.1309 0.1463,0 0.154,0.0847 0.1925,0.2463999 C 0.847,2.8567 1.0241,3.1262 1.2474,3.1262 c 0.1463,0 0.2233,-0.1155 0.2233,-0.3465 0,-0.0847 -0.0385,-0.2849 -0.1232,-0.616 L 0.9317,0.5159 C 0.8778,0.308 0.8547,0.20019999 0.8547,0.1925 c 0,-0.1771 0.10010003,-0.2695 0.2926,-0.2695 0.1463,0 0.2541,0.0616 0.3234,0.1848 C 1.4938,0.154 1.54,0.3157 1.6093,0.5852 l 0.1694,0.6776 c 0.0924,0.3619 0.1463,0.5621 0.1617,0.6083 0.0616,0.2002 0.154,0.3927 0.2849,0.5698 0.3234,0.4543 0.7006999,0.6853 1.1242,0.6853 0.2772,0 0.4158,-0.1694 0.4158,-0.5005 0,-0.1309 -0.0462,-0.3619 -0.1309,-0.7084 L 3.3187,0.6468 C 3.2494,0.3619 3.2109,0.2156 3.2109,0.1925 c 0,-0.1771 0.0924,-0.2695 0.2849,-0.2695 0.1463,0 0.2618,0.0616 0.3311,0.1848 C 3.85,0.154 3.8962,0.3157 3.9654999,0.5852 L 4.1349,1.2628 C 4.2581,1.7402 4.2812,2.0251 4.4968,2.3331 4.8433,2.8644 5.236,3.1262 5.6903,3.1262 5.9674997,3.1262 6.1061,2.9568 6.1061,2.6257 6.1061,2.3253999 5.9598,1.7941 5.6595,1.0241 5.5825,0.8239 5.544,0.6853 5.544,0.6006 c 0,-0.4158 0.3388,-0.6776 0.7546,-0.6776 0.3696,0 0.6622,0.1848 0.8700997,0.5544 C 7.3458,0.7931 7.4305,1.001 7.4305,1.1087999 7.4305,1.1935 7.3766,1.2397 7.2764997,1.2397 7.2226,1.232 7.1456,1.1704 7.0994,1.0857 6.9223,0.4928 6.6682,0.1925 6.3217,0.1925 6.2139,0.1925 6.16,0.2695 6.16,0.4312 c 0,0.1078 0.0616,0.308 0.1771,0.6006 0.2695,0.6853 0.4081,1.1781 0.4081,1.4707 0,0.5929 -0.3388003,0.8932 -1.0241,0.8932 C 5.2206,3.3957 4.7817,3.157 4.389,2.6796 4.312,3.157 3.9732,3.3957 3.3803,3.3957 2.8798,3.3957 2.4563,3.1801 2.1098,2.7489 2.0405,3.1262 1.7093999,3.3957 1.2705,3.3957 Z"
                 id="path33"
                 style="fill:#ff0000;fill-opacity:1" />
            </g>
          </g>
        </g>
      </g>
      <defs
         id="id-4b7888d2-054a-4e09-8cad-edb7688650c2">
        <symbol
           id="id-a676ef3f-84f4-4dd2-a94a-394b2c84f999"
           overflow="visible">
          <path
             d="M 6.237,7.513 H 2.585 C 2.332,7.513 2.211,7.502 2.211,7.2599998 2.211,7.139 2.332,7.084 2.574,7.084 c 0.22,0 0.66,0.033 0.66,-0.143 C 3.234,6.919 3.223,6.853 3.19,6.743 L 1.738,0.902 C 1.683,0.65999997 1.573,0.517 1.408,0.462 1.331,0.44 1.133,0.429 0.792,0.429 0.55,0.429 0.44,0.407 0.44,0.176 0.44,0.055 0.561,0 0.792,0 h 3.597 c 0.748,0 1.4629998,0.22 2.156,0.671 1.177,0.759 2.299,2.244 2.299,4.048 0,1.628 -1.001,2.794 -2.607,2.794 z M 7.81,5.126 C 7.81,3.883 7.249,2.376 6.677,1.6389999 6.05,0.83599997 5.225,0.429 4.191,0.429 H 2.97 c -0.121,0 -0.198,0 -0.242,0.011 -0.066,0 -0.099,0.022 -0.099,0.055 0,0.022 0.022,0.099 0.055,0.242 L 4.169,6.71 c 0.099,0.363 0.088,0.374 0.55,0.374 H 5.8849998 C 7.117,7.084 7.81,6.358 7.81,5.126 Z"
             id="path37" />
        </symbol>
        <symbol
           id="id-c14f4c51-7f20-4e4e-a20a-fea17661eb37"
           overflow="visible">
          <path
             d="M 1.2628,3.3957 C 1.0087,3.3957 0.80079997,3.2570999 0.6391,2.9722 0.5313,2.7797 0.4466,2.5795 0.3927,2.3562 0.3696,2.2714999 0.3619,2.2253 0.3619,2.2099 c 0,-0.0847 0.0539,-0.1309 0.1617,-0.1309 0.1463,0 0.154,0.0847 0.1925,0.2463999 C 0.847,2.8567 1.0241,3.1262 1.2474,3.1262 c 0.1463,0 0.2155999,-0.1155 0.2155999,-0.3465 0,-0.0847 -0.0385,-0.2849 -0.1231999,-0.616 L 0.9317,0.5159 C 0.8778,0.308 0.8547,0.20019999 0.8547,0.1925 c 0,-0.1771 0.10010003,-0.2695 0.2926,-0.2695 0.1463,0 0.2541,0.0616 0.3234,0.1848 C 1.4938,0.154 1.54,0.3157 1.6093,0.5852 L 1.771,1.2628 C 1.8634,1.6247 1.9173,1.8249 1.9327,1.8711 1.9943,2.0713 2.0867,2.2638 2.2175999,2.4409 2.541,2.8952 2.9106,3.1262 3.3341,3.1262 3.6113,3.1262 3.7498999,2.9568 3.7498999,2.6257 3.7498999,2.3253999 3.6036,1.7941 3.3033,1.0241 3.2263,0.8239 3.1878,0.6853 3.1878,0.6006 c 0,-0.4158 0.3388,-0.6776 0.7546,-0.6776 0.3619,0 0.6545,0.1848 0.8624,0.5544 C 4.9818997,0.7931 5.0666,1.001 5.0666,1.1087999 5.0666,1.1935 5.0127,1.2397 4.9126,1.2397 4.8587,1.232 4.8048,1.1935 4.7509,1.1165 4.7432,1.1087999 4.7432,1.0934 4.7432,1.0857 4.5661,0.4928 4.3043,0.1925 3.9654999,0.1925 c -0.1078,0 -0.1617,0.077 -0.1617,0.2387 0,0.1078 0.0616,0.308 0.1771001,0.6006 0.2695,0.6853 0.4004,1.1781 0.4004,1.4707 0,0.3542 -0.1232,0.6006 -0.3619,0.7315 C 3.8269,3.3418 3.6036,3.3957 3.3648999,3.3957 2.8644,3.3957 2.4409,3.1801 2.1021,2.7489 2.0328,3.1262 1.7017,3.3957 1.2628,3.3957 Z"
             id="path38" />
        </symbol>
        <symbol
           id="id-9786fd5d-47da-4291-b36e-0ca352d2352b"
           overflow="visible">
          <path
             d="m 1.3013,0.8855 c -0.2464,0 -0.4389,-0.2002 -0.4389,-0.4543 0,-0.2695 0.1848,-0.4697 0.4466,-0.4697 0.1000999,0 0.1925,0.0308 0.2695,0.0847 C 1.5631,-0.462 1.3783,-0.8932 1.0241,-1.2397 0.9856,-1.2782 0.9625,-1.309 0.9625,-1.3475 c 0,-0.0924 0.0462,-0.1386 0.1309,-0.1386 0.0539,0 0.1309,0.0616 0.2464,0.1848 0.2541,0.2772 0.5005,0.8393 0.5005,1.3398 0,0.4235 -0.154,0.847 -0.539,0.847 z"
             id="path39" />
        </symbol>
        <symbol
           id="id-db7f2d80-6958-49d6-85cd-11c0e3bbd378"
           overflow="visible">
          <path
             d="M 1.2705,3.3957 C 1.0164,3.3957 0.80079997,3.2570999 0.6391,2.9722 0.5313,2.7797 0.4466,2.5795 0.3927,2.3562 0.3696,2.2714999 0.3619,2.2253 0.3619,2.2099 c 0,-0.0847 0.0539,-0.1309 0.1617,-0.1309 0.1463,0 0.154,0.0847 0.1925,0.2463999 C 0.847,2.8567 1.0241,3.1262 1.2474,3.1262 c 0.1463,0 0.2233,-0.1155 0.2233,-0.3465 0,-0.0847 -0.0385,-0.2849 -0.1232,-0.616 L 0.9317,0.5159 C 0.8778,0.308 0.8547,0.20019999 0.8547,0.1925 c 0,-0.1771 0.10010003,-0.2695 0.2926,-0.2695 0.1463,0 0.2541,0.0616 0.3234,0.1848 C 1.4938,0.154 1.54,0.3157 1.6093,0.5852 l 0.1694,0.6776 c 0.0924,0.3619 0.1463,0.5621 0.1617,0.6083 0.0616,0.2002 0.154,0.3927 0.2849,0.5698 0.3234,0.4543 0.7006999,0.6853 1.1242,0.6853 0.2772,0 0.4158,-0.1694 0.4158,-0.5005 0,-0.1309 -0.0462,-0.3619 -0.1309,-0.7084 L 3.3187,0.6468 C 3.2494,0.3619 3.2109,0.2156 3.2109,0.1925 c 0,-0.1771 0.0924,-0.2695 0.2849,-0.2695 0.1463,0 0.2618,0.0616 0.3311,0.1848 C 3.85,0.154 3.8962,0.3157 3.9654999,0.5852 L 4.1349,1.2628 C 4.2581,1.7402 4.2812,2.0251 4.4968,2.3331 4.8433,2.8644 5.236,3.1262 5.6903,3.1262 5.9674997,3.1262 6.1061,2.9568 6.1061,2.6257 6.1061,2.3253999 5.9598,1.7941 5.6595,1.0241 5.5825,0.8239 5.544,0.6853 5.544,0.6006 c 0,-0.4158 0.3388,-0.6776 0.7546,-0.6776 0.3696,0 0.6622,0.1848 0.8700997,0.5544 C 7.3458,0.7931 7.4305,1.001 7.4305,1.1087999 7.4305,1.1935 7.3766,1.2397 7.2764997,1.2397 7.2226,1.232 7.1456,1.1704 7.0994,1.0857 6.9223,0.4928 6.6682,0.1925 6.3217,0.1925 6.2139,0.1925 6.16,0.2695 6.16,0.4312 c 0,0.1078 0.0616,0.308 0.1771,0.6006 0.2695,0.6853 0.4081,1.1781 0.4081,1.4707 0,0.5929 -0.3388003,0.8932 -1.0241,0.8932 C 5.2206,3.3957 4.7817,3.157 4.389,2.6796 4.312,3.157 3.9732,3.3957 3.3803,3.3957 2.8798,3.3957 2.4563,3.1801 2.1098,2.7489 2.0405,3.1262 1.7093999,3.3957 1.2705,3.3957 Z"
             id="path40" />
        </symbol>
      </defs>
    </g>
    <g
       transform="matrix(0.392777,0,0,0.392777,125.53,129.591)"
       ns2:version="1.11.1"
       ns2:texconverter="typst"
       ns2:pdfconverter="inkscape"
       ns2:text="$X$"
       ns2:preamble="C:\Users\max02\AppData\Roaming\inkscape\extensions\textext\default_preamble_typst.typ"
       ns2:scale="1.1133818697437055"
       ns2:alignment="middle center"
       ns2:inkscapeversion="1.4"
       ns2:jacobian_sqrt="0.392777"
       id="g45">
      <g
         id="g44">
        <g
           transform="translate(70.8661,78.3791)"
           id="g43">
          <g
             class="typst-text"
             transform="scale(1,-1)"
             id="g42">
            <g
               id="g41">
              <path
                 d="M 9.174,7.513 C 8.9869995,7.513 8.338,7.48 8.151,7.48 7.9309998,7.48 7.161,7.513 6.941,7.513 6.776,7.513 6.6879997,7.425 6.6879997,7.249 6.6879997,7.15 6.743,7.095 6.864,7.084 7.128,7.051 7.2599998,6.963 7.2599998,6.798 7.2599998,6.699 7.194,6.578 7.062,6.435 L 5.346,4.587 C 5.027,5.335 4.719,6.072 4.4,6.82 c 0.011,0.022 0.022,0.044 0.055,0.066 0.099,0.11 0.286,0.176 0.55,0.198 0.1759998,0.022 0.264,0.11 0.264,0.253 0,0.121 -0.066,0.176 -0.209,0.176 -0.264,0 -1.111,-0.033 -1.375,-0.033 -0.231,0 -0.99,0.033 -1.221,0.033 -0.165,0 -0.242,-0.088 -0.242,-0.264 0,-0.11 0.099,-0.165 0.297,-0.165 0.495,0 0.649,0 0.781,-0.319 L 4.576,3.762 2.288,1.309 C 2.2549999,1.276 2.211,1.232 2.156,1.199 1.705,0.726 1.188,0.462 0.583,0.429 0.396,0.41799998 0.297,0.319 0.297,0.154 0.32999998,0.055 0.341,0 0.484,0 0.671,0 1.3199999,0.033 1.507,0.033 1.738,0.033 2.497,0 2.728,0 2.893,0 2.97,0.088 2.97,0.264 2.97,0.363 2.915,0.41799998 2.794,0.429 2.53,0.451 2.398,0.55 2.398,0.715 c 0,0.11 0.099,0.264 0.286,0.462 C 3.366,1.903 4.059,2.629 4.73,3.366 5.104,2.475 5.489,1.595 5.8519998,0.693 5.841,0.671 5.83,0.649 5.797,0.616 5.698,0.517 5.522,0.462 5.258,0.429 5.093,0.407 5.005,0.319 5.005,0.176 5.005,0.055 5.071,0 5.2139997,0 l 1.375,0.033 C 6.82,0.033 7.59,0 7.788,0 7.953,0 8.041,0.088 8.041,0.253 8.041,0.363 7.964,0.41799998 7.799,0.429 7.458,0.429 7.238,0.44 7.161,0.484 7.084,0.528 6.996,0.65999997 6.908,0.88 L 5.511,4.213 C 6.259,5.005 6.82,5.599 7.183,6.006 7.447,6.281 7.623,6.468 7.722,6.545 8.129,6.886 8.58,7.062 9.075,7.084 9.306,7.095 9.361,7.15 9.361,7.3589997 9.328,7.458 9.317,7.513 9.174,7.513 Z"
                 id="path41" />
            </g>
          </g>
        </g>
      </g>
      <defs
         id="id-ff00f4fa-5a35-4e88-8ab6-89d3f3ea0f36">
        <symbol
           id="id-c13d12ae-09e8-4597-9ece-fe90dfebb908"
           overflow="visible">
          <path
             d="M 9.174,7.513 C 8.9869995,7.513 8.338,7.48 8.151,7.48 7.9309998,7.48 7.161,7.513 6.941,7.513 6.776,7.513 6.6879997,7.425 6.6879997,7.249 6.6879997,7.15 6.743,7.095 6.864,7.084 7.128,7.051 7.2599998,6.963 7.2599998,6.798 7.2599998,6.699 7.194,6.578 7.062,6.435 L 5.346,4.587 C 5.027,5.335 4.719,6.072 4.4,6.82 c 0.011,0.022 0.022,0.044 0.055,0.066 0.099,0.11 0.286,0.176 0.55,0.198 0.1759998,0.022 0.264,0.11 0.264,0.253 0,0.121 -0.066,0.176 -0.209,0.176 -0.264,0 -1.111,-0.033 -1.375,-0.033 -0.231,0 -0.99,0.033 -1.221,0.033 -0.165,0 -0.242,-0.088 -0.242,-0.264 0,-0.11 0.099,-0.165 0.297,-0.165 0.495,0 0.649,0 0.781,-0.319 L 4.576,3.762 2.288,1.309 C 2.2549999,1.276 2.211,1.232 2.156,1.199 1.705,0.726 1.188,0.462 0.583,0.429 0.396,0.41799998 0.297,0.319 0.297,0.154 0.32999998,0.055 0.341,0 0.484,0 0.671,0 1.3199999,0.033 1.507,0.033 1.738,0.033 2.497,0 2.728,0 2.893,0 2.97,0.088 2.97,0.264 2.97,0.363 2.915,0.41799998 2.794,0.429 2.53,0.451 2.398,0.55 2.398,0.715 c 0,0.11 0.099,0.264 0.286,0.462 C 3.366,1.903 4.059,2.629 4.73,3.366 5.104,2.475 5.489,1.595 5.8519998,0.693 5.841,0.671 5.83,0.649 5.797,0.616 5.698,0.517 5.522,0.462 5.258,0.429 5.093,0.407 5.005,0.319 5.005,0.176 5.005,0.055 5.071,0 5.2139997,0 l 1.375,0.033 C 6.82,0.033 7.59,0 7.788,0 7.953,0 8.041,0.088 8.041,0.253 8.041,0.363 7.964,0.41799998 7.799,0.429 7.458,0.429 7.238,0.44 7.161,0.484 7.084,0.528 6.996,0.65999997 6.908,0.88 L 5.511,4.213 C 6.259,5.005 6.82,5.599 7.183,6.006 7.447,6.281 7.623,6.468 7.722,6.545 8.129,6.886 8.58,7.062 9.075,7.084 9.306,7.095 9.361,7.15 9.361,7.3589997 9.328,7.458 9.317,7.513 9.174,7.513 Z"
             id="path44" />
        </symbol>
      </defs>
    </g>
    <g
       transform="matrix(0.392777,0,0,0.392777,20.305982,51.224409)"
       ns2:version="1.11.1"
       ns2:texconverter="typst"
       ns2:pdfconverter="inkscape"
       ns2:text="$Y$"
       ns2:preamble="C:\Users\max02\AppData\Roaming\inkscape\extensions\textext\default_preamble_typst.typ"
       ns2:scale="1.1133818697437055"
       ns2:alignment="middle center"
       ns2:inkscapeversion="1.4"
       ns2:jacobian_sqrt="0.392777"
       id="g50">
      <g
         id="g49">
        <g
           transform="translate(70.8661,78.3791)"
           id="g48">
          <g
             class="typst-text"
             transform="scale(1,-1)"
             id="g47">
            <g
               id="g46">
              <path
                 d="M 7.304,7.48 C 7.106,7.48 6.424,7.513 6.215,7.513 6.05,7.513 5.962,7.425 5.962,7.2599998 5.962,7.139 6.028,7.084 6.171,7.084 6.402,7.084 6.523,7.018 6.523,6.886 6.523,6.765 6.424,6.6 6.237,6.391 L 3.762,3.542 2.596,6.699 C 2.563,6.787 2.541,6.842 2.53,6.875 c 0,0.143 0.198,0.209 0.594,0.209 0.209,0 0.308,0.088 0.308,0.264 0,0.11 -0.066,0.165 -0.209,0.165 L 1.848,7.48 C 1.606,7.48 0.83599997,7.513 0.638,7.513 0.473,7.513 0.385,7.425 0.385,7.249 0.385,7.139 0.484,7.084 0.682,7.084 0.88,7.084 1.045,7.062 1.144,7.04 1.353,6.985 1.364,6.952 1.43,6.743 L 2.772,3.168 C 2.805,3.091 2.816,3.036 2.816,3.003 L 2.585,2.09 C 2.453,1.529 2.365,1.177 2.321,1.034 2.244,0.737 2.167,0.561 2.09,0.506 2.013,0.451 1.76,0.429 1.342,0.429 1.1,0.41799998 1.001,0.407 1.001,0.16499999 1.001,0.055 1.067,0 1.199,0 L 2.574,0.033 3.96,0 C 4.125,-0.011 4.213,0.077 4.213,0.264 4.213,0.341 4.18,0.396 4.125,0.407 4.015,0.418 3.927,0.429 3.872,0.429 3.509,0.44 3.289,0.462 3.234,0.495 3.212,0.506 3.201,0.528 3.201,0.572 c 0,0.044 0.055,0.275 0.154,0.682 L 3.74,2.783 C 3.773,2.9259999 3.817,3.036 3.883,3.102 L 6.578,6.204 6.721,6.347 C 7.007,6.633 7.271,6.831 7.502,6.93 7.689,7.018 7.898,7.073 8.129,7.084 8.327,7.106 8.382,7.161 8.382,7.337 8.382,7.458 8.316,7.513 8.195,7.513 8.03,7.513 7.469,7.48 7.304,7.48 Z"
                 id="path45" />
            </g>
          </g>
        </g>
      </g>
      <defs
         id="id-da4f607a-c647-44cc-aa40-4b721b608007">
        <symbol
           id="id-0b4a3b8e-f83e-4459-b34f-66796a03e038"
           overflow="visible">
          <path
             d="M 7.304,7.48 C 7.106,7.48 6.424,7.513 6.215,7.513 6.05,7.513 5.962,7.425 5.962,7.2599998 5.962,7.139 6.028,7.084 6.171,7.084 6.402,7.084 6.523,7.018 6.523,6.886 6.523,6.765 6.424,6.6 6.237,6.391 L 3.762,3.542 2.596,6.699 C 2.563,6.787 2.541,6.842 2.53,6.875 c 0,0.143 0.198,0.209 0.594,0.209 0.209,0 0.308,0.088 0.308,0.264 0,0.11 -0.066,0.165 -0.209,0.165 L 1.848,7.48 C 1.606,7.48 0.83599997,7.513 0.638,7.513 0.473,7.513 0.385,7.425 0.385,7.249 0.385,7.139 0.484,7.084 0.682,7.084 0.88,7.084 1.045,7.062 1.144,7.04 1.353,6.985 1.364,6.952 1.43,6.743 L 2.772,3.168 C 2.805,3.091 2.816,3.036 2.816,3.003 L 2.585,2.09 C 2.453,1.529 2.365,1.177 2.321,1.034 2.244,0.737 2.167,0.561 2.09,0.506 2.013,0.451 1.76,0.429 1.342,0.429 1.1,0.41799998 1.001,0.407 1.001,0.16499999 1.001,0.055 1.067,0 1.199,0 L 2.574,0.033 3.96,0 C 4.125,-0.011 4.213,0.077 4.213,0.264 4.213,0.341 4.18,0.396 4.125,0.407 4.015,0.418 3.927,0.429 3.872,0.429 3.509,0.44 3.289,0.462 3.234,0.495 3.212,0.506 3.201,0.528 3.201,0.572 c 0,0.044 0.055,0.275 0.154,0.682 L 3.74,2.783 C 3.773,2.9259999 3.817,3.036 3.883,3.102 L 6.578,6.204 6.721,6.347 C 7.007,6.633 7.271,6.831 7.502,6.93 7.689,7.018 7.898,7.073 8.129,7.084 8.327,7.106 8.382,7.161 8.382,7.337 8.382,7.458 8.316,7.513 8.195,7.513 8.03,7.513 7.469,7.48 7.304,7.48 Z"
             id="path49" />
        </symbol>
      </defs>
    </g>
  </g>
</svg>
