<?xml version="1.0" encoding="UTF-8" standalone="no"?>
<!-- Created with Inkscape (http://www.inkscape.org/) -->

<svg
   width="105.86015mm"
   height="69.948936mm"
   viewBox="0 0 105.86016 69.948936"
   version="1.1"
   id="svg1"
   inkscape:version="1.4 (86a8ad7, 2024-10-11)"
   sodipodi:docname="linear_model.svg"
   xmlns:inkscape="http://www.inkscape.org/namespaces/inkscape"
   xmlns:sodipodi="http://sodipodi.sourceforge.net/DTD/sodipodi-0.dtd"
   xmlns="http://www.w3.org/2000/svg"
   xmlns:svg="http://www.w3.org/2000/svg"
   xmlns:ns6="http://www.iki.fi/pav/software/textext/">
  <sodipodi:namedview
     id="namedview1"
     pagecolor="#ffffff"
     bordercolor="#111111"
     borderopacity="1"
     inkscape:showpageshadow="0"
     inkscape:pageopacity="0"
     inkscape:pagecheckerboard="1"
     inkscape:deskcolor="#d1d1d1"
     inkscape:document-units="mm"
     inkscape:zoom="1.9477379"
     inkscape:cx="156.07849"
     inkscape:cy="88.05086"
     inkscape:window-width="1920"
     inkscape:window-height="991"
     inkscape:window-x="-9"
     inkscape:window-y="-9"
     inkscape:window-maximized="1"
     inkscape:current-layer="g95" />
  <defs
     id="defs1">
    <marker
       style="overflow:visible"
       id="ArrowWide"
       refX="0"
       refY="0"
       orient="auto-start-reverse"
       inkscape:stockid="Wide arrow"
       markerWidth="1"
       markerHeight="1"
       viewBox="0 0 1 1"
       inkscape:isstock="true"
       inkscape:collect="always"
       preserveAspectRatio="xMidYMid">
      <path
         style="fill:none;stroke:context-stroke;stroke-width:1;stroke-linecap:butt"
         d="M 3,-3 0,0 3,3"
         transform="rotate(180,0.125,0)"
         sodipodi:nodetypes="ccc"
         id="path2" />
    </marker>
  </defs>
  <g
     inkscape:label="Capa 1"
     inkscape:groupmode="layer"
     id="layer1"
     transform="translate(-54.331621,-108.14776)">
    <path
       style="fill:none;stroke:#000000;stroke-width:0.265;stroke-linecap:butt;stroke-linejoin:miter;stroke-dasharray:none;stroke-opacity:1;marker-start:url(#ArrowWide);marker-end:url(#ArrowWide)"
       d="m 61.400284,108.40139 c 0,63.43791 0,63.43791 0,63.43791 h 84.629156"
       id="path1" />
    <g
       transform="matrix(0,-0.392777,0.392777,0,26.497047,172.52609)"
       ns6:version="1.11.1"
       ns6:texconverter="typst"
       ns6:pdfconverter="inkscape"
       ns6:text="$&quot;Precio&quot;$"
       ns6:preamble="C:\Users\max02\AppData\Roaming\inkscape\extensions\textext\default_preamble_typst.typ"
       ns6:scale="1.1133818697437055"
       ns6:alignment="middle center"
       ns6:jacobian_sqrt="0.392777"
       id="g29">
      <g
         id="g24">
        <g
           transform="translate(70.8661,78.3791)"
           id="g23">
          <g
             class="typst-text"
             transform="scale(1,-1)"
             id="g22">
            <g
               id="g16">
              <path
                 d="m 4.345,3.432 c 0.627,0 1.188,0.176 1.683,0.528 0.5609997,0.396 0.836,0.891 0.836,1.485 0,0.627 -0.286,1.1439997 -0.858,1.54 C 5.5,7.337 4.917,7.513 4.257,7.513 H 0.385 V 7.084 H 0.693 C 1.078,7.084 1.309,7.051 1.386,6.996 1.463,6.941 1.507,6.82 1.507,6.6219997 V 0.891 C 1.507,0.693 1.463,0.561 1.386,0.506 1.309,0.451 1.078,0.429 0.693,0.429 H 0.385 V 0 C 0.671,0.022 1.221,0.033 2.024,0.033 2.838,0.033 3.388,0.022 3.674,0 V 0.429 H 3.366 C 2.981,0.429 2.75,0.451 2.673,0.506 2.596,0.561 2.552,0.693 2.552,0.891 V 3.432 Z M 3.014,7.084 H 3.9819999 C 4.301,7.084 4.576,7.04 4.807,6.963 5.434,6.732 5.654,6.27 5.654,5.445 5.654,5.137 5.621,4.873 5.544,4.653 5.357,4.103 4.763,3.806 3.9819999,3.806 H 2.519 v 2.893 c 0,0.396 0.066,0.385 0.495,0.385 z"
                 id="path16" />
            </g>
            <g
               transform="translate(7.491)"
               id="g17">
              <path
                 d="m 4.004,4.158 c 0,0.429 -0.407,0.704 -0.836,0.704 -0.5610001,0 -0.99,-0.33 -1.276,-1.001 V 4.862 L 0.308,4.741 V 4.323 C 0.693,4.323 0.924,4.29 1.012,4.224 1.1,4.158 1.144,4.015 1.144,3.762 V 0.869 C 1.144,0.65999997 1.111,0.528 1.034,0.484 0.957,0.44 0.715,0.418 0.308,0.418 V 0 L 1.573,0.033 C 2.035,0.044 2.508,0.033 2.981,0 V 0.41799998 H 2.717 c -0.363,0 -0.594,0.033 -0.671,0.088 -0.077,0.055 -0.11,0.187 -0.11,0.385 V 2.552 c 0,0.473 0.088,0.902 0.253,1.265 C 2.409,4.29 2.728,4.532 3.157,4.5429997 3.047,4.433 2.992,4.301 2.992,4.147 c 0,-0.341 0.165,-0.506 0.506,-0.506 0.297,0 0.506,0.231 0.506,0.517 z"
                 id="path17" />
            </g>
            <g
               transform="translate(11.803)"
               id="g18">
              <path
                 d="m 4.565,2.761 c 0,1.265 -0.737,2.167 -1.969,2.167 -0.66,0 -1.21,-0.253 -1.661,-0.77 C 0.517,3.674 0.308,3.091 0.308,2.42 c 0,-0.693 0.231,-1.276 0.693,-1.782 0.4619999,-0.506 1.034,-0.759 1.716,-0.759 0.6269999,0 1.111,0.22 1.441,0.649 0.275,0.363 0.407,0.627 0.407,0.803 0,0.11 -0.066,0.165 -0.187,0.165 C 4.29,1.496 4.235,1.441 4.202,1.3199999 3.96,0.594 3.487,0.231 2.783,0.231 2.288,0.231 1.903,0.462 1.606,0.935 1.397,1.276 1.298,1.793 1.287,2.497 h 2.97 c 0.242,0 0.308,0.022 0.308,0.264 z M 3.586,3.839 C 3.707,3.476 3.762,3.124 3.762,2.805 H 1.298 c 0.033,0.726 0.22,1.221 0.55,1.474 0.275,0.22 0.517,0.33 0.748,0.33 0.495,0 0.825,-0.253 0.99,-0.77 z"
                 id="path18" />
            </g>
            <g
               transform="translate(16.687)"
               id="g19">
              <path
                 d="m 2.761,4.576 c 0.462,0 0.814,-0.11 1.056,-0.33 C 3.553,4.213 3.366,3.971 3.366,3.718 c 0,-0.363 0.176,-0.539 0.539,-0.539 0.363,0 0.539,0.187 0.539,0.55 0,0.7809998 -0.847,1.199 -1.694,1.199 C 2.068,4.928 1.507,4.686 1.056,4.18 0.605,3.674 0.374,3.069 0.374,2.376 c 0,-0.671 0.231,-1.265 0.682,-1.76 0.451,-0.495 1.001,-0.737 1.672,-0.737 0.5499999,0 0.979,0.154 1.287,0.473 0.253,0.253 0.418,0.506 0.506,0.77 0.033,0.099 0.044,0.165 0.044,0.209 0,0.099 -0.066,0.143 -0.187,0.143 C 4.29,1.474 4.235,1.43 4.202,1.342 3.971,0.605 3.52,0.231 2.827,0.231 2.508,0.231 2.2,0.374 1.892,0.671 1.529,1.012 1.353,1.584 1.353,2.398 c 0,1.1 0.418,2.178 1.408,2.178 z"
                 id="path19" />
            </g>
            <g
               transform="translate(21.571)"
               id="g20">
              <path
                 d="m 2.134,6.611 c 0,0.33 -0.275,0.6159998 -0.605,0.6159998 -0.33,0 -0.616,-0.2859998 -0.616,-0.6159998 0,-0.33 0.275,-0.627 0.605,-0.627 0.341,0 0.616,0.286 0.616,0.627 z M 1.573,0.033 2.717,0 V 0.429 C 2.354,0.429 2.134,0.451 2.068,0.495 2.002,0.539 1.98,0.65999997 1.98,0.858 V 4.895 L 0.407,4.763 V 4.345 C 0.77,4.345 1.001,4.312 1.078,4.257 1.155,4.202 1.188,4.048 1.188,3.795 V 0.869 C 1.188,0.65999997 1.155,0.528 1.078,0.484 1.001,0.44 0.759,0.429 0.363,0.429 V 0 Z"
                 id="path20" />
            </g>
            <g
               transform="translate(24.629)"
               id="g21">
              <path
                 d="m 2.739,-0.121 c 0.682,0 1.254,0.242 1.727,0.726 C 4.939,1.089 5.1809998,1.6719999 5.1809998,2.354 5.1809998,3.047 4.95,3.652 4.488,4.158 4.026,4.664 3.443,4.928 2.75,4.928 2.057,4.928 1.485,4.664 1.012,4.158 0.539,3.652 0.308,3.047 0.308,2.354 0.308,1.6719999 0.539,1.089 1.012,0.605 1.485,0.121 2.068,-0.121 2.739,-0.121 Z M 2.75,0.231 C 2.222,0.231 1.826,0.462 1.551,0.935 1.375,1.243 1.287,1.749 1.287,2.442 1.287,3.113 1.375,3.597 1.54,3.905 1.804,4.378 2.2,4.609 2.739,4.609 3.256,4.609 3.652,4.378 3.927,3.927 4.114,3.619 4.202,3.124 4.202,2.442 4.202,1.166 3.828,0.231 2.75,0.231 Z"
                 id="path21" />
            </g>
          </g>
        </g>
      </g>
      <defs
         id="id-4e233015-3c43-4801-8fed-e821625dfe00">
        <symbol
           id="id-04d34d2e-e08f-4024-8663-9441769978c7"
           overflow="visible">
          <path
             d="m 4.345,3.432 c 0.627,0 1.188,0.176 1.683,0.528 0.5609997,0.396 0.836,0.891 0.836,1.485 0,0.627 -0.286,1.1439997 -0.858,1.54 C 5.5,7.337 4.917,7.513 4.257,7.513 H 0.385 V 7.084 H 0.693 C 1.078,7.084 1.309,7.051 1.386,6.996 1.463,6.941 1.507,6.82 1.507,6.6219997 V 0.891 C 1.507,0.693 1.463,0.561 1.386,0.506 1.309,0.451 1.078,0.429 0.693,0.429 H 0.385 V 0 C 0.671,0.022 1.221,0.033 2.024,0.033 2.838,0.033 3.388,0.022 3.674,0 V 0.429 H 3.366 C 2.981,0.429 2.75,0.451 2.673,0.506 2.596,0.561 2.552,0.693 2.552,0.891 V 3.432 Z M 3.014,7.084 H 3.9819999 C 4.301,7.084 4.576,7.04 4.807,6.963 5.434,6.732 5.654,6.27 5.654,5.445 5.654,5.137 5.621,4.873 5.544,4.653 5.357,4.103 4.763,3.806 3.9819999,3.806 H 2.519 v 2.893 c 0,0.396 0.066,0.385 0.495,0.385 z"
             id="path24" />
        </symbol>
        <symbol
           id="id-85d8f861-46b3-473a-9754-235f94c095bd"
           overflow="visible">
          <path
             d="m 4.004,4.158 c 0,0.429 -0.407,0.704 -0.836,0.704 -0.5610001,0 -0.99,-0.33 -1.276,-1.001 V 4.862 L 0.308,4.741 V 4.323 C 0.693,4.323 0.924,4.29 1.012,4.224 1.1,4.158 1.144,4.015 1.144,3.762 V 0.869 C 1.144,0.65999997 1.111,0.528 1.034,0.484 0.957,0.44 0.715,0.418 0.308,0.418 V 0 L 1.573,0.033 C 2.035,0.044 2.508,0.033 2.981,0 V 0.41799998 H 2.717 c -0.363,0 -0.594,0.033 -0.671,0.088 -0.077,0.055 -0.11,0.187 -0.11,0.385 V 2.552 c 0,0.473 0.088,0.902 0.253,1.265 C 2.409,4.29 2.728,4.532 3.157,4.5429997 3.047,4.433 2.992,4.301 2.992,4.147 c 0,-0.341 0.165,-0.506 0.506,-0.506 0.297,0 0.506,0.231 0.506,0.517 z"
             id="path25" />
        </symbol>
        <symbol
           id="id-99994aa2-177d-4b77-aeef-4c8474cd7120"
           overflow="visible">
          <path
             d="m 4.565,2.761 c 0,1.265 -0.737,2.167 -1.969,2.167 -0.66,0 -1.21,-0.253 -1.661,-0.77 C 0.517,3.674 0.308,3.091 0.308,2.42 c 0,-0.693 0.231,-1.276 0.693,-1.782 0.4619999,-0.506 1.034,-0.759 1.716,-0.759 0.6269999,0 1.111,0.22 1.441,0.649 0.275,0.363 0.407,0.627 0.407,0.803 0,0.11 -0.066,0.165 -0.187,0.165 C 4.29,1.496 4.235,1.441 4.202,1.3199999 3.96,0.594 3.487,0.231 2.783,0.231 2.288,0.231 1.903,0.462 1.606,0.935 1.397,1.276 1.298,1.793 1.287,2.497 h 2.97 c 0.242,0 0.308,0.022 0.308,0.264 z M 3.586,3.839 C 3.707,3.476 3.762,3.124 3.762,2.805 H 1.298 c 0.033,0.726 0.22,1.221 0.55,1.474 0.275,0.22 0.517,0.33 0.748,0.33 0.495,0 0.825,-0.253 0.99,-0.77 z"
             id="path26" />
        </symbol>
        <symbol
           id="id-28ef970e-1eb6-45fc-9ae9-9d611abb0cb6"
           overflow="visible">
          <path
             d="m 2.761,4.576 c 0.462,0 0.814,-0.11 1.056,-0.33 C 3.553,4.213 3.366,3.971 3.366,3.718 c 0,-0.363 0.176,-0.539 0.539,-0.539 0.363,0 0.539,0.187 0.539,0.55 0,0.7809998 -0.847,1.199 -1.694,1.199 C 2.068,4.928 1.507,4.686 1.056,4.18 0.605,3.674 0.374,3.069 0.374,2.376 c 0,-0.671 0.231,-1.265 0.682,-1.76 0.451,-0.495 1.001,-0.737 1.672,-0.737 0.5499999,0 0.979,0.154 1.287,0.473 0.253,0.253 0.418,0.506 0.506,0.77 0.033,0.099 0.044,0.165 0.044,0.209 0,0.099 -0.066,0.143 -0.187,0.143 C 4.29,1.474 4.235,1.43 4.202,1.342 3.971,0.605 3.52,0.231 2.827,0.231 2.508,0.231 2.2,0.374 1.892,0.671 1.529,1.012 1.353,1.584 1.353,2.398 c 0,1.1 0.418,2.178 1.408,2.178 z"
             id="path27" />
        </symbol>
        <symbol
           id="id-627d100f-be04-4cac-b41b-abe003e13b96"
           overflow="visible">
          <path
             d="m 2.134,6.611 c 0,0.33 -0.275,0.6159998 -0.605,0.6159998 -0.33,0 -0.616,-0.2859998 -0.616,-0.6159998 0,-0.33 0.275,-0.627 0.605,-0.627 0.341,0 0.616,0.286 0.616,0.627 z M 1.573,0.033 2.717,0 V 0.429 C 2.354,0.429 2.134,0.451 2.068,0.495 2.002,0.539 1.98,0.65999997 1.98,0.858 V 4.895 L 0.407,4.763 V 4.345 C 0.77,4.345 1.001,4.312 1.078,4.257 1.155,4.202 1.188,4.048 1.188,3.795 V 0.869 C 1.188,0.65999997 1.155,0.528 1.078,0.484 1.001,0.44 0.759,0.429 0.363,0.429 V 0 Z"
             id="path28" />
        </symbol>
        <symbol
           id="id-e44d1b2b-c663-427a-b61b-0ac315f0f74d"
           overflow="visible">
          <path
             d="m 2.739,-0.121 c 0.682,0 1.254,0.242 1.727,0.726 C 4.939,1.089 5.1809998,1.6719999 5.1809998,2.354 5.1809998,3.047 4.95,3.652 4.488,4.158 4.026,4.664 3.443,4.928 2.75,4.928 2.057,4.928 1.485,4.664 1.012,4.158 0.539,3.652 0.308,3.047 0.308,2.354 0.308,1.6719999 0.539,1.089 1.012,0.605 1.485,0.121 2.068,-0.121 2.739,-0.121 Z M 2.75,0.231 C 2.222,0.231 1.826,0.462 1.551,0.935 1.375,1.243 1.287,1.749 1.287,2.442 1.287,3.113 1.375,3.597 1.54,3.905 1.804,4.378 2.2,4.609 2.739,4.609 3.256,4.609 3.652,4.378 3.927,3.927 4.114,3.619 4.202,3.124 4.202,2.442 4.202,1.166 3.828,0.231 2.75,0.231 Z"
             id="path29" />
        </symbol>
      </defs>
    </g>
    <g
       transform="matrix(0.392777,0,0,0.392777,61.429409,147.26366)"
       ns6:version="1.11.1"
       ns6:texconverter="typst"
       ns6:pdfconverter="inkscape"
       ns6:text="$&quot;A\xf1os de cosecha&quot;$"
       ns6:preamble="C:\Users\max02\AppData\Roaming\inkscape\extensions\textext\default_preamble_typst.typ"
       ns6:scale="1.1133818697437055"
       ns6:alignment="middle center"
       ns6:jacobian_sqrt="0.392777"
       id="g53">
      <g
         id="g45">
        <g
           transform="translate(70.8661,78.3791)"
           id="g44">
          <g
             class="typst-text"
             transform="scale(1,-1)"
             id="g43">
            <g
               id="g30">
              <path
                 d="M 6.413,0.033 7.887,0 V 0.429 H 7.645 C 7.37,0.429 7.183,0.44 7.106,0.462 6.941,0.517 6.831,0.638 6.765,0.825 L 4.411,7.634 C 4.367,7.777 4.29,7.876 4.125,7.876 3.9819999,7.876 3.883,7.799 3.828,7.634 L 1.573,1.122 C 1.419,0.671 1.012,0.429 0.352,0.41799998 V 0 L 1.507,0.033 2.794,0 v 0.429 c -0.5390001,0 -0.814,0.165 -0.814,0.506 0,0.077 0.011,0.121 0.022,0.143 L 2.497,2.475 H 5.115 L 5.676,0.847 C 5.698,0.781 5.709,0.737 5.709,0.704 5.709,0.517 5.412,0.429 4.807,0.429 V 0 C 5.269,0.033 5.808,0.044 6.413,0.033 Z M 3.795,6.259 4.961,2.904 H 2.6399999 Z"
                 id="path30" />
            </g>
            <g
               transform="translate(8.25)"
               id="g31">
              <path
                 d="m 2.321,6.5889997 c 0.154,0 0.374,-0.088 0.671,-0.2639997 0.297,-0.176 0.539,-0.264 0.704,-0.264 0.253,0 0.495,0.121 0.726,0.352 0.088,0.088 0.253,0.264 0.506,0.539 L 4.697,7.183 4.5429997,7.018 C 4.312,6.765 4.07,6.644 3.806,6.644 3.6629999,6.644 3.432,6.732 3.124,6.908 2.816,7.084 2.585,7.161 2.431,7.161 2.178,7.161 1.936,7.04 1.705,6.809 1.617,6.721 1.452,6.545 1.199,6.27 L 1.441,6.039 c 0.22,0.275 0.495,0.5499997 0.88,0.5499997 z M 3.454,4.565 c 0.495,0 0.748,-0.385 0.748,-1.166 V 0.869 C 4.202,0.65999997 4.169,0.528 4.092,0.484 4.015,0.44 3.773,0.429 3.366,0.429 V 0 L 4.631,0.033 5.8849998,0 V 0.429 C 5.533,0.429 5.302,0.44 5.192,0.473 5.082,0.506 5.038,0.583 5.038,0.704 V 2.783 C 5.038,3.3 5.027,3.6629999 4.994,3.872 4.884,4.554 4.389,4.895 3.52,4.895 2.827,4.895 2.31,4.565 1.969,3.894 V 4.895 L 0.352,4.763 V 4.345 C 0.748,4.345 0.99,4.312 1.078,4.246 1.166,4.18 1.199,4.037 1.199,3.784 V 0.869 C 1.199,0.65999997 1.155,0.528 1.078,0.484 1.001,0.44 0.759,0.429 0.352,0.429 V 0 L 1.617,0.033 2.871,0 V 0.429 C 2.464,0.429 2.233,0.44 2.156,0.484 2.079,0.528 2.035,0.65999997 2.035,0.869 v 2.002 c 0,0.891 0.561,1.694 1.419,1.694 z"
                 id="path31" />
            </g>
            <g
               transform="translate(14.366)"
               id="g32">
              <path
                 d="m 2.739,-0.121 c 0.682,0 1.254,0.242 1.727,0.726 C 4.939,1.089 5.1809998,1.6719999 5.1809998,2.354 5.1809998,3.047 4.95,3.652 4.488,4.158 4.026,4.664 3.443,4.928 2.75,4.928 2.057,4.928 1.485,4.664 1.012,4.158 0.539,3.652 0.308,3.047 0.308,2.354 0.308,1.6719999 0.539,1.089 1.012,0.605 1.485,0.121 2.068,-0.121 2.739,-0.121 Z M 2.75,0.231 C 2.222,0.231 1.826,0.462 1.551,0.935 1.375,1.243 1.287,1.749 1.287,2.442 1.287,3.113 1.375,3.597 1.54,3.905 1.804,4.378 2.2,4.609 2.739,4.609 3.256,4.609 3.652,4.378 3.927,3.927 4.114,3.619 4.202,3.124 4.202,2.442 4.202,1.166 3.828,0.231 2.75,0.231 Z"
                 id="path32" />
            </g>
            <g
               transform="translate(19.866)"
               id="g33">
              <path
                 d="M 3.96,1.43 C 3.96,2.266 3.388,2.794 2.2549999,3.014 1.738,3.113 1.408,3.234 1.232,3.355 1.056,3.476 0.968,3.652 0.968,3.861 c 0,0.517 0.385,0.77 1.155,0.77 0.748,0 1.1549999,-0.418 1.21,-1.265 0.011,-0.088 0.066,-0.132 0.176,-0.132 0.1209999,0 0.187,0.099 0.187,0.297 V 4.62 C 3.696,4.829 3.641,4.928 3.531,4.928 3.41,4.928 3.245,4.73 3.135,4.642 2.86,4.829 2.519,4.928 2.123,4.928 1.144,4.928 0.363,4.488 0.363,3.553 0.363,3.179 0.517,2.86 0.83599997,2.6069999 1.221,2.288 1.584,2.222 2.277,2.101 2.992,1.958 3.355,1.6389999 3.355,1.144 3.355,0.517 2.97,0.198 2.189,0.198 1.43,0.198 0.946,0.704 0.737,1.705 0.704,1.848 0.649,1.925 0.55,1.925 0.429,1.925 0.363,1.8149999 0.363,1.606 V 0.187 c 0,-0.209 0.055,-0.308 0.165,-0.308 0.033,0 0.088,0.033 0.176,0.11 0.198,0.17599999 0.11,0.143 0.308,0.34099998 C 1.331,0.033 1.727,-0.121 2.189,-0.121 c 1.045,0 1.771,0.53899998 1.771,1.551 z"
                 id="path33" />
            </g>
            <g
               transform="translate(27.852)"
               id="g34">
              <path
                 d="M 4.114,-0.121 5.797,0 v 0.41799998 c -0.396,0 -0.627,0.022 -0.715,0.088 C 4.994,0.572 4.95,0.737 4.95,0.99 V 7.634 L 3.3109999,7.513 V 7.095 C 3.696,7.095 3.938,7.062 4.026,6.996 4.114,6.93 4.147,6.776 4.147,6.523 V 4.29 C 3.795,4.697 3.355,4.895 2.827,4.895 2.145,4.895 1.562,4.653 1.089,4.158 0.616,3.6629999 0.374,3.069 0.374,2.376 c 0,-0.671 0.22,-1.254 0.671,-1.749 0.451,-0.495 1.001,-0.748 1.672,-0.748 0.5609999,0 1.034,0.209 1.397,0.638 z M 2.871,4.565 c 0.4729999,0 0.858,-0.209 1.133,-0.627 0.077,-0.121 0.11,-0.242 0.11,-0.385 V 1.331 C 4.114,1.188 4.081,1.067 4.004,0.946 3.696,0.451 3.2779999,0.20899999 2.761,0.20899999 2.31,0.20899999 1.947,0.429 1.661,0.88 1.4629999,1.21 1.364,1.705 1.364,2.365 c 0,1.199 0.407,2.2 1.507,2.2 z"
                 id="path34" />
            </g>
            <g
               transform="translate(33.968)"
               id="g35">
              <path
                 d="m 4.565,2.761 c 0,1.265 -0.737,2.167 -1.969,2.167 -0.66,0 -1.21,-0.253 -1.661,-0.77 C 0.517,3.674 0.308,3.091 0.308,2.42 c 0,-0.693 0.231,-1.276 0.693,-1.782 0.4619999,-0.506 1.034,-0.759 1.716,-0.759 0.6269999,0 1.111,0.22 1.441,0.649 0.275,0.363 0.407,0.627 0.407,0.803 0,0.11 -0.066,0.165 -0.187,0.165 C 4.29,1.496 4.235,1.441 4.202,1.3199999 3.96,0.594 3.487,0.231 2.783,0.231 2.288,0.231 1.903,0.462 1.606,0.935 1.397,1.276 1.298,1.793 1.287,2.497 h 2.97 c 0.242,0 0.308,0.022 0.308,0.264 z M 3.586,3.839 C 3.707,3.476 3.762,3.124 3.762,2.805 H 1.298 c 0.033,0.726 0.22,1.221 0.55,1.474 0.275,0.22 0.517,0.33 0.748,0.33 0.495,0 0.825,-0.253 0.99,-0.77 z"
                 id="path35" />
            </g>
            <g
               transform="translate(42.504)"
               id="g36">
              <path
                 d="m 2.761,4.576 c 0.462,0 0.814,-0.11 1.056,-0.33 C 3.553,4.213 3.366,3.971 3.366,3.718 c 0,-0.363 0.176,-0.539 0.539,-0.539 0.363,0 0.539,0.187 0.539,0.55 0,0.7809998 -0.847,1.199 -1.694,1.199 C 2.068,4.928 1.507,4.686 1.056,4.18 0.605,3.674 0.374,3.069 0.374,2.376 c 0,-0.671 0.231,-1.265 0.682,-1.76 0.451,-0.495 1.001,-0.737 1.672,-0.737 0.5499999,0 0.979,0.154 1.287,0.473 0.253,0.253 0.418,0.506 0.506,0.77 0.033,0.099 0.044,0.165 0.044,0.209 0,0.099 -0.066,0.143 -0.187,0.143 C 4.29,1.474 4.235,1.43 4.202,1.342 3.971,0.605 3.52,0.231 2.827,0.231 2.508,0.231 2.2,0.374 1.892,0.671 1.529,1.012 1.353,1.584 1.353,2.398 c 0,1.1 0.418,2.178 1.408,2.178 z"
                 id="path36" />
            </g>
            <g
               transform="translate(47.388)"
               id="g37">
              <path
                 d="m 2.739,-0.121 c 0.682,0 1.254,0.242 1.727,0.726 C 4.939,1.089 5.1809998,1.6719999 5.1809998,2.354 5.1809998,3.047 4.95,3.652 4.488,4.158 4.026,4.664 3.443,4.928 2.75,4.928 2.057,4.928 1.485,4.664 1.012,4.158 0.539,3.652 0.308,3.047 0.308,2.354 0.308,1.6719999 0.539,1.089 1.012,0.605 1.485,0.121 2.068,-0.121 2.739,-0.121 Z M 2.75,0.231 C 2.222,0.231 1.826,0.462 1.551,0.935 1.375,1.243 1.287,1.749 1.287,2.442 1.287,3.113 1.375,3.597 1.54,3.905 1.804,4.378 2.2,4.609 2.739,4.609 3.256,4.609 3.652,4.378 3.927,3.927 4.114,3.619 4.202,3.124 4.202,2.442 4.202,1.166 3.828,0.231 2.75,0.231 Z"
                 id="path37" />
            </g>
            <g
               transform="translate(52.888)"
               id="g38">
              <path
                 d="M 3.96,1.43 C 3.96,2.266 3.388,2.794 2.2549999,3.014 1.738,3.113 1.408,3.234 1.232,3.355 1.056,3.476 0.968,3.652 0.968,3.861 c 0,0.517 0.385,0.77 1.155,0.77 0.748,0 1.1549999,-0.418 1.21,-1.265 0.011,-0.088 0.066,-0.132 0.176,-0.132 0.1209999,0 0.187,0.099 0.187,0.297 V 4.62 C 3.696,4.829 3.641,4.928 3.531,4.928 3.41,4.928 3.245,4.73 3.135,4.642 2.86,4.829 2.519,4.928 2.123,4.928 1.144,4.928 0.363,4.488 0.363,3.553 0.363,3.179 0.517,2.86 0.83599997,2.6069999 1.221,2.288 1.584,2.222 2.277,2.101 2.992,1.958 3.355,1.6389999 3.355,1.144 3.355,0.517 2.97,0.198 2.189,0.198 1.43,0.198 0.946,0.704 0.737,1.705 0.704,1.848 0.649,1.925 0.55,1.925 0.429,1.925 0.363,1.8149999 0.363,1.606 V 0.187 c 0,-0.209 0.055,-0.308 0.165,-0.308 0.033,0 0.088,0.033 0.176,0.11 0.198,0.17599999 0.11,0.143 0.308,0.34099998 C 1.331,0.033 1.727,-0.121 2.189,-0.121 c 1.045,0 1.771,0.53899998 1.771,1.551 z"
                 id="path38" />
            </g>
            <g
               transform="translate(57.222)"
               id="g39">
              <path
                 d="m 4.565,2.761 c 0,1.265 -0.737,2.167 -1.969,2.167 -0.66,0 -1.21,-0.253 -1.661,-0.77 C 0.517,3.674 0.308,3.091 0.308,2.42 c 0,-0.693 0.231,-1.276 0.693,-1.782 0.4619999,-0.506 1.034,-0.759 1.716,-0.759 0.6269999,0 1.111,0.22 1.441,0.649 0.275,0.363 0.407,0.627 0.407,0.803 0,0.11 -0.066,0.165 -0.187,0.165 C 4.29,1.496 4.235,1.441 4.202,1.3199999 3.96,0.594 3.487,0.231 2.783,0.231 2.288,0.231 1.903,0.462 1.606,0.935 1.397,1.276 1.298,1.793 1.287,2.497 h 2.97 c 0.242,0 0.308,0.022 0.308,0.264 z M 3.586,3.839 C 3.707,3.476 3.762,3.124 3.762,2.805 H 1.298 c 0.033,0.726 0.22,1.221 0.55,1.474 0.275,0.22 0.517,0.33 0.748,0.33 0.495,0 0.825,-0.253 0.99,-0.77 z"
                 id="path39" />
            </g>
            <g
               transform="translate(62.106)"
               id="g40">
              <path
                 d="m 2.761,4.576 c 0.462,0 0.814,-0.11 1.056,-0.33 C 3.553,4.213 3.366,3.971 3.366,3.718 c 0,-0.363 0.176,-0.539 0.539,-0.539 0.363,0 0.539,0.187 0.539,0.55 0,0.7809998 -0.847,1.199 -1.694,1.199 C 2.068,4.928 1.507,4.686 1.056,4.18 0.605,3.674 0.374,3.069 0.374,2.376 c 0,-0.671 0.231,-1.265 0.682,-1.76 0.451,-0.495 1.001,-0.737 1.672,-0.737 0.5499999,0 0.979,0.154 1.287,0.473 0.253,0.253 0.418,0.506 0.506,0.77 0.033,0.099 0.044,0.165 0.044,0.209 0,0.099 -0.066,0.143 -0.187,0.143 C 4.29,1.474 4.235,1.43 4.202,1.342 3.971,0.605 3.52,0.231 2.827,0.231 2.508,0.231 2.2,0.374 1.892,0.671 1.529,1.012 1.353,1.584 1.353,2.398 c 0,1.1 0.418,2.178 1.408,2.178 z"
                 id="path40" />
            </g>
            <g
               transform="translate(66.99)"
               id="g41">
              <path
                 d="m 3.454,4.565 c 0.495,0 0.748,-0.385 0.748,-1.166 V 0.869 C 4.202,0.65999997 4.169,0.528 4.092,0.484 4.015,0.44 3.773,0.429 3.366,0.429 V 0 L 4.631,0.033 5.8849998,0 V 0.429 C 5.533,0.429 5.302,0.44 5.192,0.473 5.082,0.506 5.038,0.583 5.038,0.704 v 2.079 c 0,0.5279999 -0.011,0.891 -0.044,1.1 C 4.884,4.554 4.389,4.895 3.52,4.895 2.849,4.895 2.343,4.587 2.002,3.971 V 7.634 L 0.352,7.513 V 7.095 C 0.748,7.095 0.99,7.062 1.078,6.996 1.166,6.93 1.199,6.776 1.199,6.523 V 0.869 C 1.199,0.65999997 1.155,0.528 1.078,0.484 1.001,0.44 0.759,0.429 0.352,0.429 V 0 L 1.617,0.033 2.871,0 V 0.429 C 2.464,0.429 2.233,0.44 2.156,0.484 2.079,0.528 2.035,0.65999997 2.035,0.869 v 2.002 c 0,0.891 0.561,1.694 1.419,1.694 z"
                 id="path41" />
            </g>
            <g
               transform="translate(73.106)"
               id="g42">
              <path
                 d="M 5.313,1.001 V 1.65 H 4.961 V 1.001 C 4.961,0.572 4.84,0.352 4.609,0.352 4.389,0.352 4.257,0.627 4.257,0.847 V 3.014 C 4.257,3.399 4.213,3.685 4.136,3.883 3.872,4.532 3.113,4.928 2.343,4.928 1.496,4.928 0.65999997,4.455 0.65999997,3.6629999 0.65999997,3.3 0.847,3.113 1.21,3.113 c 0.363,0 0.539,0.176 0.539,0.539 0,0.319 -0.165,0.506 -0.506,0.539 0.242,0.275 0.605,0.418 1.078,0.418 0.682,0 1.1,-0.6270001 1.1,-1.342 V 2.904 C 2.563,2.849 1.914,2.717 1.4629999,2.508 0.726,2.167 0.352,1.694 0.352,1.067 c 0,-0.286 0.11,-0.528 0.319,-0.715 0.352,-0.319 0.836,-0.473 1.452,-0.473 0.649,0 1.111,0.275 1.397,0.836 0.077,-0.418 0.385,-0.781 0.858,-0.781 0.583,0 0.935,0.462 0.935,1.067 z M 2.2,0.198 c -0.506,0 -0.924,0.374 -0.924,0.88 0,1.023 1.067,1.463 2.145,1.518 V 1.551 C 3.421,0.814 2.937,0.198 2.2,0.198 Z"
                 id="path42" />
            </g>
          </g>
        </g>
      </g>
      <defs
         id="id-d40d7628-85f8-4437-8979-fc27be8b7e3e">
        <symbol
           id="id-cf91da58-8941-4bef-a70c-315cffcee106"
           overflow="visible">
          <path
             d="M 6.413,0.033 7.887,0 V 0.429 H 7.645 C 7.37,0.429 7.183,0.44 7.106,0.462 6.941,0.517 6.831,0.638 6.765,0.825 L 4.411,7.634 C 4.367,7.777 4.29,7.876 4.125,7.876 3.9819999,7.876 3.883,7.799 3.828,7.634 L 1.573,1.122 C 1.419,0.671 1.012,0.429 0.352,0.41799998 V 0 L 1.507,0.033 2.794,0 v 0.429 c -0.5390001,0 -0.814,0.165 -0.814,0.506 0,0.077 0.011,0.121 0.022,0.143 L 2.497,2.475 H 5.115 L 5.676,0.847 C 5.698,0.781 5.709,0.737 5.709,0.704 5.709,0.517 5.412,0.429 4.807,0.429 V 0 C 5.269,0.033 5.808,0.044 6.413,0.033 Z M 3.795,6.259 4.961,2.904 H 2.6399999 Z"
             id="path45" />
        </symbol>
        <symbol
           id="id-8499e7b7-dfb3-43b1-87e0-ab4bad9ce214"
           overflow="visible">
          <path
             d="m 2.321,6.5889997 c 0.154,0 0.374,-0.088 0.671,-0.2639997 0.297,-0.176 0.539,-0.264 0.704,-0.264 0.253,0 0.495,0.121 0.726,0.352 0.088,0.088 0.253,0.264 0.506,0.539 L 4.697,7.183 4.5429997,7.018 C 4.312,6.765 4.07,6.644 3.806,6.644 3.6629999,6.644 3.432,6.732 3.124,6.908 2.816,7.084 2.585,7.161 2.431,7.161 2.178,7.161 1.936,7.04 1.705,6.809 1.617,6.721 1.452,6.545 1.199,6.27 L 1.441,6.039 c 0.22,0.275 0.495,0.5499997 0.88,0.5499997 z M 3.454,4.565 c 0.495,0 0.748,-0.385 0.748,-1.166 V 0.869 C 4.202,0.65999997 4.169,0.528 4.092,0.484 4.015,0.44 3.773,0.429 3.366,0.429 V 0 L 4.631,0.033 5.8849998,0 V 0.429 C 5.533,0.429 5.302,0.44 5.192,0.473 5.082,0.506 5.038,0.583 5.038,0.704 V 2.783 C 5.038,3.3 5.027,3.6629999 4.994,3.872 4.884,4.554 4.389,4.895 3.52,4.895 2.827,4.895 2.31,4.565 1.969,3.894 V 4.895 L 0.352,4.763 V 4.345 C 0.748,4.345 0.99,4.312 1.078,4.246 1.166,4.18 1.199,4.037 1.199,3.784 V 0.869 C 1.199,0.65999997 1.155,0.528 1.078,0.484 1.001,0.44 0.759,0.429 0.352,0.429 V 0 L 1.617,0.033 2.871,0 V 0.429 C 2.464,0.429 2.233,0.44 2.156,0.484 2.079,0.528 2.035,0.65999997 2.035,0.869 v 2.002 c 0,0.891 0.561,1.694 1.419,1.694 z"
             id="path46" />
        </symbol>
        <symbol
           id="id-085b0c47-c6a5-441c-a72e-246f89dfb810"
           overflow="visible">
          <path
             d="m 2.739,-0.121 c 0.682,0 1.254,0.242 1.727,0.726 C 4.939,1.089 5.1809998,1.6719999 5.1809998,2.354 5.1809998,3.047 4.95,3.652 4.488,4.158 4.026,4.664 3.443,4.928 2.75,4.928 2.057,4.928 1.485,4.664 1.012,4.158 0.539,3.652 0.308,3.047 0.308,2.354 0.308,1.6719999 0.539,1.089 1.012,0.605 1.485,0.121 2.068,-0.121 2.739,-0.121 Z M 2.75,0.231 C 2.222,0.231 1.826,0.462 1.551,0.935 1.375,1.243 1.287,1.749 1.287,2.442 1.287,3.113 1.375,3.597 1.54,3.905 1.804,4.378 2.2,4.609 2.739,4.609 3.256,4.609 3.652,4.378 3.927,3.927 4.114,3.619 4.202,3.124 4.202,2.442 4.202,1.166 3.828,0.231 2.75,0.231 Z"
             id="path47" />
        </symbol>
        <symbol
           id="id-7cadd953-fea9-44e8-be14-0812fb8933ec"
           overflow="visible">
          <path
             d="M 3.96,1.43 C 3.96,2.266 3.388,2.794 2.2549999,3.014 1.738,3.113 1.408,3.234 1.232,3.355 1.056,3.476 0.968,3.652 0.968,3.861 c 0,0.517 0.385,0.77 1.155,0.77 0.748,0 1.1549999,-0.418 1.21,-1.265 0.011,-0.088 0.066,-0.132 0.176,-0.132 0.1209999,0 0.187,0.099 0.187,0.297 V 4.62 C 3.696,4.829 3.641,4.928 3.531,4.928 3.41,4.928 3.245,4.73 3.135,4.642 2.86,4.829 2.519,4.928 2.123,4.928 1.144,4.928 0.363,4.488 0.363,3.553 0.363,3.179 0.517,2.86 0.83599997,2.6069999 1.221,2.288 1.584,2.222 2.277,2.101 2.992,1.958 3.355,1.6389999 3.355,1.144 3.355,0.517 2.97,0.198 2.189,0.198 1.43,0.198 0.946,0.704 0.737,1.705 0.704,1.848 0.649,1.925 0.55,1.925 0.429,1.925 0.363,1.8149999 0.363,1.606 V 0.187 c 0,-0.209 0.055,-0.308 0.165,-0.308 0.033,0 0.088,0.033 0.176,0.11 0.198,0.17599999 0.11,0.143 0.308,0.34099998 C 1.331,0.033 1.727,-0.121 2.189,-0.121 c 1.045,0 1.771,0.53899998 1.771,1.551 z"
             id="path48" />
        </symbol>
        <symbol
           id="id-da390ce0-c872-4ad2-ac64-57ed97ff7562"
           overflow="visible">
          <path
             d="M 4.114,-0.121 5.797,0 v 0.41799998 c -0.396,0 -0.627,0.022 -0.715,0.088 C 4.994,0.572 4.95,0.737 4.95,0.99 V 7.634 L 3.3109999,7.513 V 7.095 C 3.696,7.095 3.938,7.062 4.026,6.996 4.114,6.93 4.147,6.776 4.147,6.523 V 4.29 C 3.795,4.697 3.355,4.895 2.827,4.895 2.145,4.895 1.562,4.653 1.089,4.158 0.616,3.6629999 0.374,3.069 0.374,2.376 c 0,-0.671 0.22,-1.254 0.671,-1.749 0.451,-0.495 1.001,-0.748 1.672,-0.748 0.5609999,0 1.034,0.209 1.397,0.638 z M 2.871,4.565 c 0.4729999,0 0.858,-0.209 1.133,-0.627 0.077,-0.121 0.11,-0.242 0.11,-0.385 V 1.331 C 4.114,1.188 4.081,1.067 4.004,0.946 3.696,0.451 3.2779999,0.20899999 2.761,0.20899999 2.31,0.20899999 1.947,0.429 1.661,0.88 1.4629999,1.21 1.364,1.705 1.364,2.365 c 0,1.199 0.407,2.2 1.507,2.2 z"
             id="path49" />
        </symbol>
        <symbol
           id="id-9c3a9bf1-948a-4f46-9ce0-f10f451a01db"
           overflow="visible">
          <path
             d="m 4.565,2.761 c 0,1.265 -0.737,2.167 -1.969,2.167 -0.66,0 -1.21,-0.253 -1.661,-0.77 C 0.517,3.674 0.308,3.091 0.308,2.42 c 0,-0.693 0.231,-1.276 0.693,-1.782 0.4619999,-0.506 1.034,-0.759 1.716,-0.759 0.6269999,0 1.111,0.22 1.441,0.649 0.275,0.363 0.407,0.627 0.407,0.803 0,0.11 -0.066,0.165 -0.187,0.165 C 4.29,1.496 4.235,1.441 4.202,1.3199999 3.96,0.594 3.487,0.231 2.783,0.231 2.288,0.231 1.903,0.462 1.606,0.935 1.397,1.276 1.298,1.793 1.287,2.497 h 2.97 c 0.242,0 0.308,0.022 0.308,0.264 z M 3.586,3.839 C 3.707,3.476 3.762,3.124 3.762,2.805 H 1.298 c 0.033,0.726 0.22,1.221 0.55,1.474 0.275,0.22 0.517,0.33 0.748,0.33 0.495,0 0.825,-0.253 0.99,-0.77 z"
             id="path50" />
        </symbol>
        <symbol
           id="id-1fe66ab3-4ab0-4e90-b2e3-aada39e7cb39"
           overflow="visible">
          <path
             d="m 2.761,4.576 c 0.462,0 0.814,-0.11 1.056,-0.33 C 3.553,4.213 3.366,3.971 3.366,3.718 c 0,-0.363 0.176,-0.539 0.539,-0.539 0.363,0 0.539,0.187 0.539,0.55 0,0.7809998 -0.847,1.199 -1.694,1.199 C 2.068,4.928 1.507,4.686 1.056,4.18 0.605,3.674 0.374,3.069 0.374,2.376 c 0,-0.671 0.231,-1.265 0.682,-1.76 0.451,-0.495 1.001,-0.737 1.672,-0.737 0.5499999,0 0.979,0.154 1.287,0.473 0.253,0.253 0.418,0.506 0.506,0.77 0.033,0.099 0.044,0.165 0.044,0.209 0,0.099 -0.066,0.143 -0.187,0.143 C 4.29,1.474 4.235,1.43 4.202,1.342 3.971,0.605 3.52,0.231 2.827,0.231 2.508,0.231 2.2,0.374 1.892,0.671 1.529,1.012 1.353,1.584 1.353,2.398 c 0,1.1 0.418,2.178 1.408,2.178 z"
             id="path51" />
        </symbol>
        <symbol
           id="id-4fee23e0-5048-4da5-ae32-1efd13c23cbc"
           overflow="visible">
          <path
             d="m 3.454,4.565 c 0.495,0 0.748,-0.385 0.748,-1.166 V 0.869 C 4.202,0.65999997 4.169,0.528 4.092,0.484 4.015,0.44 3.773,0.429 3.366,0.429 V 0 L 4.631,0.033 5.8849998,0 V 0.429 C 5.533,0.429 5.302,0.44 5.192,0.473 5.082,0.506 5.038,0.583 5.038,0.704 v 2.079 c 0,0.5279999 -0.011,0.891 -0.044,1.1 C 4.884,4.554 4.389,4.895 3.52,4.895 2.849,4.895 2.343,4.587 2.002,3.971 V 7.634 L 0.352,7.513 V 7.095 C 0.748,7.095 0.99,7.062 1.078,6.996 1.166,6.93 1.199,6.776 1.199,6.523 V 0.869 C 1.199,0.65999997 1.155,0.528 1.078,0.484 1.001,0.44 0.759,0.429 0.352,0.429 V 0 L 1.617,0.033 2.871,0 V 0.429 C 2.464,0.429 2.233,0.44 2.156,0.484 2.079,0.528 2.035,0.65999997 2.035,0.869 v 2.002 c 0,0.891 0.561,1.694 1.419,1.694 z"
             id="path52" />
        </symbol>
        <symbol
           id="id-c6e405f1-c84f-4fee-9c61-919d2909dfac"
           overflow="visible">
          <path
             d="M 5.313,1.001 V 1.65 H 4.961 V 1.001 C 4.961,0.572 4.84,0.352 4.609,0.352 4.389,0.352 4.257,0.627 4.257,0.847 V 3.014 C 4.257,3.399 4.213,3.685 4.136,3.883 3.872,4.532 3.113,4.928 2.343,4.928 1.496,4.928 0.65999997,4.455 0.65999997,3.6629999 0.65999997,3.3 0.847,3.113 1.21,3.113 c 0.363,0 0.539,0.176 0.539,0.539 0,0.319 -0.165,0.506 -0.506,0.539 0.242,0.275 0.605,0.418 1.078,0.418 0.682,0 1.1,-0.6270001 1.1,-1.342 V 2.904 C 2.563,2.849 1.914,2.717 1.4629999,2.508 0.726,2.167 0.352,1.694 0.352,1.067 c 0,-0.286 0.11,-0.528 0.319,-0.715 0.352,-0.319 0.836,-0.473 1.452,-0.473 0.649,0 1.111,0.275 1.397,0.836 0.077,-0.418 0.385,-0.781 0.858,-0.781 0.583,0 0.935,0.462 0.935,1.067 z M 2.2,0.198 c -0.506,0 -0.924,0.374 -0.924,0.88 0,1.023 1.067,1.463 2.145,1.518 V 1.551 C 3.421,0.814 2.937,0.198 2.2,0.198 Z"
             id="path53" />
        </symbol>
      </defs>
    </g>
    <circle
       style="fill:#0000ff;stroke-width:0.264999;stroke-miterlimit:3.7;stroke-dasharray:none"
       id="path54"
       cx="69.482849"
       cy="164.57178"
       r="0.88296872" />
    <circle
       style="fill:#0000ff;stroke-width:0.264999;stroke-miterlimit:3.7;stroke-dasharray:none"
       id="path54-8"
       cx="74.855576"
       cy="157.36201"
       r="0.88296872" />
    <circle
       style="fill:#0000ff;stroke-width:0.264999;stroke-miterlimit:3.7;stroke-dasharray:none"
       id="path54-8-5"
       cx="80.564194"
       cy="160.24733"
       r="0.88296872" />
    <circle
       style="fill:#0000ff;stroke-width:0.264999;stroke-miterlimit:3.7;stroke-dasharray:none"
       id="path54-8-5-1"
       cx="80.344116"
       cy="151.03238"
       r="0.88296872" />
    <circle
       style="fill:#0000ff;stroke-width:0.264999;stroke-miterlimit:3.7;stroke-dasharray:none"
       id="path54-8-5-1-7-2"
       cx="67.945145"
       cy="149.73499"
       r="0.88296872" />
    <circle
       style="fill:#0000ff;stroke-width:0.264999;stroke-miterlimit:3.7;stroke-dasharray:none"
       id="path54-8-5-1-7-2-1"
       cx="77.75412"
       cy="137.53056"
       r="0.88296872" />
    <circle
       style="fill:#0000ff;stroke-width:0.264999;stroke-miterlimit:3.7;stroke-dasharray:none"
       id="path54-8-5-1-7-2-1-7"
       cx="69.340012"
       cy="135.63493"
       r="0.88296872" />
    <circle
       style="fill:#0000ff;stroke-width:0.264999;stroke-miterlimit:3.7;stroke-dasharray:none"
       id="path54-8-5-1-7-2-1-9"
       cx="74.9076"
       cy="127.13371"
       r="0.88296872" />
    <circle
       style="fill:#0000ff;stroke-width:0.264999;stroke-miterlimit:3.7;stroke-dasharray:none"
       id="path54-8-5-1-7-2-1-5"
       cx="85.126007"
       cy="140.40877"
       r="0.88296872" />
    <circle
       style="fill:#0000ff;stroke-width:0.264999;stroke-miterlimit:3.7;stroke-dasharray:none"
       id="path54-8-5-1-7-2-1-2"
       cx="88.666885"
       cy="148.46176"
       r="0.88296872" />
    <circle
       style="fill:#0000ff;stroke-width:0.264999;stroke-miterlimit:3.7;stroke-dasharray:none"
       id="path54-8-5-1-7-2-1-1"
       cx="91.413063"
       cy="155.39157"
       r="0.88296872" />
    <circle
       style="fill:#0000ff;stroke-width:0.264999;stroke-miterlimit:3.7;stroke-dasharray:none"
       id="path54-8-5-1-7-2-1-74"
       cx="88.489403"
       cy="164.4371"
       r="0.88296872" />
    <circle
       style="fill:#0000ff;stroke-width:0.264999;stroke-miterlimit:3.7;stroke-dasharray:none"
       id="path54-8-5-1-7-2-1-93"
       cx="85.764519"
       cy="131.06464"
       r="0.88296872" />
    <circle
       style="fill:#0000ff;stroke-width:0.264999;stroke-miterlimit:3.7;stroke-dasharray:none"
       id="path54-8-5-1-7-2-1-6"
       cx="94.243484"
       cy="137.55609"
       r="0.88296872" />
    <circle
       style="fill:#0000ff;stroke-width:0.264999;stroke-miterlimit:3.7;stroke-dasharray:none"
       id="path54-8-5-1-7-2-1-8"
       cx="101.1804"
       cy="148.67569"
       r="0.88296872" />
    <circle
       style="fill:#0000ff;stroke-width:0.264999;stroke-miterlimit:3.7;stroke-dasharray:none"
       id="path54-8-5-1-7-2-1-4"
       cx="100.85287"
       cy="158.75212"
       r="0.88296872" />
    <circle
       style="fill:#0000ff;stroke-width:0.264999;stroke-miterlimit:3.7;stroke-dasharray:none"
       id="path54-8-5-1-7-2-1-0"
       cx="82.56398"
       cy="123.51336"
       r="0.88296872" />
    <circle
       style="fill:#0000ff;stroke-width:0.264999;stroke-miterlimit:3.7;stroke-dasharray:none"
       id="path54-8-5-1-7-2-1-61"
       cx="74.896255"
       cy="114.47631"
       r="0.88296872" />
    <circle
       style="fill:#0000ff;stroke-width:0.264999;stroke-miterlimit:3.7;stroke-dasharray:none"
       id="path54-8-5-1-7-2-1-3"
       cx="85.683571"
       cy="115.64729"
       r="0.88296872" />
    <circle
       style="fill:#0000ff;stroke-width:0.264999;stroke-miterlimit:3.7;stroke-dasharray:none"
       id="path54-8-5-1-7-2-1-06"
       cx="91.584404"
       cy="123.71256"
       r="0.88296872" />
    <path
       style="fill:none;stroke:#ff0000;stroke-width:0.264583px;stroke-linecap:butt;stroke-linejoin:miter;stroke-dasharray:1.5875, 1.5875;stroke-dashoffset:0;stroke-opacity:1"
       d="m 76.478674,146.70865 v 7.8788"
       id="path56" />
    <path
       style="fill:none;stroke:#ff0000;stroke-width:0.348154px;stroke-linecap:butt;stroke-linejoin:miter;stroke-dasharray:2.08893, 2.08893;stroke-dashoffset:0;stroke-opacity:1"
       d="m 99.865603,131.379 v 13.64206"
       id="path56-9" />
    <path
       style="fill:none;stroke:#ff0000;stroke-width:0.264583px;stroke-linecap:butt;stroke-linejoin:miter;stroke-dasharray:1.5875, 1.5875;stroke-dashoffset:0;stroke-opacity:1"
       d="m 121.56908,136.44999 v 7.8788"
       id="path56-5" />
    <path
       style="fill:none;stroke:#ff0000;stroke-width:0.316705px;stroke-linecap:butt;stroke-linejoin:miter;stroke-dasharray:1.90023, 1.90023;stroke-dashoffset:0;stroke-opacity:1"
       d="m 138.48502,117.33602 v 11.28873"
       id="path56-7" />
    <circle
       style="fill:#0000ff;stroke-width:0.264999;stroke-miterlimit:3.7;stroke-dasharray:none"
       id="path54-8-5-1-7-2-1-49"
       cx="96.789925"
       cy="118.46636"
       r="0.88296872" />
    <circle
       style="fill:#0000ff;stroke-width:0.264999;stroke-miterlimit:3.7;stroke-dasharray:none"
       id="path54-8-5-1-7-2-1-88"
       cx="99.893929"
       cy="130.66177"
       r="0.88296872" />
    <circle
       style="fill:#0000ff;stroke-width:0.264999;stroke-miterlimit:3.7;stroke-dasharray:none"
       id="path54-8-5-1-7-2-1-35"
       cx="106.07874"
       cy="140.0235"
       r="0.88296872" />
    <circle
       style="fill:#0000ff;stroke-width:0.264999;stroke-miterlimit:3.7;stroke-dasharray:none"
       id="path54-8-5-1-7-2-1-07"
       cx="112.39325"
       cy="146.63193"
       r="0.88296872" />
    <circle
       style="fill:#0000ff;stroke-width:0.264999;stroke-miterlimit:3.7;stroke-dasharray:none"
       id="path54-8-5-1-7-2-1-15"
       cx="111.53654"
       cy="155.04085"
       r="0.88296872" />
    <circle
       style="fill:#0000ff;stroke-width:0.264999;stroke-miterlimit:3.7;stroke-dasharray:none"
       id="path54-8-5-1-7-2-1-97"
       cx="111.23551"
       cy="163.92213"
       r="0.88296872" />
    <circle
       style="fill:#0000ff;stroke-width:0.264999;stroke-miterlimit:3.7;stroke-dasharray:none"
       id="path54-8-5-1-7-2-1-60"
       cx="109.01946"
       cy="122.25625"
       r="0.88296872"
       inkscape:transform-center-x="0.81504805"
       inkscape:transform-center-y="48.359518" />
    <circle
       style="fill:#0000ff;stroke-width:0.264999;stroke-miterlimit:3.7;stroke-dasharray:none"
       id="path54-8-5-1-7"
       cx="76.476845"
       cy="146.99072"
       r="0.88296872" />
    <circle
       style="fill:#0000ff;stroke-width:0.264999;stroke-miterlimit:3.7;stroke-dasharray:none"
       id="path54-8-5-1-7-2-1-75"
       cx="113.71616"
       cy="-129.39757"
       r="0.88296872"
       transform="scale(1,-1)" />
    <circle
       style="fill:#0000ff;stroke-width:0.264999;stroke-miterlimit:3.7;stroke-dasharray:none"
       id="path54-8-5-1-7-2-1-00"
       cx="116.29099"
       cy="137.4283"
       r="0.88296872" />
    <circle
       style="fill:#0000ff;stroke-width:0.264999;stroke-miterlimit:3.7;stroke-dasharray:none"
       id="path54-8-5-1-7-2-1-071"
       cx="111.07223"
       cy="113.76447"
       r="0.88296872" />
    <circle
       style="fill:#0000ff;stroke-width:0.264999;stroke-miterlimit:3.7;stroke-dasharray:none"
       id="path54-8-5-1-7-2-1-73"
       cx="120.45143"
       cy="118.3854"
       r="0.88296872" />
    <circle
       style="fill:#0000ff;stroke-width:0.264999;stroke-miterlimit:3.7;stroke-dasharray:none"
       id="path54-8-5-1-7-2-1-98"
       cx="122.41286"
       cy="127.71682"
       r="0.88296872" />
    <circle
       style="fill:#0000ff;stroke-width:0.264999;stroke-miterlimit:3.7;stroke-dasharray:none"
       id="path54-8-5-1-7-2-1-66"
       cx="124.17881"
       cy="134.76208"
       r="0.88296872" />
    <circle
       style="fill:#0000ff;stroke-width:0.264999;stroke-miterlimit:3.7;stroke-dasharray:none"
       id="path54-8-5-1-7-2-1-01"
       cx="121.53297"
       cy="145.34528"
       r="0.88296872" />
    <circle
       style="fill:#0000ff;stroke-width:0.264999;stroke-miterlimit:3.7;stroke-dasharray:none"
       id="path54-8-5-1-7-2-1-94"
       cx="123.12047"
       cy="152.22435"
       r="0.88296872" />
    <circle
       style="fill:#0000ff;stroke-width:0.264999;stroke-miterlimit:3.7;stroke-dasharray:none"
       id="path54-8-5-1-7-2-1-51"
       cx="118.88715"
       cy="158.57426"
       r="0.88296872" />
    <circle
       style="fill:#0000ff;stroke-width:0.264999;stroke-miterlimit:3.7;stroke-dasharray:none"
       id="path54-8-5-1-7-2-1-64"
       cx="129.99962"
       cy="130.52881"
       r="0.88296872" />
    <circle
       style="fill:#0000ff;stroke-width:0.264999;stroke-miterlimit:3.7;stroke-dasharray:none"
       id="path54-8-5-1-7-2-1-89"
       cx="129.47046"
       cy="123.12051"
       r="0.88296872" />
    <circle
       style="fill:#0000ff;stroke-width:0.264999;stroke-miterlimit:3.7;stroke-dasharray:none"
       id="path54-8-5-1-7-2-1-43"
       cx="137.40785"
       cy="134.23293"
       r="0.88296872" />
    <circle
       style="fill:#0000ff;stroke-width:0.264999;stroke-miterlimit:3.7;stroke-dasharray:none"
       id="path54-8-5-1-7-2-1-08"
       cx="130.52878"
       cy="140.58284"
       r="0.88296872" />
    <circle
       style="fill:#0000ff;stroke-width:0.264999;stroke-miterlimit:3.7;stroke-dasharray:none"
       id="path54-8-5-1-7-2-1-38"
       cx="134.23289"
       cy="149.04942"
       r="0.88296872" />
    <circle
       style="fill:#0000ff;stroke-width:0.264999;stroke-miterlimit:3.7;stroke-dasharray:none"
       id="path54-8-5-1-7-2-1-073"
       cx="134.76205"
       cy="158.5743"
       r="0.88296872" />
    <circle
       style="fill:#0000ff;stroke-width:0.264999;stroke-miterlimit:3.7;stroke-dasharray:none"
       id="path54-8-5-1-7-2-1-510"
       cx="126.82463"
       cy="165.45337"
       r="0.88296872" />
    <circle
       style="fill:#0000ff;stroke-width:0.264999;stroke-miterlimit:3.7;stroke-dasharray:none"
       id="path54-8-5-1-7-2-1-83"
       cx="138.46617"
       cy="116.24139"
       r="0.88296872" />
    <path
       style="fill:none;stroke:#ff0000;stroke-width:0.565;stroke-linecap:butt;stroke-linejoin:miter;stroke-dasharray:none;stroke-opacity:1"
       d="M 66.018891,159.07021 142.36173,127.41918"
       id="path55" />
    <g
       transform="matrix(0.31420176,0,0,0.31420176,117.3117,98.109586)"
       ns6:version="1.11.1"
       ns6:texconverter="typst"
       ns6:pdfconverter="inkscape"
       ns6:text="$abs(Y_&quot;real&quot; - Y_&quot;pred&quot;)$"
       ns6:preamble="C:\Users\max02\AppData\Roaming\inkscape\extensions\textext\default_preamble_typst.typ"
       ns6:scale="1.1133818697437055"
       ns6:alignment="middle center"
       ns6:jacobian_sqrt="0.392777"
       id="g95"
       style="fill:#ff0000;fill-opacity:1">
      <g
         id="g87"
         style="fill:#ff0000;fill-opacity:1"
         transform="translate(6.736648)">
        <g
           transform="translate(70.8661,70.8661)"
           id="g86"
           style="fill:#ff0000;fill-opacity:1">
          <g
             class="typst-group"
             id="g85"
             style="fill:#ff0000;fill-opacity:1">
            <g
               id="g84"
               style="fill:#ff0000;fill-opacity:1">
              <g
                 transform="translate(0,7.513)"
                 id="g59"
                 style="fill:#ff0000;fill-opacity:1">
                <g
                   class="typst-text"
                   transform="scale(1,-1)"
                   id="g58"
                   style="fill:#ff0000;fill-opacity:1">
                  <g
                     id="g57"
                     style="fill:#ff0000;fill-opacity:1">
                    <path
                       d="m 1.595,-3.454 c 0,-0.1759999 0,-0.407 0.231,-0.407 0.242,0 0.253,0.22 0.253,0.407 V 8.9539995 C 2.079,9.13 2.068,9.361 1.837,9.361 1.595,9.361 1.595,9.141 1.595,8.9539995 Z"
                       id="path57"
                       style="fill:#ff0000;fill-opacity:1" />
                  </g>
                </g>
              </g>
              <g
                 transform="translate(3.663,7.513)"
                 id="g62"
                 style="fill:#ff0000;fill-opacity:1">
                <g
                   class="typst-text"
                   transform="scale(1,-1)"
                   id="g61"
                   style="fill:#ff0000;fill-opacity:1">
                  <g
                     id="g60"
                     style="fill:#ff0000;fill-opacity:1">
                    <path
                       d="M 7.304,7.48 C 7.106,7.48 6.424,7.513 6.215,7.513 6.05,7.513 5.962,7.425 5.962,7.2599998 5.962,7.139 6.028,7.084 6.171,7.084 6.402,7.084 6.523,7.018 6.523,6.886 6.523,6.765 6.424,6.6 6.237,6.391 L 3.762,3.542 2.596,6.699 C 2.563,6.787 2.541,6.842 2.53,6.875 c 0,0.143 0.198,0.209 0.594,0.209 0.209,0 0.308,0.088 0.308,0.264 0,0.11 -0.066,0.165 -0.209,0.165 L 1.848,7.48 C 1.606,7.48 0.83599997,7.513 0.638,7.513 0.473,7.513 0.385,7.425 0.385,7.249 0.385,7.139 0.484,7.084 0.682,7.084 0.88,7.084 1.045,7.062 1.144,7.04 1.353,6.985 1.364,6.952 1.43,6.743 L 2.772,3.168 C 2.805,3.091 2.816,3.036 2.816,3.003 L 2.585,2.09 C 2.453,1.529 2.365,1.177 2.321,1.034 2.244,0.737 2.167,0.561 2.09,0.506 2.013,0.451 1.76,0.429 1.342,0.429 1.1,0.41799998 1.001,0.407 1.001,0.16499999 1.001,0.055 1.067,0 1.199,0 L 2.574,0.033 3.96,0 C 4.125,-0.011 4.213,0.077 4.213,0.264 4.213,0.341 4.18,0.396 4.125,0.407 4.015,0.418 3.927,0.429 3.872,0.429 3.509,0.44 3.289,0.462 3.234,0.495 3.212,0.506 3.201,0.528 3.201,0.572 c 0,0.044 0.055,0.275 0.154,0.682 L 3.74,2.783 C 3.773,2.9259999 3.817,3.036 3.883,3.102 L 6.578,6.204 6.721,6.347 C 7.007,6.633 7.271,6.831 7.502,6.93 7.689,7.018 7.898,7.073 8.129,7.084 8.327,7.106 8.382,7.161 8.382,7.337 8.382,7.458 8.316,7.513 8.195,7.513 8.03,7.513 7.469,7.48 7.304,7.48 Z"
                       id="path59"
                       style="fill:#ff0000;fill-opacity:1" />
                  </g>
                </g>
              </g>
              <g
                 transform="translate(9.174,10.23)"
                 id="g68"
                 style="fill:#ff0000;fill-opacity:1">
                <g
                   class="typst-text"
                   transform="scale(1,-1)"
                   id="g67"
                   style="fill:#ff0000;fill-opacity:1">
                  <g
                     id="g63"
                     style="fill:#ff0000;fill-opacity:1">
                    <path
                       d="m 2.8028,2.9106 c 0,0.3003 -0.2849,0.4928 -0.5852001,0.4928 C 1.8249,3.4034 1.5246,3.1724 1.3244,2.7027 V 3.4034 L 0.2156,3.3187 V 3.0261 C 0.4851,3.0261 0.6468,3.003 0.7084,2.9568 0.77,2.9106 0.8008,2.8105 0.8008,2.6334 V 0.6083 C 0.8008,0.462 0.7777,0.3696 0.7238,0.3388 0.6699,0.308 0.5005,0.2926 0.2156,0.2926 V 0 L 1.1011,0.0231 C 1.4245,0.0308 1.7556,0.0231 2.0867,0 V 0.2926 H 1.9018999 C 1.6478,0.2926 1.4861,0.3157 1.4322,0.3542 1.3783,0.3927 1.3552,0.4851 1.3552,0.6237 v 1.1627 c 0,0.3311 0.0616,0.6314 0.1771,0.8855 0.154,0.3311 0.3773,0.5005 0.6776,0.5082 -0.077,-0.077 -0.1155,-0.1694 -0.1155,-0.2772 0,-0.2387 0.1155,-0.3542 0.3542,-0.3542 0.2079,0 0.3542,0.1617 0.3542,0.3619 z"
                       id="path62"
                       style="fill:#ff0000;fill-opacity:1" />
                  </g>
                  <g
                     transform="translate(3.0184)"
                     id="g64"
                     style="fill:#ff0000;fill-opacity:1">
                    <path
                       d="m 3.1955,1.9327 c 0,0.8854999 -0.5159,1.5169 -1.3783,1.5169 -0.462,0 -0.847,-0.1771 -1.1627,-0.539 C 0.3619,2.5718 0.2156,2.1637 0.2156,1.694 0.2156,1.2089 0.3773,0.80079997 0.7007,0.4466 1.0241,0.0924 1.4245,-0.0847 1.9018999,-0.0847 2.3408,-0.0847 2.6796,0.0693 2.9106,0.3696 3.1031,0.6237 3.1955,0.8085 3.1955,0.9317 3.1955,1.0087 3.1493,1.0472 3.0646,1.0472 3.003,1.0472 2.9645,1.0087 2.9414,0.924 2.772,0.4158 2.4409,0.1617 1.9481,0.1617 1.6015999,0.1617 1.3321,0.3234 1.1242,0.6545 0.97789997,0.8932 0.9086,1.2551 0.9009,1.7479 h 2.079 c 0.1694,0 0.2156,0.0154 0.2156,0.1848 z M 2.5102,2.6873 C 2.5949,2.4332 2.6334,2.1868 2.6334,1.9635 H 0.9086 c 0.0231,0.5082 0.154,0.8546999 0.385,1.0318 0.1925,0.154 0.3618999,0.231 0.5236,0.231 0.3465,0 0.5775,-0.1771 0.693,-0.539 z"
                       id="path63"
                       style="fill:#ff0000;fill-opacity:1" />
                  </g>
                  <g
                     transform="translate(6.4372)"
                     id="g65"
                     style="fill:#ff0000;fill-opacity:1">
                    <path
                       d="M 3.7191,0.7007 V 1.155 H 3.4726999 V 0.7007 c 0,-0.30030002 -0.0847,-0.4543 -0.2463999,-0.4543 -0.154,0 -0.2464,0.1925 -0.2464,0.3465 v 1.5169 c 0,0.2694999 -0.0308,0.4697 -0.0847,0.6083 C 2.7104,3.1724 2.1791,3.4496 1.6401,3.4496 1.0472,3.4496 0.462,3.1185 0.462,2.5641 c 0,-0.2541 0.1309,-0.385 0.385,-0.385 0.2541,0 0.3773,0.1232 0.3773,0.3773 0,0.2233 -0.1155001,0.3542 -0.3542,0.3773 0.1694,0.1925 0.4235,0.2926 0.7546,0.2926 0.4774,0 0.77,-0.4389 0.77,-0.9394 V 2.0328 C 1.7941,1.9943 1.3398,1.9018999 1.0241,1.7556 0.5082,1.5169 0.2464,1.1858 0.2464,0.7469 c 0,-0.2002 0.077,-0.3696 0.2233,-0.5005 0.2464,-0.2233 0.5852,-0.3311 1.0164,-0.3311 0.4543,0 0.7777,0.1925 0.9779,0.5852 0.0539,-0.2926 0.2695,-0.5467 0.6006,-0.5467 0.4080999,0 0.6545,0.32339998 0.6545,0.7469 z M 1.54,0.13859999 c -0.3542,0 -0.6468,0.26179999 -0.6468,0.61600001 0,0.7161 0.7469,1.0241 1.5015,1.0626 V 1.0857 C 2.3947,0.5698 2.0559,0.13859999 1.54,0.13859999 Z"
                       id="path64"
                       style="fill:#ff0000;fill-opacity:1" />
                  </g>
                  <g
                     transform="translate(10.2872)"
                     id="g66"
                     style="fill:#ff0000;fill-opacity:1">
                    <path
                       d="M 1.1087999,0.0231 1.9635,0 V 0.3003 C 1.6863,0.3003 1.5169,0.308 1.4629999,0.3388 1.4090999,0.3696 1.386,0.462 1.386,0.6083 V 5.3438 L 0.2541,5.2591 V 4.9665 C 0.5236,4.9665 0.693,4.9434 0.7469,4.8972 0.8008,4.851 0.8316,4.7432 0.8316,4.5661 V 0.6083 C 0.8316,0.462 0.8085,0.3696 0.7546,0.3388 0.7007,0.308 0.5313,0.3003 0.2541,0.3003 V 0 Z"
                       id="path65"
                       style="fill:#ff0000;fill-opacity:1" />
                  </g>
                </g>
              </g>
              <g
                 transform="translate(24.6622,7.513)"
                 id="g71"
                 style="fill:#ff0000;fill-opacity:1">
                <g
                   class="typst-text"
                   transform="scale(1,-1)"
                   id="g70"
                   style="fill:#ff0000;fill-opacity:1">
                  <g
                     id="g69"
                     style="fill:#ff0000;fill-opacity:1">
                    <path
                       d="M 7.678,2.97 H 0.88 C 0.704,2.97 0.616,2.893 0.616,2.75 0.616,2.6069999 0.704,2.53 0.88,2.53 h 6.798 c 0.176,0 0.264,0.077 0.264,0.22 0,0.132 -0.132,0.22 -0.264,0.22 z"
                       id="path68"
                       style="fill:#ff0000;fill-opacity:1" />
                  </g>
                </g>
              </g>
              <g
                 transform="translate(35.6647,7.513)"
                 id="g74"
                 style="fill:#ff0000;fill-opacity:1">
                <g
                   class="typst-text"
                   transform="scale(1,-1)"
                   id="g73"
                   style="fill:#ff0000;fill-opacity:1">
                  <g
                     id="g72"
                     style="fill:#ff0000;fill-opacity:1">
                    <path
                       d="M 7.304,7.48 C 7.106,7.48 6.424,7.513 6.215,7.513 6.05,7.513 5.962,7.425 5.962,7.2599998 5.962,7.139 6.028,7.084 6.171,7.084 6.402,7.084 6.523,7.018 6.523,6.886 6.523,6.765 6.424,6.6 6.237,6.391 L 3.762,3.542 2.596,6.699 C 2.563,6.787 2.541,6.842 2.53,6.875 c 0,0.143 0.198,0.209 0.594,0.209 0.209,0 0.308,0.088 0.308,0.264 0,0.11 -0.066,0.165 -0.209,0.165 L 1.848,7.48 C 1.606,7.48 0.83599997,7.513 0.638,7.513 0.473,7.513 0.385,7.425 0.385,7.249 0.385,7.139 0.484,7.084 0.682,7.084 0.88,7.084 1.045,7.062 1.144,7.04 1.353,6.985 1.364,6.952 1.43,6.743 L 2.772,3.168 C 2.805,3.091 2.816,3.036 2.816,3.003 L 2.585,2.09 C 2.453,1.529 2.365,1.177 2.321,1.034 2.244,0.737 2.167,0.561 2.09,0.506 2.013,0.451 1.76,0.429 1.342,0.429 1.1,0.41799998 1.001,0.407 1.001,0.16499999 1.001,0.055 1.067,0 1.199,0 L 2.574,0.033 3.96,0 C 4.125,-0.011 4.213,0.077 4.213,0.264 4.213,0.341 4.18,0.396 4.125,0.407 4.015,0.418 3.927,0.429 3.872,0.429 3.509,0.44 3.289,0.462 3.234,0.495 3.212,0.506 3.201,0.528 3.201,0.572 c 0,0.044 0.055,0.275 0.154,0.682 L 3.74,2.783 C 3.773,2.9259999 3.817,3.036 3.883,3.102 L 6.578,6.204 6.721,6.347 C 7.007,6.633 7.271,6.831 7.502,6.93 7.689,7.018 7.898,7.073 8.129,7.084 8.327,7.106 8.382,7.161 8.382,7.337 8.382,7.458 8.316,7.513 8.195,7.513 8.03,7.513 7.469,7.48 7.304,7.48 Z"
                       id="path71"
                       style="fill:#ff0000;fill-opacity:1" />
                  </g>
                </g>
              </g>
              <g
                 transform="translate(41.1757,10.23)"
                 id="g80"
                 style="fill:#ff0000;fill-opacity:1">
                <g
                   class="typst-text"
                   transform="scale(1,-1)"
                   id="g79"
                   style="fill:#ff0000;fill-opacity:1">
                  <g
                     id="g75"
                     style="fill:#ff0000;fill-opacity:1">
                    <path
                       d="m 2.2946,-0.1001 c 0.4774,0 0.8855,0.1694 1.2166,0.5159 C 3.8423,0.7623 4.0117,1.1704 4.0117,1.6554999 4.0117,2.1252 3.8576999,2.5256 3.5574,2.8644 3.2417,3.2263 2.8567,3.4034 2.3947,3.4034 2.002,3.4034 1.6632,3.2494 1.3706,2.9491 V 3.4034 L 0.2156,3.3187 V 3.0261 c 0.2849,0 0.4543,-0.0154 0.5082,-0.0539 C 0.7777,2.9337 0.8085,2.8336 0.8085,2.6719 V -0.8855 C 0.8085,-1.0318 0.7777,-1.1242 0.7238,-1.155 0.6699,-1.1858 0.5005,-1.1935 0.2156,-1.1935 v -0.3003 l 0.8778,0.0231 0.8855,-0.0231 v 0.3003 c -0.2849,0 -0.4466,0.0077 -0.5005,0.0385 -0.0539,0.0308 -0.0847,0.1232 -0.0847,0.2695 V 0.3388 C 1.5631,0.1001 1.8942,-0.1001 2.2946,-0.1001 Z M 2.3408,3.1493 C 2.6565,3.1493 2.9029,2.9722 3.0954,2.618 3.2417,2.3177 3.3187,2.002 3.3187,1.6554999 3.3187,1.2936 3.234,0.9625 3.0646,0.6622 2.8644,0.3003 2.5949,0.1232 2.2638,0.1232 1.9404,0.1232 1.6863,0.27719998 1.4938,0.5775 1.4245,0.6776 1.3937,0.7777 1.3937,0.8778 v 1.6863 c 0.2233,0.3927 0.539,0.5852 0.9471,0.5852 z"
                       id="path74"
                       style="fill:#ff0000;fill-opacity:1" />
                  </g>
                  <g
                     transform="translate(4.2812)"
                     id="g76"
                     style="fill:#ff0000;fill-opacity:1">
                    <path
                       d="m 2.8028,2.9106 c 0,0.3003 -0.2849,0.4928 -0.5852001,0.4928 C 1.8249,3.4034 1.5246,3.1724 1.3244,2.7027 V 3.4034 L 0.2156,3.3187 V 3.0261 C 0.4851,3.0261 0.6468,3.003 0.7084,2.9568 0.77,2.9106 0.8008,2.8105 0.8008,2.6334 V 0.6083 C 0.8008,0.462 0.7777,0.3696 0.7238,0.3388 0.6699,0.308 0.5005,0.2926 0.2156,0.2926 V 0 L 1.1011,0.0231 C 1.4245,0.0308 1.7556,0.0231 2.0867,0 V 0.2926 H 1.9018999 C 1.6478,0.2926 1.4861,0.3157 1.4322,0.3542 1.3783,0.3927 1.3552,0.4851 1.3552,0.6237 v 1.1627 c 0,0.3311 0.0616,0.6314 0.1771,0.8855 0.154,0.3311 0.3773,0.5005 0.6776,0.5082 -0.077,-0.077 -0.1155,-0.1694 -0.1155,-0.2772 0,-0.2387 0.1155,-0.3542 0.3542,-0.3542 0.2079,0 0.3542,0.1617 0.3542,0.3619 z"
                       id="path75"
                       style="fill:#ff0000;fill-opacity:1" />
                  </g>
                  <g
                     transform="translate(7.2996)"
                     id="g77"
                     style="fill:#ff0000;fill-opacity:1">
                    <path
                       d="m 3.1955,1.9327 c 0,0.8854999 -0.5159,1.5169 -1.3783,1.5169 -0.462,0 -0.847,-0.1771 -1.1627,-0.539 C 0.3619,2.5718 0.2156,2.1637 0.2156,1.694 0.2156,1.2089 0.3773,0.80079997 0.7007,0.4466 1.0241,0.0924 1.4245,-0.0847 1.9018999,-0.0847 2.3408,-0.0847 2.6796,0.0693 2.9106,0.3696 3.1031,0.6237 3.1955,0.8085 3.1955,0.9317 3.1955,1.0087 3.1493,1.0472 3.0646,1.0472 3.003,1.0472 2.9645,1.0087 2.9414,0.924 2.772,0.4158 2.4409,0.1617 1.9481,0.1617 1.6015999,0.1617 1.3321,0.3234 1.1242,0.6545 0.97789997,0.8932 0.9086,1.2551 0.9009,1.7479 h 2.079 c 0.1694,0 0.2156,0.0154 0.2156,0.1848 z M 2.5102,2.6873 C 2.5949,2.4332 2.6334,2.1868 2.6334,1.9635 H 0.9086 c 0.0231,0.5082 0.154,0.8546999 0.385,1.0318 0.1925,0.154 0.3618999,0.231 0.5236,0.231 0.3465,0 0.5775,-0.1771 0.693,-0.539 z"
                       id="path76"
                       style="fill:#ff0000;fill-opacity:1" />
                  </g>
                  <g
                     transform="translate(10.7184)"
                     id="g78"
                     style="fill:#ff0000;fill-opacity:1">
                    <path
                       d="M 2.8798,-0.0847 4.0579,0 V 0.2926 C 3.7807,0.2926 3.619,0.308 3.5574,0.3542 3.4958,0.40039998 3.465,0.5159 3.465,0.693 V 5.3438 L 2.3177,5.2591 V 4.9665 c 0.2695,0 0.4389,-0.0231 0.5004999,-0.0693 C 2.8798,4.851 2.9029,4.7432 2.9029,4.5661 V 3.003 C 2.6565,3.2879 2.3485,3.4265 1.9789,3.4265 1.5015,3.4265 1.0934,3.2570999 0.7623,2.9106 0.4312,2.5641 0.2618,2.1483 0.2618,1.6632 0.2618,1.1935 0.4158,0.7854 0.73149997,0.4389 1.0472,0.0924 1.4322,-0.0847 1.9018999,-0.0847 2.2946,-0.0847 2.6257,0.0616 2.8798,0.3619 Z M 2.0097,3.1955 c 0.3311,0 0.6006,-0.1463 0.7931,-0.4389 0.0539,-0.0847 0.077,-0.1694 0.077,-0.2695 V 0.9317 C 2.8798,0.8316 2.8567,0.7469 2.8028,0.6622 2.5872,0.3157 2.2946,0.1463 1.9327,0.1463 1.617,0.1463 1.3629,0.3003 1.1626999,0.616 1.0241,0.847 0.9548,1.1935 0.9548,1.6554999 0.9548,2.4948 1.2397,3.1955 2.0097,3.1955 Z"
                       id="path77"
                       style="fill:#ff0000;fill-opacity:1" />
                  </g>
                </g>
              </g>
              <g
                 transform="translate(56.7913,7.513)"
                 id="g83"
                 style="fill:#ff0000;fill-opacity:1">
                <g
                   class="typst-text"
                   transform="scale(1,-1)"
                   id="g82"
                   style="fill:#ff0000;fill-opacity:1">
                  <g
                     id="g81"
                     style="fill:#ff0000;fill-opacity:1">
                    <path
                       d="m 1.595,-3.454 c 0,-0.1759999 0,-0.407 0.231,-0.407 0.242,0 0.253,0.22 0.253,0.407 V 8.9539995 C 2.079,9.13 2.068,9.361 1.837,9.361 1.595,9.361 1.595,9.141 1.595,8.9539995 Z"
                       id="path80"
                       style="fill:#ff0000;fill-opacity:1" />
                  </g>
                </g>
              </g>
            </g>
          </g>
        </g>
      </g>
      <defs
         id="id-c5fd5234-5eab-4fc5-8a0c-52b55e50cf9a">
        <symbol
           id="id-16542144-260a-4df2-b02c-6a146bb42f09"
           overflow="visible">
          <path
             d="m 1.595,-3.454 c 0,-0.1759999 0,-0.407 0.231,-0.407 0.242,0 0.253,0.22 0.253,0.407 V 8.9539995 C 2.079,9.13 2.068,9.361 1.837,9.361 1.595,9.361 1.595,9.141 1.595,8.9539995 Z"
             id="path87" />
        </symbol>
        <symbol
           id="id-6d2774d6-8e63-4245-9825-7de88845efa0"
           overflow="visible">
          <path
             d="M 7.304,7.48 C 7.106,7.48 6.424,7.513 6.215,7.513 6.05,7.513 5.962,7.425 5.962,7.2599998 5.962,7.139 6.028,7.084 6.171,7.084 6.402,7.084 6.523,7.018 6.523,6.886 6.523,6.765 6.424,6.6 6.237,6.391 L 3.762,3.542 2.596,6.699 C 2.563,6.787 2.541,6.842 2.53,6.875 c 0,0.143 0.198,0.209 0.594,0.209 0.209,0 0.308,0.088 0.308,0.264 0,0.11 -0.066,0.165 -0.209,0.165 L 1.848,7.48 C 1.606,7.48 0.83599997,7.513 0.638,7.513 0.473,7.513 0.385,7.425 0.385,7.249 0.385,7.139 0.484,7.084 0.682,7.084 0.88,7.084 1.045,7.062 1.144,7.04 1.353,6.985 1.364,6.952 1.43,6.743 L 2.772,3.168 C 2.805,3.091 2.816,3.036 2.816,3.003 L 2.585,2.09 C 2.453,1.529 2.365,1.177 2.321,1.034 2.244,0.737 2.167,0.561 2.09,0.506 2.013,0.451 1.76,0.429 1.342,0.429 1.1,0.41799998 1.001,0.407 1.001,0.16499999 1.001,0.055 1.067,0 1.199,0 L 2.574,0.033 3.96,0 C 4.125,-0.011 4.213,0.077 4.213,0.264 4.213,0.341 4.18,0.396 4.125,0.407 4.015,0.418 3.927,0.429 3.872,0.429 3.509,0.44 3.289,0.462 3.234,0.495 3.212,0.506 3.201,0.528 3.201,0.572 c 0,0.044 0.055,0.275 0.154,0.682 L 3.74,2.783 C 3.773,2.9259999 3.817,3.036 3.883,3.102 L 6.578,6.204 6.721,6.347 C 7.007,6.633 7.271,6.831 7.502,6.93 7.689,7.018 7.898,7.073 8.129,7.084 8.327,7.106 8.382,7.161 8.382,7.337 8.382,7.458 8.316,7.513 8.195,7.513 8.03,7.513 7.469,7.48 7.304,7.48 Z"
             id="path88" />
        </symbol>
        <symbol
           id="id-abc40b28-e6c1-430a-b29e-1d380b69e77d"
           overflow="visible">
          <path
             d="m 2.8028,2.9106 c 0,0.3003 -0.2849,0.4928 -0.5852001,0.4928 C 1.8249,3.4034 1.5246,3.1724 1.3244,2.7027 V 3.4034 L 0.2156,3.3187 V 3.0261 C 0.4851,3.0261 0.6468,3.003 0.7084,2.9568 0.77,2.9106 0.8008,2.8105 0.8008,2.6334 V 0.6083 C 0.8008,0.462 0.7777,0.3696 0.7238,0.3388 0.6699,0.308 0.5005,0.2926 0.2156,0.2926 V 0 L 1.1011,0.0231 C 1.4245,0.0308 1.7556,0.0231 2.0867,0 V 0.2926 H 1.9018999 C 1.6478,0.2926 1.4861,0.3157 1.4322,0.3542 1.3783,0.3927 1.3552,0.4851 1.3552,0.6237 v 1.1627 c 0,0.3311 0.0616,0.6314 0.1771,0.8855 0.154,0.3311 0.3773,0.5005 0.6776,0.5082 -0.077,-0.077 -0.1155,-0.1694 -0.1155,-0.2772 0,-0.2387 0.1155,-0.3542 0.3542,-0.3542 0.2079,0 0.3542,0.1617 0.3542,0.3619 z"
             id="path89" />
        </symbol>
        <symbol
           id="id-44f9bbfc-3390-495b-8ecb-b969ad087dec"
           overflow="visible">
          <path
             d="m 3.1955,1.9327 c 0,0.8854999 -0.5159,1.5169 -1.3783,1.5169 -0.462,0 -0.847,-0.1771 -1.1627,-0.539 C 0.3619,2.5718 0.2156,2.1637 0.2156,1.694 0.2156,1.2089 0.3773,0.80079997 0.7007,0.4466 1.0241,0.0924 1.4245,-0.0847 1.9018999,-0.0847 2.3408,-0.0847 2.6796,0.0693 2.9106,0.3696 3.1031,0.6237 3.1955,0.8085 3.1955,0.9317 3.1955,1.0087 3.1493,1.0472 3.0646,1.0472 3.003,1.0472 2.9645,1.0087 2.9414,0.924 2.772,0.4158 2.4409,0.1617 1.9481,0.1617 1.6015999,0.1617 1.3321,0.3234 1.1242,0.6545 0.97789997,0.8932 0.9086,1.2551 0.9009,1.7479 h 2.079 c 0.1694,0 0.2156,0.0154 0.2156,0.1848 z M 2.5102,2.6873 C 2.5949,2.4332 2.6334,2.1868 2.6334,1.9635 H 0.9086 c 0.0231,0.5082 0.154,0.8546999 0.385,1.0318 0.1925,0.154 0.3618999,0.231 0.5236,0.231 0.3465,0 0.5775,-0.1771 0.693,-0.539 z"
             id="path90" />
        </symbol>
        <symbol
           id="id-68b33967-16c2-4393-ab35-e479c0836cad"
           overflow="visible">
          <path
             d="M 3.7191,0.7007 V 1.155 H 3.4726999 V 0.7007 c 0,-0.30030002 -0.0847,-0.4543 -0.2463999,-0.4543 -0.154,0 -0.2464,0.1925 -0.2464,0.3465 v 1.5169 c 0,0.2694999 -0.0308,0.4697 -0.0847,0.6083 C 2.7104,3.1724 2.1791,3.4496 1.6401,3.4496 1.0472,3.4496 0.462,3.1185 0.462,2.5641 c 0,-0.2541 0.1309,-0.385 0.385,-0.385 0.2541,0 0.3773,0.1232 0.3773,0.3773 0,0.2233 -0.1155001,0.3542 -0.3542,0.3773 0.1694,0.1925 0.4235,0.2926 0.7546,0.2926 0.4774,0 0.77,-0.4389 0.77,-0.9394 V 2.0328 C 1.7941,1.9943 1.3398,1.9018999 1.0241,1.7556 0.5082,1.5169 0.2464,1.1858 0.2464,0.7469 c 0,-0.2002 0.077,-0.3696 0.2233,-0.5005 0.2464,-0.2233 0.5852,-0.3311 1.0164,-0.3311 0.4543,0 0.7777,0.1925 0.9779,0.5852 0.0539,-0.2926 0.2695,-0.5467 0.6006,-0.5467 0.4080999,0 0.6545,0.32339998 0.6545,0.7469 z M 1.54,0.13859999 c -0.3542,0 -0.6468,0.26179999 -0.6468,0.61600001 0,0.7161 0.7469,1.0241 1.5015,1.0626 V 1.0857 C 2.3947,0.5698 2.0559,0.13859999 1.54,0.13859999 Z"
             id="path91" />
        </symbol>
        <symbol
           id="id-2362925a-c94d-4f37-a534-37efff22acfc"
           overflow="visible">
          <path
             d="M 1.1087999,0.0231 1.9635,0 V 0.3003 C 1.6863,0.3003 1.5169,0.308 1.4629999,0.3388 1.4090999,0.3696 1.386,0.462 1.386,0.6083 V 5.3438 L 0.2541,5.2591 V 4.9665 C 0.5236,4.9665 0.693,4.9434 0.7469,4.8972 0.8008,4.851 0.8316,4.7432 0.8316,4.5661 V 0.6083 C 0.8316,0.462 0.8085,0.3696 0.7546,0.3388 0.7007,0.308 0.5313,0.3003 0.2541,0.3003 V 0 Z"
             id="path92" />
        </symbol>
        <symbol
           id="id-0f425d7e-a1bf-41d7-ad5e-b68a3d1bb3e9"
           overflow="visible">
          <path
             d="M 7.678,2.97 H 0.88 C 0.704,2.97 0.616,2.893 0.616,2.75 0.616,2.6069999 0.704,2.53 0.88,2.53 h 6.798 c 0.176,0 0.264,0.077 0.264,0.22 0,0.132 -0.132,0.22 -0.264,0.22 z"
             id="path93" />
        </symbol>
        <symbol
           id="id-8b168909-6020-4df8-9c9e-cc8fc44d9416"
           overflow="visible">
          <path
             d="m 2.2946,-0.1001 c 0.4774,0 0.8855,0.1694 1.2166,0.5159 C 3.8423,0.7623 4.0117,1.1704 4.0117,1.6554999 4.0117,2.1252 3.8576999,2.5256 3.5574,2.8644 3.2417,3.2263 2.8567,3.4034 2.3947,3.4034 2.002,3.4034 1.6632,3.2494 1.3706,2.9491 V 3.4034 L 0.2156,3.3187 V 3.0261 c 0.2849,0 0.4543,-0.0154 0.5082,-0.0539 C 0.7777,2.9337 0.8085,2.8336 0.8085,2.6719 V -0.8855 C 0.8085,-1.0318 0.7777,-1.1242 0.7238,-1.155 0.6699,-1.1858 0.5005,-1.1935 0.2156,-1.1935 v -0.3003 l 0.8778,0.0231 0.8855,-0.0231 v 0.3003 c -0.2849,0 -0.4466,0.0077 -0.5005,0.0385 -0.0539,0.0308 -0.0847,0.1232 -0.0847,0.2695 V 0.3388 C 1.5631,0.1001 1.8942,-0.1001 2.2946,-0.1001 Z M 2.3408,3.1493 C 2.6565,3.1493 2.9029,2.9722 3.0954,2.618 3.2417,2.3177 3.3187,2.002 3.3187,1.6554999 3.3187,1.2936 3.234,0.9625 3.0646,0.6622 2.8644,0.3003 2.5949,0.1232 2.2638,0.1232 1.9404,0.1232 1.6863,0.27719998 1.4938,0.5775 1.4245,0.6776 1.3937,0.7777 1.3937,0.8778 v 1.6863 c 0.2233,0.3927 0.539,0.5852 0.9471,0.5852 z"
             id="path94" />
        </symbol>
        <symbol
           id="id-039410ae-b6fa-4d18-bca4-1a0ad99747ed"
           overflow="visible">
          <path
             d="M 2.8798,-0.0847 4.0579,0 V 0.2926 C 3.7807,0.2926 3.619,0.308 3.5574,0.3542 3.4958,0.40039998 3.465,0.5159 3.465,0.693 V 5.3438 L 2.3177,5.2591 V 4.9665 c 0.2695,0 0.4389,-0.0231 0.5004999,-0.0693 C 2.8798,4.851 2.9029,4.7432 2.9029,4.5661 V 3.003 C 2.6565,3.2879 2.3485,3.4265 1.9789,3.4265 1.5015,3.4265 1.0934,3.2570999 0.7623,2.9106 0.4312,2.5641 0.2618,2.1483 0.2618,1.6632 0.2618,1.1935 0.4158,0.7854 0.73149997,0.4389 1.0472,0.0924 1.4322,-0.0847 1.9018999,-0.0847 2.2946,-0.0847 2.6257,0.0616 2.8798,0.3619 Z M 2.0097,3.1955 c 0.3311,0 0.6006,-0.1463 0.7931,-0.4389 0.0539,-0.0847 0.077,-0.1694 0.077,-0.2695 V 0.9317 C 2.8798,0.8316 2.8567,0.7469 2.8028,0.6622 2.5872,0.3157 2.2946,0.1463 1.9327,0.1463 1.617,0.1463 1.3629,0.3003 1.1626999,0.616 1.0241,0.847 0.9548,1.1935 0.9548,1.6554999 0.9548,2.4948 1.2397,3.1955 2.0097,3.1955 Z"
             id="path95" />
        </symbol>
      </defs>
    </g>
  </g>
</svg>
