<?xml version="1.0" encoding="UTF-8" standalone="no"?>
<!-- Created with Inkscape (http://www.inkscape.org/) -->

<svg
   width="93.410995mm"
   height="71.25013mm"
   viewBox="0 0 93.410995 71.25013"
   version="1.1"
   id="svg1"
   inkscape:version="1.4 (86a8ad7, 2024-10-11)"
   sodipodi:docname="dibujo.svg"
   xmlns:inkscape="http://www.inkscape.org/namespaces/inkscape"
   xmlns:sodipodi="http://sodipodi.sourceforge.net/DTD/sodipodi-0.dtd"
   xmlns="http://www.w3.org/2000/svg"
   xmlns:svg="http://www.w3.org/2000/svg"
   xmlns:ns4="http://www.iki.fi/pav/software/textext/">
  <sodipodi:namedview
     id="namedview1"
     pagecolor="#505050"
     bordercolor="#ffffff"
     borderopacity="1"
     inkscape:showpageshadow="0"
     inkscape:pageopacity="0"
     inkscape:pagecheckerboard="1"
     inkscape:deskcolor="#505050"
     inkscape:document-units="mm"
     inkscape:zoom="2.1713461"
     inkscape:cx="126.41928"
     inkscape:cy="144.84103"
     inkscape:window-width="1920"
     inkscape:window-height="991"
     inkscape:window-x="-9"
     inkscape:window-y="-9"
     inkscape:window-maximized="1"
     inkscape:current-layer="svg1"
     inkscape:clip-to-page="false" />
  <defs
     id="defs1">
    <marker
       style="overflow:visible"
       id="marker145"
       refX="0"
       refY="0"
       orient="auto-start-reverse"
       inkscape:stockid="Wide arrow"
       markerWidth="1"
       markerHeight="1"
       viewBox="0 0 1 1"
       inkscape:isstock="true"
       inkscape:collect="always"
       preserveAspectRatio="xMidYMid">
      <path
         style="fill:none;stroke:context-stroke;stroke-width:1;stroke-linecap:butt"
         d="M 3,-3 0,0 3,3"
         transform="rotate(180,0.125,0)"
         sodipodi:nodetypes="ccc"
         id="path145" />
    </marker>
    <marker
       style="overflow:visible"
       id="ArrowWide"
       refX="0"
       refY="0"
       orient="auto-start-reverse"
       inkscape:stockid="Wide arrow"
       markerWidth="1"
       markerHeight="1"
       viewBox="0 0 1 1"
       inkscape:isstock="true"
       inkscape:collect="always"
       preserveAspectRatio="xMidYMid">
      <path
         style="fill:none;stroke:context-stroke;stroke-width:1;stroke-linecap:butt"
         d="M 3,-3 0,0 3,3"
         transform="rotate(180,0.125,0)"
         sodipodi:nodetypes="ccc"
         id="path144" />
    </marker>
    <clipPath
       clipPathUnits="userSpaceOnUse"
       id="clipPath25">
      <rect
         style="fill:#ff0000;stroke:none;stroke-width:3;stroke-linecap:square;stroke-linejoin:miter;paint-order:stroke markers fill;stop-color:#000000"
         id="rect25-8"
         width="78"
         height="45.033199"
         x="763.61322"
         y="452.82422" />
    </clipPath>
  </defs>
  <g
     inkscape:label="Capa 1"
     inkscape:groupmode="layer"
     id="layer1"
     style="fill:none;stroke:#000000;stroke-opacity:1"
     transform="translate(-69.047633,-66.799077)">
    <path
       style="fill:none;fill-opacity:1;stroke:#000000;stroke-width:0.254774;stroke-dasharray:none;stroke-opacity:1;marker-start:url(#ArrowWide);marker-end:url(#marker145)"
       d="M 77.37478,67.794722 77.142488,134.30322 H 156.52056"
       id="path1"
       sodipodi:nodetypes="ccc" />
  </g>
  <circle
     id="path2"
     style="fill:#000000;stroke:#000000;stroke-width:0.264583"
     cx="0.13549511"
     cy="67.460854"
     r="0.0032036228" />
  <path
     style="fill:none;stroke:#000000;stroke-width:0.264583px;stroke-linecap:butt;stroke-linejoin:miter;stroke-opacity:1"
     d="m 8.0582218,49.600553 c 0,0 1.356311,0.35371 19.6208582,-16.31102 C 53.997977,9.275955 85.503787,12.061529 85.503787,12.061529"
     id="path3"
     sodipodi:nodetypes="csc" />
  <path
     style="fill:#a6a6a6;fill-opacity:0.5;stroke:none;stroke-width:0.264583px;stroke-linecap:butt;stroke-linejoin:miter;stroke-opacity:1"
     d="m 37.508057,67.406853 0.0215,-41.693959 c 0,0 3.70191,-2.480455 10.00067,-5.638605 2.99978,-1.504065 12.03666,-4.790796 12.17045,-4.480449 0.24166,0.560592 -0.45235,51.805213 -0.45235,51.805213 z"
     id="path127"
     sodipodi:nodetypes="ccsscc" />
  <g
     transform="matrix(0.35277801,0,0,0.35277801,13.401042,18.760148)"
     ns4:version="1.11.1"
     ns4:texconverter="typst"
     ns4:pdfconverter="inkscape"
     ns4:text="$F(b)-F(a)$"
     ns4:preamble="C:\Users\max02\AppData\Roaming\inkscape\extensions\textext\default_preamble_typst.typ"
     ns4:scale="1.0"
     ns4:alignment="middle center"
     ns4:inkscapeversion="1.4"
     ns4:jacobian_sqrt="0.352778"
     id="g56">
    <g
       id="g51">
      <g
         transform="translate(70.8661,70.8661)"
         id="g50">
        <g
           class="typst-group"
           id="g49">
          <g
             id="g48">
            <g
               transform="translate(0,7.513)"
               id="g23">
              <g
                 class="typst-text"
                 transform="scale(1,-1)"
                 id="g22">
                <g
                   id="g21">
                  <path
                     d="m 2.189,7.216 c 0,-0.11 0.121,-0.165 0.352,-0.165 0.44,0 0.66,-0.044 0.66,-0.143 0,-0.033 -0.022,-0.11 -0.055,-0.2530003 L 1.716,0.902 C 1.65,0.65999997 1.54,0.517 1.386,0.462 1.309,0.44 1.111,0.429 0.77,0.429 0.528,0.429 0.41799998,0.407 0.41799998,0.176 0.41799998,0.055 0.484,0 0.627,0 L 2.057,0.033 3.685,0 C 3.861,0 3.949,0.088 3.949,0.253 3.949,0.44 3.828,0.429 3.542,0.429 3.058,0.429 2.783,0.451 2.717,0.506 2.684,0.517 2.673,0.561 2.673,0.616 L 3.377,3.531 H 4.4 c 0.506,0 0.858,-0.022 0.858,-0.44 C 5.258,2.948 5.236,2.772 5.181,2.563 5.17,2.53 5.159,2.486 5.148,2.442 5.148,2.321 5.203,2.266 5.324,2.266 5.379,2.277 5.456,2.354 5.533,2.519 L 6.127,4.884 C 6.149,4.972 6.16,5.038 6.16,5.071 6.127,5.17 6.061,5.225 5.984,5.225 5.896,5.225 5.83,5.137 5.786,4.972 5.676,4.554 5.522,4.29 5.346,4.158 5.17,4.026 4.862,3.96 4.422,3.96 H 3.487 l 0.682,2.706 c 0.088,0.374 0.088,0.385 0.55,0.385 h 1.43 C 7.216,7.051 7.7,6.886 7.7,5.907 7.7,5.687 7.689,5.489 7.667,5.324 7.656,5.203 7.645,5.137 7.645,5.126 7.645,5.005 7.7,4.95 7.81,4.95 c 0.11,0 0.176,0.099 0.198,0.308 l 0.22,1.881 C 8.261,7.447 8.184,7.48 7.887,7.48 H 2.563 C 2.31,7.48 2.189,7.469 2.189,7.216 Z"
                     id="path21" />
                </g>
              </g>
            </g>
            <g
               transform="translate(8.547,7.513)"
               id="g26">
              <g
                 class="typst-text"
                 transform="scale(1,-1)"
                 id="g25">
                <g
                   id="g24">
                  <path
                     d="m 3.498,-2.728 c 0.099,0 0.154,0.055 0.154,0.154 0,0.033 -0.022,0.077 -0.055,0.121 -0.572,0.44 -1.034,1.166 -1.375,2.167 C 1.925,0.583 1.771,1.441 1.771,2.288 v 0.924 c 0,0.847 0.154,1.705 0.451,2.574 C 2.563,6.787 3.025,7.513 3.597,7.953 3.63,7.986 3.652,8.03 3.652,8.074 3.652,8.173 3.597,8.228 3.498,8.228 3.487,8.228 3.454,8.217 3.421,8.195 2.761,7.689 2.211,6.941 1.76,5.94 1.331,4.983 1.111,4.081 1.111,3.212 V 2.288 c 0,-0.869 0.22,-1.771 0.649,-2.728 0.451,-1.001 1.001,-1.749 1.661,-2.255 0.033,-0.022 0.066,-0.033 0.077,-0.033 z"
                     id="path23" />
                </g>
              </g>
            </g>
            <g
               transform="translate(12.826,7.513)"
               id="g29">
              <g
                 class="typst-text"
                 transform="scale(1,-1)"
                 id="g28">
                <g
                   id="g27">
                  <path
                     d="M 3.091,4.895 C 2.695,4.895 2.299,4.708 1.914,4.334 L 2.673,7.469 C 2.651,7.568 2.618,7.634 2.486,7.634 2.123,7.634 1.3199999,7.535 1.177,7.524 1.012,7.502 0.924,7.425 0.924,7.2599998 0.924,7.15 1.023,7.095 1.232,7.095 1.441,7.095 1.727,7.106 1.727,6.952 1.727,6.908 1.672,6.6879997 1.573,6.281 L 0.693,2.739 C 0.572,2.277 0.517,1.903 0.517,1.628 c 0,-0.946 0.506,-1.749 1.408,-1.749 0.7149999,0 1.342,0.363 1.892,1.1 0.495,0.682 0.748,1.397 0.748,2.134 0,0.957 -0.561,1.782 -1.474,1.782 z M 3.069,4.565 c 0.429,0 0.638,-0.33 0.638,-0.979 C 3.707,3.289 3.641,2.893 3.509,2.398 3.267,1.4629999 2.948,0.825 2.563,0.484 2.343,0.297 2.134,0.20899999 1.925,0.20899999 1.474,0.20899999 1.254,0.561 1.254,1.265 c 0,0.242 0.055,0.605 0.165,1.089 L 1.661,3.3439999 C 1.694,3.509 1.749,3.6299999 1.8149999,3.718 2.244,4.279 2.662,4.565 3.069,4.565 Z"
                     id="path26" />
                </g>
              </g>
            </g>
            <g
               transform="translate(17.699,7.513)"
               id="g32">
              <g
                 class="typst-text"
                 transform="scale(1,-1)"
                 id="g31">
                <g
                   id="g30">
                  <path
                     d="m 0.858,-2.695 c 0.66,0.506 1.21,1.254 1.661,2.255 0.429,0.957 0.649,1.859 0.649,2.728 V 3.212 C 3.168,4.081 2.948,4.983 2.519,5.94 2.068,6.941 1.518,7.689 0.858,8.195 0.825,8.217 0.792,8.228 0.781,8.228 0.682,8.228 0.627,8.173 0.627,8.074 0.627,8.03 0.649,7.986 0.682,7.953 1.254,7.513 1.716,6.787 2.057,5.786 2.354,4.917 2.508,4.059 2.508,3.212 V 2.288 C 2.508,1.441 2.354,0.583 2.057,-0.286 1.716,-1.287 1.254,-2.013 0.682,-2.453 0.649,-2.497 0.627,-2.541 0.627,-2.574 c 0,-0.099 0.055,-0.154 0.154,-0.154 0.011,0 0.044,0.011 0.077,0.033 z"
                     id="path29" />
                </g>
              </g>
            </g>
            <g
               transform="translate(24.4224,7.513)"
               id="g35">
              <g
                 class="typst-text"
                 transform="scale(1,-1)"
                 id="g34">
                <g
                   id="g33">
                  <path
                     d="M 7.678,2.97 H 0.88 C 0.704,2.97 0.616,2.893 0.616,2.75 0.616,2.6069999 0.704,2.53 0.88,2.53 h 6.798 c 0.176,0 0.264,0.077 0.264,0.22 0,0.132 -0.132,0.22 -0.264,0.22 z"
                     id="path32" />
                </g>
              </g>
            </g>
            <g
               transform="translate(35.4249,7.513)"
               id="g38">
              <g
                 class="typst-text"
                 transform="scale(1,-1)"
                 id="g37">
                <g
                   id="g36">
                  <path
                     d="m 2.189,7.216 c 0,-0.11 0.121,-0.165 0.352,-0.165 0.44,0 0.66,-0.044 0.66,-0.143 0,-0.033 -0.022,-0.11 -0.055,-0.2530003 L 1.716,0.902 C 1.65,0.65999997 1.54,0.517 1.386,0.462 1.309,0.44 1.111,0.429 0.77,0.429 0.528,0.429 0.41799998,0.407 0.41799998,0.176 0.41799998,0.055 0.484,0 0.627,0 L 2.057,0.033 3.685,0 C 3.861,0 3.949,0.088 3.949,0.253 3.949,0.44 3.828,0.429 3.542,0.429 3.058,0.429 2.783,0.451 2.717,0.506 2.684,0.517 2.673,0.561 2.673,0.616 L 3.377,3.531 H 4.4 c 0.506,0 0.858,-0.022 0.858,-0.44 C 5.258,2.948 5.236,2.772 5.181,2.563 5.17,2.53 5.159,2.486 5.148,2.442 5.148,2.321 5.203,2.266 5.324,2.266 5.379,2.277 5.456,2.354 5.533,2.519 L 6.127,4.884 C 6.149,4.972 6.16,5.038 6.16,5.071 6.127,5.17 6.061,5.225 5.984,5.225 5.896,5.225 5.83,5.137 5.786,4.972 5.676,4.554 5.522,4.29 5.346,4.158 5.17,4.026 4.862,3.96 4.422,3.96 H 3.487 l 0.682,2.706 c 0.088,0.374 0.088,0.385 0.55,0.385 h 1.43 C 7.216,7.051 7.7,6.886 7.7,5.907 7.7,5.687 7.689,5.489 7.667,5.324 7.656,5.203 7.645,5.137 7.645,5.126 7.645,5.005 7.7,4.95 7.81,4.95 c 0.11,0 0.176,0.099 0.198,0.308 l 0.22,1.881 C 8.261,7.447 8.184,7.48 7.887,7.48 H 2.563 C 2.31,7.48 2.189,7.469 2.189,7.216 Z"
                     id="path35" />
                </g>
              </g>
            </g>
            <g
               transform="translate(43.9719,7.513)"
               id="g41">
              <g
                 class="typst-text"
                 transform="scale(1,-1)"
                 id="g40">
                <g
                   id="g39">
                  <path
                     d="m 3.498,-2.728 c 0.099,0 0.154,0.055 0.154,0.154 0,0.033 -0.022,0.077 -0.055,0.121 -0.572,0.44 -1.034,1.166 -1.375,2.167 C 1.925,0.583 1.771,1.441 1.771,2.288 v 0.924 c 0,0.847 0.154,1.705 0.451,2.574 C 2.563,6.787 3.025,7.513 3.597,7.953 3.63,7.986 3.652,8.03 3.652,8.074 3.652,8.173 3.597,8.228 3.498,8.228 3.487,8.228 3.454,8.217 3.421,8.195 2.761,7.689 2.211,6.941 1.76,5.94 1.331,4.983 1.111,4.081 1.111,3.212 V 2.288 c 0,-0.869 0.22,-1.771 0.649,-2.728 0.451,-1.001 1.001,-1.749 1.661,-2.255 0.033,-0.022 0.066,-0.033 0.077,-0.033 z"
                     id="path38" />
                </g>
              </g>
            </g>
            <g
               transform="translate(48.2509,7.513)"
               id="g44">
              <g
                 class="typst-text"
                 transform="scale(1,-1)"
                 id="g43">
                <g
                   id="g42">
                  <path
                     d="M 5.478,1.584 C 5.478,1.683 5.423,1.738 5.302,1.738 5.214,1.738 5.148,1.661 5.115,1.507 4.895,0.638 4.631,0.198 4.334,0.198 4.147,0.198 4.048,0.352 4.048,0.65999997 4.048,0.803 4.092,1.067 4.191,1.452 l 0.627,2.475 c 0.055,0.209 0.077,0.33 0.077,0.385 0,0.22 -0.121,0.33 -0.363,0.33 C 4.301,4.642 4.147,4.5099998 4.07,4.257 3.839,4.664 3.509,4.862 3.091,4.862 2.376,4.862 1.749,4.499 1.199,3.773 0.693,3.091 0.44,2.387 0.44,1.65 c 0,-0.957 0.561,-1.771 1.485,-1.771 0.473,0 0.935,0.253 1.375,0.759 0.121,-0.418 0.495,-0.759 1.012,-0.759 0.759,0 0.99,0.891 1.166,1.705 z M 3.751,4.114 C 3.85,3.883 3.905,3.729 3.905,3.6299999 3.905,3.586 3.894,3.531 3.883,3.454 L 3.3439999,1.342 C 3.3109999,1.221 3.234,1.089 3.135,0.957 2.728,0.451 2.332,0.198 1.947,0.198 c -0.429,0 -0.649,0.33 -0.649,0.979 0,0.264 0.066,0.66 0.198,1.188 C 1.727,3.3 2.057,3.927 2.464,4.268 2.684,4.455 2.893,4.5429997 3.102,4.5429997 3.399,4.5429997 3.619,4.4 3.751,4.114 Z"
                     id="path41" />
                </g>
              </g>
            </g>
            <g
               transform="translate(54.0699,7.513)"
               id="g47">
              <g
                 class="typst-text"
                 transform="scale(1,-1)"
                 id="g46">
                <g
                   id="g45">
                  <path
                     d="m 0.858,-2.695 c 0.66,0.506 1.21,1.254 1.661,2.255 0.429,0.957 0.649,1.859 0.649,2.728 V 3.212 C 3.168,4.081 2.948,4.983 2.519,5.94 2.068,6.941 1.518,7.689 0.858,8.195 0.825,8.217 0.792,8.228 0.781,8.228 0.682,8.228 0.627,8.173 0.627,8.074 0.627,8.03 0.649,7.986 0.682,7.953 1.254,7.513 1.716,6.787 2.057,5.786 2.354,4.917 2.508,4.059 2.508,3.212 V 2.288 C 2.508,1.441 2.354,0.583 2.057,-0.286 1.716,-1.287 1.254,-2.013 0.682,-2.453 0.649,-2.497 0.627,-2.541 0.627,-2.574 c 0,-0.099 0.055,-0.154 0.154,-0.154 0.011,0 0.044,0.011 0.077,0.033 z"
                     id="path44" />
                </g>
              </g>
            </g>
          </g>
        </g>
      </g>
    </g>
    <defs
       id="id-3acc1aa4-483a-497a-9c4f-9b6e79127d0f">
      <symbol
         id="id-7d5b8098-1c41-424d-a34b-4f5754740856"
         overflow="visible">
        <path
           d="m 2.189,7.216 c 0,-0.11 0.121,-0.165 0.352,-0.165 0.44,0 0.66,-0.044 0.66,-0.143 0,-0.033 -0.022,-0.11 -0.055,-0.2530003 L 1.716,0.902 C 1.65,0.65999997 1.54,0.517 1.386,0.462 1.309,0.44 1.111,0.429 0.77,0.429 0.528,0.429 0.41799998,0.407 0.41799998,0.176 0.41799998,0.055 0.484,0 0.627,0 L 2.057,0.033 3.685,0 C 3.861,0 3.949,0.088 3.949,0.253 3.949,0.44 3.828,0.429 3.542,0.429 3.058,0.429 2.783,0.451 2.717,0.506 2.684,0.517 2.673,0.561 2.673,0.616 L 3.377,3.531 H 4.4 c 0.506,0 0.858,-0.022 0.858,-0.44 C 5.258,2.948 5.236,2.772 5.181,2.563 5.17,2.53 5.159,2.486 5.148,2.442 5.148,2.321 5.203,2.266 5.324,2.266 5.379,2.277 5.456,2.354 5.533,2.519 L 6.127,4.884 C 6.149,4.972 6.16,5.038 6.16,5.071 6.127,5.17 6.061,5.225 5.984,5.225 5.896,5.225 5.83,5.137 5.786,4.972 5.676,4.554 5.522,4.29 5.346,4.158 5.17,4.026 4.862,3.96 4.422,3.96 H 3.487 l 0.682,2.706 c 0.088,0.374 0.088,0.385 0.55,0.385 h 1.43 C 7.216,7.051 7.7,6.886 7.7,5.907 7.7,5.687 7.689,5.489 7.667,5.324 7.656,5.203 7.645,5.137 7.645,5.126 7.645,5.005 7.7,4.95 7.81,4.95 c 0.11,0 0.176,0.099 0.198,0.308 l 0.22,1.881 C 8.261,7.447 8.184,7.48 7.887,7.48 H 2.563 C 2.31,7.48 2.189,7.469 2.189,7.216 Z"
           id="path51" />
      </symbol>
      <symbol
         id="id-ce698399-9df8-4ebc-b0ed-1b7e1cf70dc6"
         overflow="visible">
        <path
           d="m 3.498,-2.728 c 0.099,0 0.154,0.055 0.154,0.154 0,0.033 -0.022,0.077 -0.055,0.121 -0.572,0.44 -1.034,1.166 -1.375,2.167 C 1.925,0.583 1.771,1.441 1.771,2.288 v 0.924 c 0,0.847 0.154,1.705 0.451,2.574 C 2.563,6.787 3.025,7.513 3.597,7.953 3.63,7.986 3.652,8.03 3.652,8.074 3.652,8.173 3.597,8.228 3.498,8.228 3.487,8.228 3.454,8.217 3.421,8.195 2.761,7.689 2.211,6.941 1.76,5.94 1.331,4.983 1.111,4.081 1.111,3.212 V 2.288 c 0,-0.869 0.22,-1.771 0.649,-2.728 0.451,-1.001 1.001,-1.749 1.661,-2.255 0.033,-0.022 0.066,-0.033 0.077,-0.033 z"
           id="path52" />
      </symbol>
      <symbol
         id="id-0db42f50-c8d9-4025-8992-630601a52161"
         overflow="visible">
        <path
           d="M 3.091,4.895 C 2.695,4.895 2.299,4.708 1.914,4.334 L 2.673,7.469 C 2.651,7.568 2.618,7.634 2.486,7.634 2.123,7.634 1.3199999,7.535 1.177,7.524 1.012,7.502 0.924,7.425 0.924,7.2599998 0.924,7.15 1.023,7.095 1.232,7.095 1.441,7.095 1.727,7.106 1.727,6.952 1.727,6.908 1.672,6.6879997 1.573,6.281 L 0.693,2.739 C 0.572,2.277 0.517,1.903 0.517,1.628 c 0,-0.946 0.506,-1.749 1.408,-1.749 0.7149999,0 1.342,0.363 1.892,1.1 0.495,0.682 0.748,1.397 0.748,2.134 0,0.957 -0.561,1.782 -1.474,1.782 z M 3.069,4.565 c 0.429,0 0.638,-0.33 0.638,-0.979 C 3.707,3.289 3.641,2.893 3.509,2.398 3.267,1.4629999 2.948,0.825 2.563,0.484 2.343,0.297 2.134,0.20899999 1.925,0.20899999 1.474,0.20899999 1.254,0.561 1.254,1.265 c 0,0.242 0.055,0.605 0.165,1.089 L 1.661,3.3439999 C 1.694,3.509 1.749,3.6299999 1.8149999,3.718 2.244,4.279 2.662,4.565 3.069,4.565 Z"
           id="path53" />
      </symbol>
      <symbol
         id="id-393b2d39-1671-4660-8786-43302ace7c0e"
         overflow="visible">
        <path
           d="m 0.858,-2.695 c 0.66,0.506 1.21,1.254 1.661,2.255 0.429,0.957 0.649,1.859 0.649,2.728 V 3.212 C 3.168,4.081 2.948,4.983 2.519,5.94 2.068,6.941 1.518,7.689 0.858,8.195 0.825,8.217 0.792,8.228 0.781,8.228 0.682,8.228 0.627,8.173 0.627,8.074 0.627,8.03 0.649,7.986 0.682,7.953 1.254,7.513 1.716,6.787 2.057,5.786 2.354,4.917 2.508,4.059 2.508,3.212 V 2.288 C 2.508,1.441 2.354,0.583 2.057,-0.286 1.716,-1.287 1.254,-2.013 0.682,-2.453 0.649,-2.497 0.627,-2.541 0.627,-2.574 c 0,-0.099 0.055,-0.154 0.154,-0.154 0.011,0 0.044,0.011 0.077,0.033 z"
           id="path54" />
      </symbol>
      <symbol
         id="id-9ca68bf6-975a-4d75-b1e4-0ea53ff02e75"
         overflow="visible">
        <path
           d="M 7.678,2.97 H 0.88 C 0.704,2.97 0.616,2.893 0.616,2.75 0.616,2.6069999 0.704,2.53 0.88,2.53 h 6.798 c 0.176,0 0.264,0.077 0.264,0.22 0,0.132 -0.132,0.22 -0.264,0.22 z"
           id="path55" />
      </symbol>
      <symbol
         id="id-63d8bfeb-7db7-4b52-b2cc-a1d3a404e39e"
         overflow="visible">
        <path
           d="M 5.478,1.584 C 5.478,1.683 5.423,1.738 5.302,1.738 5.214,1.738 5.148,1.661 5.115,1.507 4.895,0.638 4.631,0.198 4.334,0.198 4.147,0.198 4.048,0.352 4.048,0.65999997 4.048,0.803 4.092,1.067 4.191,1.452 l 0.627,2.475 c 0.055,0.209 0.077,0.33 0.077,0.385 0,0.22 -0.121,0.33 -0.363,0.33 C 4.301,4.642 4.147,4.5099998 4.07,4.257 3.839,4.664 3.509,4.862 3.091,4.862 2.376,4.862 1.749,4.499 1.199,3.773 0.693,3.091 0.44,2.387 0.44,1.65 c 0,-0.957 0.561,-1.771 1.485,-1.771 0.473,0 0.935,0.253 1.375,0.759 0.121,-0.418 0.495,-0.759 1.012,-0.759 0.759,0 0.99,0.891 1.166,1.705 z M 3.751,4.114 C 3.85,3.883 3.905,3.729 3.905,3.6299999 3.905,3.586 3.894,3.531 3.883,3.454 L 3.3439999,1.342 C 3.3109999,1.221 3.234,1.089 3.135,0.957 2.728,0.451 2.332,0.198 1.947,0.198 c -0.429,0 -0.649,0.33 -0.649,0.979 0,0.264 0.066,0.66 0.198,1.188 C 1.727,3.3 2.057,3.927 2.464,4.268 2.684,4.455 2.893,4.5429997 3.102,4.5429997 3.399,4.5429997 3.619,4.4 3.751,4.114 Z"
           id="path56" />
      </symbol>
    </defs>
  </g>
  <g
     transform="matrix(0.352778,0,0,0.352778,61.313457,-14.585379)"
     ns4:version="1.11.1"
     ns4:texconverter="typst"
     ns4:pdfconverter="inkscape"
     ns4:text="$f(x)$"
     ns4:preamble="C:\Users\max02\AppData\Roaming\inkscape\extensions\textext\default_preamble_typst.typ"
     ns4:scale="1.0"
     ns4:alignment="middle center"
     ns4:inkscapeversion="1.4"
     ns4:jacobian_sqrt="0.352778"
     id="g143">
    <g
       id="g140">
      <g
         transform="translate(70.8661,78.3791)"
         id="g130">
        <g
           class="typst-text"
           transform="scale(1,-1)"
           id="g129">
          <g
             id="g128">
            <path
               d="m 6.072,6.963 c 0,0.484 -0.473,0.792 -0.99,0.792 C 4.4,7.755 3.927,7.315 3.674,6.446 3.619,6.248 3.498,5.687 3.322,4.763 H 2.6069999 C 2.365,4.763 2.244,4.752 2.244,4.521 2.244,4.4 2.354,4.345 2.585,4.345 h 0.66 L 2.442,0.088 C 2.321,-0.539 2.211,-1.001 2.112,-1.309 1.98,-1.716 1.793,-1.925 1.551,-1.925 c -0.165,0 -0.297,0.044 -0.418,0.121 0.352,0.055 0.528,0.264 0.528,0.616 0,0.286 -0.143,0.429 -0.44,0.429 -0.374,0 -0.638,-0.33 -0.638,-0.7039999 0,-0.4840001 0.451,-0.792 0.968,-0.792 0.275,0 0.528,0.1099999 0.737,0.3409999 0.3519999,0.363 0.627,0.88 0.825,1.573 0.121,0.429 0.2309999,0.847 0.308,1.265 l 0.638,3.421 h 0.902 c 0.2529997,0 0.363,0.011 0.363,0.264 0,0.099 -0.1100003,0.154 -0.33,0.154 H 4.147 C 4.213,5.2139997 4.521,6.875 4.62,7.084 4.73,7.315 4.884,7.425 5.082,7.425 5.2469997,7.425 5.39,7.381 5.511,7.304 5.17,7.2269998 4.994,7.029 4.994,6.6879997 4.994,6.402 5.137,6.259 5.434,6.259 c 0.374,0 0.638,0.3299997 0.638,0.704 z"
               id="path128" />
          </g>
        </g>
      </g>
      <g
         transform="translate(77.2461,78.3791)"
         id="g133">
        <g
           class="typst-text"
           transform="scale(1,-1)"
           id="g132">
          <g
             id="g131">
            <path
               d="m 3.498,-2.728 c 0.099,0 0.154,0.055 0.154,0.154 0,0.033 -0.022,0.077 -0.055,0.121 -0.572,0.44 -1.034,1.166 -1.375,2.167 C 1.925,0.583 1.771,1.441 1.771,2.288 v 0.924 c 0,0.847 0.154,1.705 0.451,2.574 C 2.563,6.787 3.025,7.513 3.597,7.953 3.63,7.986 3.652,8.03 3.652,8.074 3.652,8.173 3.597,8.228 3.498,8.228 3.487,8.228 3.454,8.217 3.421,8.195 2.761,7.689 2.211,6.941 1.76,5.94 1.331,4.983 1.111,4.081 1.111,3.212 V 2.288 c 0,-0.869 0.22,-1.771 0.649,-2.728 0.451,-1.001 1.001,-1.749 1.661,-2.255 0.033,-0.022 0.066,-0.033 0.077,-0.033 z"
               id="path130" />
          </g>
        </g>
      </g>
      <g
         transform="translate(81.5251,78.3791)"
         id="g136">
        <g
           class="typst-text"
           transform="scale(1,-1)"
           id="g135">
          <g
             id="g134">
            <path
               d="M 5.797,4.103 C 5.797,4.609 5.302,4.862 4.752,4.862 4.279,4.862 3.905,4.609 3.619,4.103 3.388,4.609 3.003,4.862 2.442,4.862 1.903,4.862 1.4629999,4.609 1.111,4.114 0.814,3.685 0.65999997,3.366 0.65999997,3.157 0.65999997,3.058 0.715,3.003 0.825,3.003 0.924,3.003 0.99,3.058 1.012,3.157 1.221,3.795 1.683,4.5429997 2.42,4.5429997 2.783,4.5429997 2.9589999,4.312 2.9589999,3.861 2.9589999,3.6299999 2.761,2.772 2.376,1.298 2.189,0.561 1.859,0.198 1.386,0.198 c -0.154,0 -0.297,0.033 -0.418,0.088 0.286,0.11 0.429,0.308 0.429,0.594 0,0.286 -0.143,0.429 -0.44,0.429 -0.363,0 -0.638,-0.308 -0.638,-0.671 0,-0.506 0.51699997,-0.759 1.056,-0.759 0.462,0 0.836,0.253 1.133,0.759 0.209,-0.506 0.605,-0.759 1.177,-0.759 0.528,0 0.968,0.253 1.32,0.748 0.297,0.429 0.451,0.748 0.451,0.957 0,0.099 -0.055,0.154 -0.165,0.154 C 5.192,1.738 5.137,1.683 5.104,1.584 4.917,0.957 4.422,0.198 3.707,0.198 c -0.3630001,0 -0.55,0.21999998 -0.55,0.671 0,0.143 0.055,0.4509999 0.176,0.9459999 L 3.707,3.3 c 0.209,0.825 0.55,1.2429997 1.034,1.2429997 0.154,0 0.297,-0.033 0.418,-0.088 -0.297,-0.099 -0.44,-0.297 -0.44,-0.594 0,-0.286 0.154,-0.429 0.451,-0.429 0.352,0 0.627,0.319 0.627,0.6710003 z"
               id="path133" />
          </g>
        </g>
      </g>
      <g
         transform="translate(87.8171,78.3791)"
         id="g139">
        <g
           class="typst-text"
           transform="scale(1,-1)"
           id="g138">
          <g
             id="g137">
            <path
               d="m 0.858,-2.695 c 0.66,0.506 1.21,1.254 1.661,2.255 0.429,0.957 0.649,1.859 0.649,2.728 V 3.212 C 3.168,4.081 2.948,4.983 2.519,5.94 2.068,6.941 1.518,7.689 0.858,8.195 0.825,8.217 0.792,8.228 0.781,8.228 0.682,8.228 0.627,8.173 0.627,8.074 0.627,8.03 0.649,7.986 0.682,7.953 1.254,7.513 1.716,6.787 2.057,5.786 2.354,4.917 2.508,4.059 2.508,3.212 V 2.288 C 2.508,1.441 2.354,0.583 2.057,-0.286 1.716,-1.287 1.254,-2.013 0.682,-2.453 0.649,-2.497 0.627,-2.541 0.627,-2.574 c 0,-0.099 0.055,-0.154 0.154,-0.154 0.011,0 0.044,0.011 0.077,0.033 z"
               id="path136" />
          </g>
        </g>
      </g>
    </g>
    <defs
       id="id-8a1849c2-0dd7-47b5-954f-e187698c223e">
      <symbol
         id="id-e4b98847-359b-4dec-9366-7d4c88a82158"
         overflow="visible">
        <path
           d="m 6.072,6.963 c 0,0.484 -0.473,0.792 -0.99,0.792 C 4.4,7.755 3.927,7.315 3.674,6.446 3.619,6.248 3.498,5.687 3.322,4.763 H 2.6069999 C 2.365,4.763 2.244,4.752 2.244,4.521 2.244,4.4 2.354,4.345 2.585,4.345 h 0.66 L 2.442,0.088 C 2.321,-0.539 2.211,-1.001 2.112,-1.309 1.98,-1.716 1.793,-1.925 1.551,-1.925 c -0.165,0 -0.297,0.044 -0.418,0.121 0.352,0.055 0.528,0.264 0.528,0.616 0,0.286 -0.143,0.429 -0.44,0.429 -0.374,0 -0.638,-0.33 -0.638,-0.7039999 0,-0.4840001 0.451,-0.792 0.968,-0.792 0.275,0 0.528,0.1099999 0.737,0.3409999 0.3519999,0.363 0.627,0.88 0.825,1.573 0.121,0.429 0.2309999,0.847 0.308,1.265 l 0.638,3.421 h 0.902 c 0.2529997,0 0.363,0.011 0.363,0.264 0,0.099 -0.1100003,0.154 -0.33,0.154 H 4.147 C 4.213,5.2139997 4.521,6.875 4.62,7.084 4.73,7.315 4.884,7.425 5.082,7.425 5.2469997,7.425 5.39,7.381 5.511,7.304 5.17,7.2269998 4.994,7.029 4.994,6.6879997 4.994,6.402 5.137,6.259 5.434,6.259 c 0.374,0 0.638,0.3299997 0.638,0.704 z"
           id="path140" />
      </symbol>
      <symbol
         id="id-e2f56762-bc12-4d7a-86a1-e3a7050cc4f1"
         overflow="visible">
        <path
           d="m 3.498,-2.728 c 0.099,0 0.154,0.055 0.154,0.154 0,0.033 -0.022,0.077 -0.055,0.121 -0.572,0.44 -1.034,1.166 -1.375,2.167 C 1.925,0.583 1.771,1.441 1.771,2.288 v 0.924 c 0,0.847 0.154,1.705 0.451,2.574 C 2.563,6.787 3.025,7.513 3.597,7.953 3.63,7.986 3.652,8.03 3.652,8.074 3.652,8.173 3.597,8.228 3.498,8.228 3.487,8.228 3.454,8.217 3.421,8.195 2.761,7.689 2.211,6.941 1.76,5.94 1.331,4.983 1.111,4.081 1.111,3.212 V 2.288 c 0,-0.869 0.22,-1.771 0.649,-2.728 0.451,-1.001 1.001,-1.749 1.661,-2.255 0.033,-0.022 0.066,-0.033 0.077,-0.033 z"
           id="path141" />
      </symbol>
      <symbol
         id="id-3b72b885-2ec4-4f88-b6c4-4b2161198eb5"
         overflow="visible">
        <path
           d="M 5.797,4.103 C 5.797,4.609 5.302,4.862 4.752,4.862 4.279,4.862 3.905,4.609 3.619,4.103 3.388,4.609 3.003,4.862 2.442,4.862 1.903,4.862 1.4629999,4.609 1.111,4.114 0.814,3.685 0.65999997,3.366 0.65999997,3.157 0.65999997,3.058 0.715,3.003 0.825,3.003 0.924,3.003 0.99,3.058 1.012,3.157 1.221,3.795 1.683,4.5429997 2.42,4.5429997 2.783,4.5429997 2.9589999,4.312 2.9589999,3.861 2.9589999,3.6299999 2.761,2.772 2.376,1.298 2.189,0.561 1.859,0.198 1.386,0.198 c -0.154,0 -0.297,0.033 -0.418,0.088 0.286,0.11 0.429,0.308 0.429,0.594 0,0.286 -0.143,0.429 -0.44,0.429 -0.363,0 -0.638,-0.308 -0.638,-0.671 0,-0.506 0.51699997,-0.759 1.056,-0.759 0.462,0 0.836,0.253 1.133,0.759 0.209,-0.506 0.605,-0.759 1.177,-0.759 0.528,0 0.968,0.253 1.32,0.748 0.297,0.429 0.451,0.748 0.451,0.957 0,0.099 -0.055,0.154 -0.165,0.154 C 5.192,1.738 5.137,1.683 5.104,1.584 4.917,0.957 4.422,0.198 3.707,0.198 c -0.3630001,0 -0.55,0.21999998 -0.55,0.671 0,0.143 0.055,0.4509999 0.176,0.9459999 L 3.707,3.3 c 0.209,0.825 0.55,1.2429997 1.034,1.2429997 0.154,0 0.297,-0.033 0.418,-0.088 -0.297,-0.099 -0.44,-0.297 -0.44,-0.594 0,-0.286 0.154,-0.429 0.451,-0.429 0.352,0 0.627,0.319 0.627,0.6710003 z"
           id="path142" />
      </symbol>
      <symbol
         id="id-2d0b91e1-340b-40b6-9b88-85b1c8feb914"
         overflow="visible">
        <path
           d="m 0.858,-2.695 c 0.66,0.506 1.21,1.254 1.661,2.255 0.429,0.957 0.649,1.859 0.649,2.728 V 3.212 C 3.168,4.081 2.948,4.983 2.519,5.94 2.068,6.941 1.518,7.689 0.858,8.195 0.825,8.217 0.792,8.228 0.781,8.228 0.682,8.228 0.627,8.173 0.627,8.074 0.627,8.03 0.649,7.986 0.682,7.953 1.254,7.513 1.716,6.787 2.057,5.786 2.354,4.917 2.508,4.059 2.508,3.212 V 2.288 C 2.508,1.441 2.354,0.583 2.057,-0.286 1.716,-1.287 1.254,-2.013 0.682,-2.453 0.649,-2.497 0.627,-2.541 0.627,-2.574 c 0,-0.099 0.055,-0.154 0.154,-0.154 0.011,0 0.044,0.011 0.077,0.033 z"
           id="path143" />
      </symbol>
    </defs>
  </g>
  <g
     transform="matrix(0.352778,0,0,0.352778,-20.663847,-25.935216)"
     ns4:version="1.11.1"
     ns4:texconverter="typst"
     ns4:pdfconverter="inkscape"
     ns4:text="$y$"
     ns4:preamble="C:\Users\max02\AppData\Roaming\inkscape\extensions\textext\default_preamble_typst.typ"
     ns4:scale="1.0"
     ns4:alignment="middle center"
     ns4:inkscapeversion="1.4"
     ns4:jacobian_sqrt="0.352778"
     id="g154">
    <g
       id="g153">
      <g
         transform="translate(70.8661,78.3791)"
         id="g152">
        <g
           class="typst-text"
           transform="scale(1,-1)"
           id="g151">
          <g
             id="g150">
            <path
               d="M 1.793,4.862 C 1.298,4.862 0.913,4.587 0.638,4.037 0.429,3.608 0.319,3.3109999 0.319,3.146 c 0,-0.099 0.055,-0.154 0.176,-0.154 0.154,0 0.16499997,0.066 0.209,0.231 0.253,0.869 0.605,1.309 1.056,1.309 0.143,0 0.22,-0.099 0.22,-0.297 C 1.98,4.059 1.925,3.806 1.804,3.487 1.386,2.354 1.177,1.595 1.177,1.188 c 0,-0.836 0.517,-1.331 1.364,-1.331 0.363,0 0.704,0.132 1.012,0.396 -0.385,-1.452 -0.99,-2.178 -1.815,-2.178 -0.374,0 -0.627,0.121 -0.759,0.363 0.44,0.022 0.6599999,0.231 0.6599999,0.627 0,0.27500003 -0.1429999,0.418 -0.4399999,0.418 -0.407,0 -0.649,-0.341 -0.649,-0.748 0,-0.605 0.55,-0.9899999 1.188,-0.9899999 1.265,0 2.299,1.1659999 2.574,2.2439999 L 5.346,4.147 C 5.379,4.268 5.39,4.356 5.39,4.411 5.39,4.631 5.269,4.741 5.038,4.741 4.862,4.741 4.719,4.653 4.62,4.488 4.554,4.257 4.499,4.059 4.466,3.894 L 3.762,1.067 C 3.652,0.671 3.069,0.176 2.574,0.176 c -0.418,0 -0.627,0.275 -0.627,0.836 0,0.462 0.187,1.166 0.55,2.112 0.1429999,0.385 0.22,0.649 0.22,0.803 0,0.539 -0.385,0.935 -0.924,0.935 z"
               id="path150" />
          </g>
        </g>
      </g>
    </g>
    <defs
       id="id-60488d2a-41ac-4bec-be22-fb998b5d214b">
      <symbol
         id="id-26951bfc-3c2f-4aec-be9c-c99949a0012b"
         overflow="visible">
        <path
           d="M 1.793,4.862 C 1.298,4.862 0.913,4.587 0.638,4.037 0.429,3.608 0.319,3.3109999 0.319,3.146 c 0,-0.099 0.055,-0.154 0.176,-0.154 0.154,0 0.16499997,0.066 0.209,0.231 0.253,0.869 0.605,1.309 1.056,1.309 0.143,0 0.22,-0.099 0.22,-0.297 C 1.98,4.059 1.925,3.806 1.804,3.487 1.386,2.354 1.177,1.595 1.177,1.188 c 0,-0.836 0.517,-1.331 1.364,-1.331 0.363,0 0.704,0.132 1.012,0.396 -0.385,-1.452 -0.99,-2.178 -1.815,-2.178 -0.374,0 -0.627,0.121 -0.759,0.363 0.44,0.022 0.6599999,0.231 0.6599999,0.627 0,0.27500003 -0.1429999,0.418 -0.4399999,0.418 -0.407,0 -0.649,-0.341 -0.649,-0.748 0,-0.605 0.55,-0.9899999 1.188,-0.9899999 1.265,0 2.299,1.1659999 2.574,2.2439999 L 5.346,4.147 C 5.379,4.268 5.39,4.356 5.39,4.411 5.39,4.631 5.269,4.741 5.038,4.741 4.862,4.741 4.719,4.653 4.62,4.488 4.554,4.257 4.499,4.059 4.466,3.894 L 3.762,1.067 C 3.652,0.671 3.069,0.176 2.574,0.176 c -0.418,0 -0.627,0.275 -0.627,0.836 0,0.462 0.187,1.166 0.55,2.112 0.1429999,0.385 0.22,0.649 0.22,0.803 0,0.539 -0.385,0.935 -0.924,0.935 z"
           id="path153" />
      </symbol>
    </defs>
  </g>
  <g
     transform="matrix(0.352778,0,0,0.352778,63.652496,40.934163)"
     ns4:version="1.11.1"
     ns4:texconverter="typst"
     ns4:pdfconverter="inkscape"
     ns4:text="$x$"
     ns4:preamble="C:\Users\max02\AppData\Roaming\inkscape\extensions\textext\default_preamble_typst.typ"
     ns4:scale="1.0"
     ns4:alignment="middle center"
     ns4:inkscapeversion="1.4"
     ns4:jacobian_sqrt="0.352778"
     id="g159">
    <g
       id="g158">
      <g
         transform="translate(70.8661,78.3791)"
         id="g157">
        <g
           class="typst-text"
           transform="scale(1,-1)"
           id="g156">
          <g
             id="g155">
            <path
               d="M 5.797,4.103 C 5.797,4.609 5.302,4.862 4.752,4.862 4.279,4.862 3.905,4.609 3.619,4.103 3.388,4.609 3.003,4.862 2.442,4.862 1.903,4.862 1.4629999,4.609 1.111,4.114 0.814,3.685 0.65999997,3.366 0.65999997,3.157 0.65999997,3.058 0.715,3.003 0.825,3.003 0.924,3.003 0.99,3.058 1.012,3.157 1.221,3.795 1.683,4.5429997 2.42,4.5429997 2.783,4.5429997 2.9589999,4.312 2.9589999,3.861 2.9589999,3.6299999 2.761,2.772 2.376,1.298 2.189,0.561 1.859,0.198 1.386,0.198 c -0.154,0 -0.297,0.033 -0.418,0.088 0.286,0.11 0.429,0.308 0.429,0.594 0,0.286 -0.143,0.429 -0.44,0.429 -0.363,0 -0.638,-0.308 -0.638,-0.671 0,-0.506 0.51699997,-0.759 1.056,-0.759 0.462,0 0.836,0.253 1.133,0.759 0.209,-0.506 0.605,-0.759 1.177,-0.759 0.528,0 0.968,0.253 1.32,0.748 0.297,0.429 0.451,0.748 0.451,0.957 0,0.099 -0.055,0.154 -0.165,0.154 C 5.192,1.738 5.137,1.683 5.104,1.584 4.917,0.957 4.422,0.198 3.707,0.198 c -0.3630001,0 -0.55,0.21999998 -0.55,0.671 0,0.143 0.055,0.4509999 0.176,0.9459999 L 3.707,3.3 c 0.209,0.825 0.55,1.2429997 1.034,1.2429997 0.154,0 0.297,-0.033 0.418,-0.088 -0.297,-0.099 -0.44,-0.297 -0.44,-0.594 0,-0.286 0.154,-0.429 0.451,-0.429 0.352,0 0.627,0.319 0.627,0.6710003 z"
               id="path154" />
          </g>
        </g>
      </g>
    </g>
    <defs
       id="id-0de03d4e-a252-49ba-9acd-97c39ff472c8">
      <symbol
         id="id-e50f6258-71dd-47da-973f-52cd597afac0"
         overflow="visible">
        <path
           d="M 5.797,4.103 C 5.797,4.609 5.302,4.862 4.752,4.862 4.279,4.862 3.905,4.609 3.619,4.103 3.388,4.609 3.003,4.862 2.442,4.862 1.903,4.862 1.4629999,4.609 1.111,4.114 0.814,3.685 0.65999997,3.366 0.65999997,3.157 0.65999997,3.058 0.715,3.003 0.825,3.003 0.924,3.003 0.99,3.058 1.012,3.157 1.221,3.795 1.683,4.5429997 2.42,4.5429997 2.783,4.5429997 2.9589999,4.312 2.9589999,3.861 2.9589999,3.6299999 2.761,2.772 2.376,1.298 2.189,0.561 1.859,0.198 1.386,0.198 c -0.154,0 -0.297,0.033 -0.418,0.088 0.286,0.11 0.429,0.308 0.429,0.594 0,0.286 -0.143,0.429 -0.44,0.429 -0.363,0 -0.638,-0.308 -0.638,-0.671 0,-0.506 0.51699997,-0.759 1.056,-0.759 0.462,0 0.836,0.253 1.133,0.759 0.209,-0.506 0.605,-0.759 1.177,-0.759 0.528,0 0.968,0.253 1.32,0.748 0.297,0.429 0.451,0.748 0.451,0.957 0,0.099 -0.055,0.154 -0.165,0.154 C 5.192,1.738 5.137,1.683 5.104,1.584 4.917,0.957 4.422,0.198 3.707,0.198 c -0.3630001,0 -0.55,0.21999998 -0.55,0.671 0,0.143 0.055,0.4509999 0.176,0.9459999 L 3.707,3.3 c 0.209,0.825 0.55,1.2429997 1.034,1.2429997 0.154,0 0.297,-0.033 0.418,-0.088 -0.297,-0.099 -0.44,-0.297 -0.44,-0.594 0,-0.286 0.154,-0.429 0.451,-0.429 0.352,0 0.627,0.319 0.627,0.6710003 z"
           id="path158" />
      </symbol>
    </defs>
  </g>
  <g
     transform="matrix(0.352778,0,0,0.352778,33.262827,43.557024)"
     ns4:version="1.11.1"
     ns4:texconverter="typst"
     ns4:pdfconverter="inkscape"
     ns4:text="$b$"
     ns4:preamble="C:\Users\max02\AppData\Roaming\inkscape\extensions\textext\default_preamble_typst.typ"
     ns4:scale="1.0"
     ns4:alignment="middle center"
     ns4:inkscapeversion="1.4"
     ns4:jacobian_sqrt="0.352778"
     id="g164">
    <g
       id="g163">
      <g
         transform="translate(70.8661,78.3791)"
         id="g162">
        <g
           class="typst-text"
           transform="scale(1,-1)"
           id="g161">
          <g
             id="g160">
            <path
               d="M 3.091,4.895 C 2.695,4.895 2.299,4.708 1.914,4.334 L 2.673,7.469 C 2.651,7.568 2.618,7.634 2.486,7.634 2.123,7.634 1.3199999,7.535 1.177,7.524 1.012,7.502 0.924,7.425 0.924,7.2599998 0.924,7.15 1.023,7.095 1.232,7.095 1.441,7.095 1.727,7.106 1.727,6.952 1.727,6.908 1.672,6.6879997 1.573,6.281 L 0.693,2.739 C 0.572,2.277 0.517,1.903 0.517,1.628 c 0,-0.946 0.506,-1.749 1.408,-1.749 0.7149999,0 1.342,0.363 1.892,1.1 0.495,0.682 0.748,1.397 0.748,2.134 0,0.957 -0.561,1.782 -1.474,1.782 z M 3.069,4.565 c 0.429,0 0.638,-0.33 0.638,-0.979 C 3.707,3.289 3.641,2.893 3.509,2.398 3.267,1.4629999 2.948,0.825 2.563,0.484 2.343,0.297 2.134,0.20899999 1.925,0.20899999 1.474,0.20899999 1.254,0.561 1.254,1.265 c 0,0.242 0.055,0.605 0.165,1.089 L 1.661,3.3439999 C 1.694,3.509 1.749,3.6299999 1.8149999,3.718 2.244,4.279 2.662,4.565 3.069,4.565 Z"
               id="path159" />
          </g>
        </g>
      </g>
    </g>
    <defs
       id="id-90474fe9-78b8-48af-9df8-fbc2a1eb1689">
      <symbol
         id="id-04fa6300-da59-4e69-b717-2c2cd8c99576"
         overflow="visible">
        <path
           d="M 3.091,4.895 C 2.695,4.895 2.299,4.708 1.914,4.334 L 2.673,7.469 C 2.651,7.568 2.618,7.634 2.486,7.634 2.123,7.634 1.3199999,7.535 1.177,7.524 1.012,7.502 0.924,7.425 0.924,7.2599998 0.924,7.15 1.023,7.095 1.232,7.095 1.441,7.095 1.727,7.106 1.727,6.952 1.727,6.908 1.672,6.6879997 1.573,6.281 L 0.693,2.739 C 0.572,2.277 0.517,1.903 0.517,1.628 c 0,-0.946 0.506,-1.749 1.408,-1.749 0.7149999,0 1.342,0.363 1.892,1.1 0.495,0.682 0.748,1.397 0.748,2.134 0,0.957 -0.561,1.782 -1.474,1.782 z M 3.069,4.565 c 0.429,0 0.638,-0.33 0.638,-0.979 C 3.707,3.289 3.641,2.893 3.509,2.398 3.267,1.4629999 2.948,0.825 2.563,0.484 2.343,0.297 2.134,0.20899999 1.925,0.20899999 1.474,0.20899999 1.254,0.561 1.254,1.265 c 0,0.242 0.055,0.605 0.165,1.089 L 1.661,3.3439999 C 1.694,3.509 1.749,3.6299999 1.8149999,3.718 2.244,4.279 2.662,4.565 3.069,4.565 Z"
           id="path163" />
      </symbol>
    </defs>
  </g>
  <g
     transform="matrix(0.352778,0,0,0.352778,11.79123,43.353486)"
     ns4:version="1.11.1"
     ns4:texconverter="typst"
     ns4:pdfconverter="inkscape"
     ns4:text="$a$"
     ns4:preamble="C:\Users\max02\AppData\Roaming\inkscape\extensions\textext\default_preamble_typst.typ"
     ns4:scale="1.0"
     ns4:alignment="middle center"
     ns4:inkscapeversion="1.4"
     ns4:jacobian_sqrt="0.352778"
     id="g172">
    <g
       id="g171">
      <g
         transform="translate(70.8661,78.3791)"
         id="g170">
        <g
           class="typst-text"
           transform="scale(1,-1)"
           id="g169">
          <g
             id="g168">
            <path
               d="M 5.478,1.584 C 5.478,1.683 5.423,1.738 5.302,1.738 5.214,1.738 5.148,1.661 5.115,1.507 4.895,0.638 4.631,0.198 4.334,0.198 4.147,0.198 4.048,0.352 4.048,0.65999997 4.048,0.803 4.092,1.067 4.191,1.452 l 0.627,2.475 c 0.055,0.209 0.077,0.33 0.077,0.385 0,0.22 -0.121,0.33 -0.363,0.33 C 4.301,4.642 4.147,4.5099998 4.07,4.257 3.839,4.664 3.509,4.862 3.091,4.862 2.376,4.862 1.749,4.499 1.199,3.773 0.693,3.091 0.44,2.387 0.44,1.65 c 0,-0.957 0.561,-1.771 1.485,-1.771 0.473,0 0.935,0.253 1.375,0.759 0.121,-0.418 0.495,-0.759 1.012,-0.759 0.759,0 0.99,0.891 1.166,1.705 z M 3.751,4.114 C 3.85,3.883 3.905,3.729 3.905,3.6299999 3.905,3.586 3.894,3.531 3.883,3.454 L 3.3439999,1.342 C 3.3109999,1.221 3.234,1.089 3.135,0.957 2.728,0.451 2.332,0.198 1.947,0.198 c -0.429,0 -0.649,0.33 -0.649,0.979 0,0.264 0.066,0.66 0.198,1.188 C 1.727,3.3 2.057,3.927 2.464,4.268 2.684,4.455 2.893,4.5429997 3.102,4.5429997 3.399,4.5429997 3.619,4.4 3.751,4.114 Z"
               id="path168" />
          </g>
        </g>
      </g>
    </g>
    <defs
       id="id-ac1b059a-ab0f-46ec-81c4-2e93b49650a5">
      <symbol
         id="id-cd8049cd-7c21-476f-aa74-b874914651f1"
         overflow="visible">
        <path
           d="M 5.478,1.584 C 5.478,1.683 5.423,1.738 5.302,1.738 5.214,1.738 5.148,1.661 5.115,1.507 4.895,0.638 4.631,0.198 4.334,0.198 4.147,0.198 4.048,0.352 4.048,0.65999997 4.048,0.803 4.092,1.067 4.191,1.452 l 0.627,2.475 c 0.055,0.209 0.077,0.33 0.077,0.385 0,0.22 -0.121,0.33 -0.363,0.33 C 4.301,4.642 4.147,4.5099998 4.07,4.257 3.839,4.664 3.509,4.862 3.091,4.862 2.376,4.862 1.749,4.499 1.199,3.773 0.693,3.091 0.44,2.387 0.44,1.65 c 0,-0.957 0.561,-1.771 1.485,-1.771 0.473,0 0.935,0.253 1.375,0.759 0.121,-0.418 0.495,-0.759 1.012,-0.759 0.759,0 0.99,0.891 1.166,1.705 z M 3.751,4.114 C 3.85,3.883 3.905,3.729 3.905,3.6299999 3.905,3.586 3.894,3.531 3.883,3.454 L 3.3439999,1.342 C 3.3109999,1.221 3.234,1.089 3.135,0.957 2.728,0.451 2.332,0.198 1.947,0.198 c -0.429,0 -0.649,0.33 -0.649,0.979 0,0.264 0.066,0.66 0.198,1.188 C 1.727,3.3 2.057,3.927 2.464,4.268 2.684,4.455 2.893,4.5429997 3.102,4.5429997 3.399,4.5429997 3.619,4.4 3.751,4.114 Z"
           id="path171" />
      </symbol>
    </defs>
  </g>
</svg>
